<svg width="18" height="16" viewBox="0 0 18 16" fill="none" xmlns="http://www.w3.org/2000/svg">
<path fill-rule="evenodd" clip-rule="evenodd" d="M5.89329 2.12717C4.97829 2.12717 4.06413 2.45801 3.36746 3.12051C2.70079 3.75551 2.33329 4.59801 2.33329 5.49301C2.33329 6.38717 2.70079 7.22967 3.36746 7.86467L8.99996 13.2247L14.6325 7.86467C15.2991 7.22967 15.6666 6.38717 15.6666 5.49301C15.6666 4.59884 15.2991 3.75551 14.6325 3.12051C13.24 1.79551 10.9733 1.79551 9.58079 3.12051L8.99996 3.67384L8.41913 3.12051C7.72246 2.45801 6.80829 2.12717 5.89329 2.12717ZM8.99996 15.4997L2.20579 9.03384C1.21329 8.08967 0.666626 6.83217 0.666626 5.49301C0.666626 4.15384 1.21329 2.89634 2.20579 1.95134C4.05579 0.190506 6.95996 0.0321731 8.99996 1.47384C11.04 0.0321731 13.9441 0.190506 15.7941 1.95134C16.7866 2.89634 17.3333 4.15384 17.3333 5.49301C17.3333 6.83217 16.7866 8.08967 15.7941 9.03384L8.99996 15.4997Z" fill="#101010"/>
</svg>
