<svg width="24" height="22" viewBox="0 0 24 22" fill="none" xmlns="http://www.w3.org/2000/svg">
<path fill-rule="evenodd" clip-rule="evenodd" d="M7.65068 2.77805C6.36968 2.77805 5.08984 3.24122 4.11451 4.16872C3.18118 5.05772 2.66668 6.23722 2.66668 7.49022C2.66668 8.74205 3.18118 9.92155 4.11451 10.8106L12 18.3146L19.8855 10.8106C20.8188 9.92155 21.3333 8.74205 21.3333 7.49022C21.3333 6.23839 20.8188 5.05772 19.8855 4.16872C17.936 2.31372 14.7627 2.31372 12.8132 4.16872L12 4.94339L11.1868 4.16872C10.2115 3.24122 8.93168 2.77805 7.65068 2.77805ZM12 21.4996L2.48818 12.4474C1.09868 11.1256 0.333344 9.36505 0.333344 7.49022C0.333344 5.61539 1.09868 3.85489 2.48818 2.53189C5.07818 0.0667212 9.14401 -0.154945 12 1.86339C14.856 -0.154945 18.9218 0.0667212 21.5118 2.53189C22.9013 3.85489 23.6667 5.61539 23.6667 7.49022C23.6667 9.36505 22.9013 11.1256 21.5118 12.4474L12 21.4996Z" fill="#508B8C"/>
</svg>
