<svg width="200" height="200" viewBox="0 0 200 200" fill="none" xmlns="http://www.w3.org/2000/svg">
<rect width="200" height="200" rx="16" fill="#E6A57E"/>
<path d="M78.23 173.24C77.4033 173.24 76.6233 173.1 75.89 172.82C75.1567 172.527 74.51 172.1 73.95 171.54C73.4033 170.98 72.97 170.287 72.65 169.46C72.33 168.62 72.17 167.653 72.17 166.56C72.17 165.48 72.3367 164.52 72.67 163.68C73.0033 162.827 73.45 162.107 74.01 161.52C74.57 160.933 75.2233 160.487 75.97 160.18C76.7167 159.873 77.5033 159.72 78.33 159.72C79.17 159.72 79.9233 159.893 80.59 160.24C81.2567 160.573 81.81 160.967 82.25 161.42L80.69 163.3C80.3567 162.993 80.0033 162.747 79.63 162.56C79.27 162.36 78.8567 162.26 78.39 162.26C77.95 162.26 77.53 162.36 77.13 162.56C76.7433 162.747 76.4033 163.02 76.11 163.38C75.83 163.74 75.6033 164.18 75.43 164.7C75.27 165.22 75.19 165.807 75.19 166.46C75.19 167.807 75.4767 168.853 76.05 169.6C76.6233 170.333 77.39 170.7 78.35 170.7C78.8833 170.7 79.3567 170.587 79.77 170.36C80.1967 170.12 80.57 169.827 80.89 169.48L82.45 171.32C81.3567 172.6 79.95 173.24 78.23 173.24ZM84.9391 176.88C84.6324 176.88 84.3724 176.86 84.1591 176.82C83.9457 176.793 83.7391 176.747 83.5391 176.68L84.0591 174.44C84.1524 174.467 84.2591 174.493 84.3791 174.52C84.4991 174.547 84.6124 174.56 84.7191 174.56C85.2124 174.56 85.5924 174.44 85.8591 174.2C86.1257 173.96 86.3257 173.647 86.4591 173.26L86.5991 172.74L82.7791 163.08H85.7391L87.1591 167.34C87.3057 167.793 87.4391 168.253 87.5591 168.72C87.6791 169.187 87.8057 169.667 87.9391 170.16H88.0191C88.1257 169.693 88.2324 169.227 88.3391 168.76C88.4591 168.28 88.5791 167.807 88.6991 167.34L89.8991 163.08H92.7191L89.2791 173.1C89.0391 173.727 88.7857 174.273 88.5191 174.74C88.2657 175.22 87.9657 175.613 87.6191 175.92C87.2857 176.24 86.8991 176.48 86.4591 176.64C86.0324 176.8 85.5257 176.88 84.9391 176.88ZM94.2688 173V163.08H97.6288L98.8688 166.48C99.0021 166.88 99.1221 167.267 99.2288 167.64C99.3488 168 99.4621 168.353 99.5688 168.7H99.6488C99.7688 168.353 99.8888 168 100.009 167.64C100.129 167.267 100.249 166.88 100.369 166.48L101.529 163.08H104.869V173H102.269V170.46C102.269 170.193 102.275 169.873 102.289 169.5C102.315 169.127 102.342 168.74 102.369 168.34C102.409 167.94 102.442 167.553 102.469 167.18C102.509 166.793 102.542 166.46 102.569 166.18H102.489C102.342 166.62 102.182 167.087 102.009 167.58C101.835 168.073 101.675 168.533 101.529 168.96L100.369 172.14H98.7688L97.5888 168.96C97.4421 168.533 97.2754 168.073 97.0888 167.58C96.9154 167.073 96.7554 166.607 96.6088 166.18H96.5288C96.5554 166.46 96.5821 166.793 96.6088 167.18C96.6488 167.553 96.6821 167.94 96.7088 168.34C96.7488 168.74 96.7821 169.127 96.8088 169.5C96.8354 169.873 96.8488 170.193 96.8488 170.46V173H94.2688ZM107.472 173V163.08H110.412V166.74H111.432L112.292 164.92C112.492 164.507 112.699 164.167 112.912 163.9C113.125 163.62 113.359 163.407 113.612 163.26C113.879 163.1 114.159 162.993 114.452 162.94C114.745 162.873 115.072 162.84 115.432 162.84C115.725 162.84 115.992 162.887 116.232 162.98L115.772 165.7C115.705 165.673 115.639 165.653 115.572 165.64C115.519 165.627 115.459 165.62 115.392 165.62C115.139 165.62 114.912 165.68 114.712 165.8C114.512 165.92 114.319 166.193 114.132 166.62L113.612 167.8L116.952 173H113.732L111.452 169.04H110.412V173H107.472ZM118.39 173V163.08H121.23V165.84C121.23 166.333 121.203 166.893 121.15 167.52C121.097 168.133 121.043 168.747 120.99 169.36H121.05C121.21 169.053 121.403 168.707 121.63 168.32C121.857 167.92 122.043 167.573 122.19 167.28L124.77 163.08H127.45V173H124.61V170.24C124.61 169.733 124.637 169.173 124.69 168.56C124.743 167.947 124.803 167.333 124.87 166.72H124.79C124.63 167.027 124.437 167.38 124.21 167.78C123.997 168.18 123.81 168.52 123.65 168.8L121.07 173H118.39Z" fill="#101010"/>
<path d="M123.333 83.3333H76.6667V123.333H123.333V83.3333Z" stroke="#101010" stroke-width="3" stroke-linecap="round" stroke-linejoin="round"/>
<path d="M86.6667 83.3333C86.6667 79.7971 88.0715 76.4057 90.572 73.9052C93.0725 71.4048 96.4639 70 100 70C103.536 70 106.928 71.4048 109.428 73.9052C111.929 76.4057 113.333 79.7971 113.333 83.3333" stroke="#101010" stroke-width="3" stroke-linecap="round" stroke-linejoin="round"/>
</svg>
