<svg width="200" height="200" viewBox="0 0 200 200" fill="none" xmlns="http://www.w3.org/2000/svg">
<rect width="200" height="200" rx="16" fill="#A3CDCE"/>
<path d="M73.5224 173V159.96H76.4624V165.08H77.9024L79.6024 162.08C79.8558 161.64 80.1024 161.273 80.3424 160.98C80.5958 160.673 80.8624 160.427 81.1424 160.24C81.4224 160.053 81.7158 159.92 82.0224 159.84C82.3291 159.76 82.6691 159.72 83.0424 159.72C83.2291 159.72 83.4158 159.733 83.6024 159.76C83.8024 159.787 83.9758 159.833 84.1224 159.9L83.6424 162.56C83.5358 162.52 83.4291 162.5 83.3224 162.5C83.2158 162.487 83.1291 162.48 83.0624 162.48C82.7691 162.48 82.5158 162.56 82.3024 162.72C82.1024 162.88 81.8691 163.193 81.6024 163.66L80.2224 166.06L84.4624 173H81.3624L77.9024 167.46H76.4624V173H73.5224ZM85.7238 173V163.08H88.6638V166.66H91.8438V163.08H94.7838V173H91.8438V169.22H88.6638V173H85.7238ZM97.3645 173V163.08H100.204V165.84C100.204 166.333 100.178 166.893 100.124 167.52C100.071 168.133 100.018 168.747 99.9645 169.36H100.024C100.184 169.053 100.378 168.707 100.604 168.32C100.831 167.92 101.018 167.573 101.164 167.28L103.744 163.08H106.424V173H103.584V170.24C103.584 169.733 103.611 169.173 103.664 168.56C103.718 167.947 103.778 167.333 103.844 166.72H103.764C103.604 167.027 103.411 167.38 103.184 167.78C102.971 168.18 102.784 168.52 102.624 168.8L100.044 173H97.3645ZM109.025 173V163.08H115.845V165.38H111.965V173H109.025ZM117.657 173V163.08H120.497V165.84C120.497 166.333 120.471 166.893 120.417 167.52C120.364 168.133 120.311 168.747 120.257 169.36H120.317C120.477 169.053 120.671 168.707 120.897 168.32C121.124 167.92 121.311 167.573 121.457 167.28L124.037 163.08H126.717V173H123.877V170.24C123.877 169.733 123.904 169.173 123.957 168.56C124.011 167.947 124.071 167.333 124.137 166.72H124.057C123.897 167.027 123.704 167.38 123.477 167.78C123.264 168.18 123.077 168.52 122.917 168.8L120.337 173H117.657Z" fill="#101010"/>
<path d="M90 86.6667H106.667" stroke="#101010" stroke-width="3" stroke-linecap="round" stroke-linejoin="round"/>
<path d="M120 70V130H80.0001C79.116 130 78.2682 129.649 77.6431 129.024C77.0179 128.399 76.6667 127.551 76.6667 126.667V73.3333C76.6667 72.4493 77.0179 71.6014 77.6431 70.9763C78.2682 70.3512 79.116 70 80.0001 70H120Z" stroke="#101010" stroke-width="3" stroke-linecap="round" stroke-linejoin="round"/>
<path d="M76.6667 123.333V120C76.6667 119.116 77.0179 118.268 77.6431 117.643C78.2682 117.018 79.116 116.667 80.0001 116.667H120" stroke="#101010" stroke-width="3" stroke-linecap="round" stroke-linejoin="round"/>
</svg>
