<svg width="210" height="48" viewBox="0 0 210 48" fill="none" xmlns="http://www.w3.org/2000/svg">
<rect width="210" height="48" rx="24" fill="#508B8C"/>
<path d="M37.2785 30V18.64H46.4785V30H44.2865V20.576H39.4705V30H37.2785ZM52.5355 30.16C51.6182 30.16 50.8288 29.9627 50.1675 29.568C49.5168 29.1627 49.0155 28.6293 48.6635 27.968C48.3115 27.3067 48.1355 26.592 48.1355 25.824C48.1355 25.0453 48.3115 24.3253 48.6635 23.664C49.0262 23.0027 49.5328 22.4747 50.1835 22.08C50.8448 21.6747 51.6288 21.472 52.5355 21.472C53.4422 21.472 54.2208 21.6747 54.8715 22.08C55.5328 22.4747 56.0395 23.0027 56.3915 23.664C56.7435 24.3253 56.9195 25.0453 56.9195 25.824C56.9195 26.592 56.7435 27.3067 56.3915 27.968C56.0395 28.6293 55.5328 29.1627 54.8715 29.568C54.2208 29.9627 53.4422 30.16 52.5355 30.16ZM50.3435 25.824C50.3435 26.3147 50.4395 26.752 50.6315 27.136C50.8235 27.5093 51.0848 27.8027 51.4155 28.016C51.7462 28.2293 52.1195 28.336 52.5355 28.336C52.9408 28.336 53.3088 28.2293 53.6395 28.016C53.9702 27.792 54.2315 27.4933 54.4235 27.12C54.6262 26.736 54.7275 26.2987 54.7275 25.808C54.7275 25.328 54.6262 24.9013 54.4235 24.528C54.2315 24.144 53.9702 23.8453 53.6395 23.632C53.3088 23.408 52.9408 23.296 52.5355 23.296C52.1195 23.296 51.7462 23.408 51.4155 23.632C51.0848 23.8453 50.8235 24.144 50.6315 24.528C50.4395 24.9013 50.3435 25.3333 50.3435 25.824ZM58.3666 30V21.616H60.5106V24.784H61.2306L63.5026 21.616H65.8386L62.8626 25.664L66.1586 30H63.7106L61.1986 26.672H60.5106V30H58.3666ZM66.8375 27.52C66.8375 26.976 66.9868 26.5013 67.2855 26.096C67.5948 25.68 68.0215 25.36 68.5655 25.136C69.1095 24.912 69.7335 24.8 70.4375 24.8C70.7895 24.8 71.1468 24.832 71.5095 24.896C71.8722 24.9493 72.1868 25.0293 72.4535 25.136V24.688C72.4535 24.1547 72.2935 23.744 71.9735 23.456C71.6642 23.168 71.2002 23.024 70.5815 23.024C70.1228 23.024 69.6855 23.104 69.2695 23.264C68.8535 23.424 68.4162 23.6587 67.9575 23.968L67.2695 22.56C67.8242 22.1973 68.3895 21.9253 68.9655 21.744C69.5522 21.5627 70.1655 21.472 70.8055 21.472C72.0002 21.472 72.9282 21.7707 73.5895 22.368C74.2615 22.9653 74.5975 23.8187 74.5975 24.928V27.6C74.5975 27.8347 74.6348 28 74.7095 28.096C74.7842 28.1813 74.9175 28.2347 75.1095 28.256V30C74.9175 30.0427 74.7415 30.0693 74.5815 30.08C74.4322 30.1013 74.3042 30.112 74.1975 30.112C73.7708 30.112 73.4455 30.016 73.2215 29.824C72.9975 29.632 72.8642 29.3973 72.8215 29.12L72.7735 28.688C72.4002 29.168 71.9415 29.536 71.3975 29.792C70.8642 30.0373 70.3148 30.16 69.7495 30.16C69.1842 30.16 68.6828 30.048 68.2455 29.824C67.8082 29.5893 67.4615 29.2747 67.2055 28.88C66.9602 28.4747 66.8375 28.0213 66.8375 27.52ZM72.0535 27.952C72.3202 27.696 72.4535 27.4507 72.4535 27.216V26.368C71.8988 26.144 71.3388 26.032 70.7735 26.032C70.2082 26.032 69.7495 26.1547 69.3975 26.4C69.0455 26.6347 68.8695 26.9493 68.8695 27.344C68.8695 27.664 68.9975 27.952 69.2535 28.208C69.5095 28.464 69.8775 28.592 70.3575 28.592C70.6775 28.592 70.9868 28.5333 71.2855 28.416C71.5948 28.2987 71.8508 28.144 72.0535 27.952ZM79.593 30.128C78.697 30.128 77.945 29.968 77.337 29.648C76.7397 29.328 76.2757 28.8853 75.945 28.32L77.673 27.536C77.8543 27.8133 78.089 28.032 78.377 28.192C78.6757 28.3413 79.0437 28.416 79.481 28.416C79.9823 28.416 80.3663 28.32 80.633 28.128C80.9103 27.9253 81.049 27.664 81.049 27.344C81.049 27.056 80.937 26.8213 80.713 26.64C80.489 26.448 80.1583 26.352 79.721 26.352H78.857V25.024H79.737C80.0357 25.024 80.2703 24.9387 80.441 24.768C80.6223 24.5973 80.713 24.3733 80.713 24.096C80.713 23.8187 80.6063 23.6 80.393 23.44C80.1903 23.2693 79.865 23.184 79.417 23.184C79.0437 23.184 78.7343 23.2533 78.489 23.392C78.2437 23.5307 78.0463 23.7387 77.897 24.016L76.281 23.152C76.5797 22.6293 77.0063 22.2187 77.561 21.92C78.1263 21.6213 78.7823 21.472 79.529 21.472C80.1157 21.472 80.6383 21.5627 81.097 21.744C81.5663 21.9253 81.9343 22.192 82.201 22.544C82.4677 22.8853 82.601 23.3067 82.601 23.808C82.601 24.1707 82.5103 24.5227 82.329 24.864C82.1583 25.2053 81.8757 25.456 81.481 25.616C81.993 25.7653 82.377 26.0213 82.633 26.384C82.8997 26.7467 83.033 27.1733 83.033 27.664C83.033 28.1973 82.8837 28.6507 82.585 29.024C82.2863 29.3867 81.8757 29.664 81.353 29.856C80.841 30.0373 80.2543 30.128 79.593 30.128ZM83.9625 27.52C83.9625 26.976 84.1118 26.5013 84.4105 26.096C84.7198 25.68 85.1465 25.36 85.6905 25.136C86.2345 24.912 86.8585 24.8 87.5625 24.8C87.9145 24.8 88.2718 24.832 88.6345 24.896C88.9972 24.9493 89.3118 25.0293 89.5785 25.136V24.688C89.5785 24.1547 89.4185 23.744 89.0985 23.456C88.7892 23.168 88.3252 23.024 87.7065 23.024C87.2478 23.024 86.8105 23.104 86.3945 23.264C85.9785 23.424 85.5412 23.6587 85.0825 23.968L84.3945 22.56C84.9492 22.1973 85.5145 21.9253 86.0905 21.744C86.6772 21.5627 87.2905 21.472 87.9305 21.472C89.1252 21.472 90.0532 21.7707 90.7145 22.368C91.3865 22.9653 91.7225 23.8187 91.7225 24.928V27.6C91.7225 27.8347 91.7598 28 91.8345 28.096C91.9092 28.1813 92.0425 28.2347 92.2345 28.256V30C92.0425 30.0427 91.8665 30.0693 91.7065 30.08C91.5572 30.1013 91.4292 30.112 91.3225 30.112C90.8958 30.112 90.5705 30.016 90.3465 29.824C90.1225 29.632 89.9892 29.3973 89.9465 29.12L89.8985 28.688C89.5252 29.168 89.0665 29.536 88.5225 29.792C87.9892 30.0373 87.4398 30.16 86.8745 30.16C86.3092 30.16 85.8078 30.048 85.3705 29.824C84.9332 29.5893 84.5865 29.2747 84.3305 28.88C84.0852 28.4747 83.9625 28.0213 83.9625 27.52ZM89.1785 27.952C89.4452 27.696 89.5785 27.4507 89.5785 27.216V26.368C89.0238 26.144 88.4638 26.032 87.8985 26.032C87.3332 26.032 86.8745 26.1547 86.5225 26.4C86.1705 26.6347 85.9945 26.9493 85.9945 27.344C85.9945 27.664 86.1225 27.952 86.3785 28.208C86.6345 28.464 87.0025 28.592 87.4825 28.592C87.8025 28.592 88.1118 28.5333 88.4105 28.416C88.7198 28.2987 88.9758 28.144 89.1785 27.952ZM95.5683 30V23.488H92.9123V21.616H100.384V23.488H97.7123V30H95.5683ZM101.585 30V21.616H103.729V24.256H105.633C106.636 24.256 107.404 24.512 107.937 25.024C108.471 25.536 108.737 26.2133 108.737 27.056C108.737 27.92 108.481 28.6293 107.969 29.184C107.468 29.728 106.737 30 105.777 30H101.585ZM103.729 28.368H105.441C105.879 28.368 106.199 28.2453 106.401 28C106.604 27.744 106.705 27.4347 106.705 27.072C106.705 26.72 106.609 26.4267 106.417 26.192C106.225 25.9467 105.895 25.824 105.425 25.824H103.729V28.368ZM118.105 30.16C116.665 30.16 115.572 29.7387 114.825 28.896C114.089 28.0427 113.721 26.8 113.721 25.168C113.721 23.8133 113.881 22.7307 114.201 21.92C114.521 21.0987 114.996 20.4693 115.625 20.032C116.254 19.5947 117.044 19.2587 117.993 19.024L121.593 18.112L121.625 19.856L118.073 20.784C117.294 21.0187 116.67 21.376 116.201 21.856C115.732 22.336 115.454 23.0347 115.369 23.952C115.689 23.4187 116.126 23.0027 116.681 22.704C117.236 22.4053 117.908 22.256 118.697 22.256C119.444 22.256 120.1 22.416 120.665 22.736C121.23 23.056 121.668 23.504 121.977 24.08C122.297 24.6453 122.457 25.296 122.457 26.032C122.457 26.832 122.292 27.5467 121.961 28.176C121.63 28.7947 121.14 29.28 120.489 29.632C119.838 29.984 119.044 30.16 118.105 30.16ZM118.105 28.336C118.766 28.336 119.289 28.1387 119.673 27.744C120.068 27.3387 120.265 26.8053 120.265 26.144C120.265 25.504 120.073 24.9813 119.689 24.576C119.305 24.1707 118.777 23.968 118.105 23.968C117.476 23.968 116.953 24.16 116.537 24.544C116.132 24.928 115.929 25.4613 115.929 26.144C115.929 26.7947 116.121 27.3227 116.505 27.728C116.889 28.1333 117.422 28.336 118.105 28.336ZM127.754 30.16C126.837 30.16 126.048 29.9627 125.386 29.568C124.736 29.1627 124.234 28.6293 123.882 27.968C123.53 27.3067 123.354 26.592 123.354 25.824C123.354 25.0453 123.53 24.3253 123.882 23.664C124.245 23.0027 124.752 22.4747 125.402 22.08C126.064 21.6747 126.848 21.472 127.754 21.472C128.661 21.472 129.44 21.6747 130.09 22.08C130.752 22.4747 131.258 23.0027 131.61 23.664C131.962 24.3253 132.138 25.0453 132.138 25.824C132.138 26.592 131.962 27.3067 131.61 27.968C131.258 28.6293 130.752 29.1627 130.09 29.568C129.44 29.9627 128.661 30.16 127.754 30.16ZM125.562 25.824C125.562 26.3147 125.658 26.752 125.85 27.136C126.042 27.5093 126.304 27.8027 126.634 28.016C126.965 28.2293 127.338 28.336 127.754 28.336C128.16 28.336 128.528 28.2293 128.858 28.016C129.189 27.792 129.45 27.4933 129.642 27.12C129.845 26.736 129.946 26.2987 129.946 25.808C129.946 25.328 129.845 24.9013 129.642 24.528C129.45 24.144 129.189 23.8453 128.858 23.632C128.528 23.408 128.16 23.296 127.754 23.296C127.338 23.296 126.965 23.408 126.634 23.632C126.304 23.8453 126.042 24.144 125.85 24.528C125.658 24.9013 125.562 25.3333 125.562 25.824ZM132.977 30.112V28.208C133.319 28.1973 133.612 28.0853 133.857 27.872C134.113 27.6587 134.316 27.2693 134.465 26.704C134.615 26.1387 134.711 25.3227 134.753 24.256L134.865 21.616H141.153V30H139.009V23.488H136.753L136.721 24.464C136.657 25.9253 136.481 27.0667 136.193 27.888C135.916 28.6987 135.511 29.2693 134.977 29.6C134.444 29.9307 133.777 30.1013 132.977 30.112ZM143.101 30V21.616H145.245V24.256H147.149C148.152 24.256 148.92 24.512 149.453 25.024C149.986 25.536 150.253 26.2133 150.253 27.056C150.253 27.92 149.997 28.6293 149.485 29.184C148.984 29.728 148.253 30 147.293 30H143.101ZM145.245 28.368H146.957C147.394 28.368 147.714 28.2453 147.917 28C148.12 27.744 148.221 27.4347 148.221 27.072C148.221 26.72 148.125 26.4267 147.933 26.192C147.741 25.9467 147.41 25.824 146.941 25.824H145.245V28.368ZM151.601 30V21.616H153.745V28.128H156.417V21.616H158.577V28.128H161.233V21.616H163.377V30H151.601ZM169.223 30.16C168.317 30.16 167.533 29.9627 166.871 29.568C166.221 29.1733 165.714 28.6507 165.351 28C164.989 27.3387 164.807 26.624 164.807 25.856C164.807 25.0667 164.983 24.3413 165.335 23.68C165.698 23.008 166.21 22.4747 166.871 22.08C167.533 21.6747 168.322 21.472 169.239 21.472C170.157 21.472 170.941 21.6747 171.591 22.08C172.242 22.4747 172.738 23.0027 173.079 23.664C173.431 24.3147 173.607 25.0187 173.607 25.776C173.607 26.0533 173.591 26.2933 173.559 26.496H167.079C167.133 27.1467 167.373 27.6587 167.799 28.032C168.237 28.4053 168.738 28.592 169.303 28.592C169.73 28.592 170.13 28.4907 170.503 28.288C170.887 28.0747 171.149 27.7973 171.287 27.456L173.127 27.968C172.818 28.608 172.322 29.136 171.639 29.552C170.957 29.9573 170.151 30.16 169.223 30.16ZM167.031 25.136H171.415C171.351 24.5067 171.111 24 170.695 23.616C170.29 23.2213 169.794 23.024 169.207 23.024C168.631 23.024 168.135 23.2213 167.719 23.616C167.314 24 167.085 24.5067 167.031 25.136Z" fill="white"/>
</svg>
