<svg width="200" height="200" viewBox="0 0 200 200" fill="none" xmlns="http://www.w3.org/2000/svg">
<rect width="200" height="200" rx="16" fill="#BEB4C5"/>
<path d="M67.917 173V159.96H76.817V162.44H70.857V165.06H72.657C73.337 165.06 73.977 165.127 74.577 165.26C75.1903 165.38 75.7236 165.593 76.177 165.9C76.6303 166.193 76.9903 166.58 77.257 167.06C77.5236 167.54 77.657 168.14 77.657 168.86C77.657 169.607 77.5303 170.247 77.277 170.78C77.0236 171.3 76.6703 171.727 76.217 172.06C75.777 172.38 75.257 172.62 74.657 172.78C74.057 172.927 73.417 173 72.737 173H67.917ZM70.857 170.72H72.437C73.2236 170.72 73.8103 170.58 74.197 170.3C74.5836 170.007 74.777 169.54 74.777 168.9C74.777 168.287 74.577 167.853 74.177 167.6C73.777 167.347 73.1903 167.22 72.417 167.22H70.857V170.72ZM80.4176 176.88C80.1109 176.88 79.8509 176.86 79.6376 176.82C79.4242 176.793 79.2176 176.747 79.0176 176.68L79.5376 174.44C79.6309 174.467 79.7376 174.493 79.8576 174.52C79.9776 174.547 80.0909 174.56 80.1976 174.56C80.6909 174.56 81.0709 174.44 81.3376 174.2C81.6042 173.96 81.8042 173.647 81.9376 173.26L82.0776 172.74L78.2576 163.08H81.2176L82.6376 167.34C82.7842 167.793 82.9176 168.253 83.0376 168.72C83.1576 169.187 83.2842 169.667 83.4176 170.16H83.4976C83.6042 169.693 83.7109 169.227 83.8176 168.76C83.9376 168.28 84.0576 167.807 84.1776 167.34L85.3776 163.08H88.1976L84.7576 173.1C84.5176 173.727 84.2642 174.273 83.9976 174.74C83.7442 175.22 83.4442 175.613 83.0976 175.92C82.7642 176.24 82.3776 176.48 81.9376 176.64C81.5109 176.8 81.0042 176.88 80.4176 176.88ZM89.7473 173V163.08H92.6873V166.74H93.7073L94.5673 164.92C94.7673 164.507 94.9739 164.167 95.1873 163.9C95.4006 163.62 95.6339 163.407 95.8873 163.26C96.1539 163.1 96.4339 162.993 96.7273 162.94C97.0206 162.873 97.3473 162.84 97.7073 162.84C98.0006 162.84 98.2673 162.887 98.5073 162.98L98.0473 165.7C97.9806 165.673 97.9139 165.653 97.8473 165.64C97.7939 165.627 97.7339 165.62 97.6673 165.62C97.4139 165.62 97.1873 165.68 96.9873 165.8C96.7873 165.92 96.5939 166.193 96.4073 166.62L95.8873 167.8L99.2273 173H96.0073L93.7273 169.04H92.6873V173H89.7473ZM104.578 173.24C103.871 173.24 103.211 173.127 102.598 172.9C101.985 172.66 101.451 172.32 100.998 171.88C100.545 171.427 100.191 170.88 99.9379 170.24C99.6846 169.6 99.5579 168.867 99.5579 168.04C99.5579 167.24 99.6912 166.52 99.9579 165.88C100.225 165.227 100.571 164.68 100.998 164.24C101.438 163.787 101.938 163.44 102.498 163.2C103.058 162.96 103.638 162.84 104.238 162.84C104.945 162.84 105.558 162.96 106.078 163.2C106.611 163.44 107.051 163.773 107.398 164.2C107.758 164.627 108.025 165.133 108.198 165.72C108.371 166.293 108.458 166.92 108.458 167.6C108.458 167.867 108.445 168.12 108.418 168.36C108.391 168.6 108.365 168.78 108.338 168.9H102.398C102.531 169.62 102.825 170.153 103.278 170.5C103.745 170.833 104.311 171 104.978 171C105.685 171 106.398 170.78 107.118 170.34L108.098 172.12C107.591 172.467 107.025 172.74 106.398 172.94C105.785 173.14 105.178 173.24 104.578 173.24ZM102.378 166.96H105.958C105.958 166.4 105.831 165.947 105.578 165.6C105.325 165.253 104.898 165.08 104.298 165.08C103.831 165.08 103.418 165.233 103.058 165.54C102.711 165.847 102.485 166.32 102.378 166.96ZM112.434 173V165.38H109.514V163.08H118.314V165.38H115.374V173H112.434ZM120.138 173V163.08H123.078V166.24H123.798C124.398 166.24 124.958 166.3 125.478 166.42C125.998 166.527 126.445 166.713 126.818 166.98C127.205 167.247 127.505 167.593 127.718 168.02C127.945 168.447 128.058 168.967 128.058 169.58C128.058 170.22 127.945 170.76 127.718 171.2C127.505 171.627 127.205 171.98 126.818 172.26C126.445 172.527 125.998 172.72 125.478 172.84C124.958 172.947 124.398 173 123.798 173H120.138ZM123.078 170.76H123.658C124.711 170.76 125.238 170.36 125.238 169.56C125.238 168.8 124.711 168.42 123.658 168.42H123.078V170.76ZM129.378 173V163.08H132.318V173H129.378Z" fill="#101010"/>
<path d="M100 133.333C105.273 133.333 109.593 129.252 109.973 124.077C113.901 127.468 119.842 127.299 123.57 123.57C127.299 119.842 127.467 113.902 124.076 109.973C129.252 109.593 133.333 105.273 133.333 100C133.333 94.727 129.252 90.4075 124.077 90.0272C127.468 86.0985 127.299 80.1583 123.57 76.4298C119.842 72.7013 113.902 72.5325 109.973 75.9236C109.593 70.7478 105.273 66.6667 100 66.6667C94.727 66.6667 90.4074 70.7477 90.0272 75.9235C86.0985 72.5325 80.1583 72.7012 76.4298 76.4297C72.7012 80.1582 72.5325 86.0985 75.9236 90.0272C70.7477 90.4074 66.6666 94.727 66.6666 100C66.6666 105.273 70.7476 109.593 75.9234 109.973C72.5324 113.901 72.7012 119.842 76.4297 123.57C80.1582 127.299 86.0985 127.467 90.0272 124.076C90.4073 129.252 94.727 133.333 100 133.333Z" stroke="#101010" stroke-width="3" stroke-linecap="round" stroke-linejoin="round"/>
<path d="M100 106.667C96.318 106.667 93.3334 103.682 93.3334 100C93.3334 96.318 96.318 93.3333 100 93.3333C103.682 93.3333 106.667 96.318 106.667 100C106.667 103.682 103.682 106.667 100 106.667Z" stroke="#101010" stroke-width="3" stroke-linecap="round" stroke-linejoin="round"/>
</svg>
