<svg width="200" height="200" viewBox="0 0 200 200" fill="none" xmlns="http://www.w3.org/2000/svg">
<rect width="200" height="200" rx="16" fill="#E5DB9C"/>
<path d="M106.667 63.3333C108.508 63.3333 110 61.8409 110 60C110 58.159 108.508 56.6667 106.667 56.6667C104.826 56.6667 103.333 58.159 103.333 60C103.333 61.8409 104.826 63.3333 106.667 63.3333Z" stroke="#101010" stroke-width="3" stroke-linecap="round" stroke-linejoin="round"/>
<path d="M100 100V86.6667L90 80L100 70L106.667 76.6667L113.333 80" stroke="#101010" stroke-width="3" stroke-linecap="round" stroke-linejoin="round"/>
<path d="M80 106.667C85.5228 106.667 90 102.19 90 96.6667C90 91.1438 85.5228 86.6667 80 86.6667C74.4772 86.6667 70 91.1438 70 96.6667C70 102.19 74.4772 106.667 80 106.667Z" stroke="#101010" stroke-width="3" stroke-linecap="round" stroke-linejoin="round"/>
<path d="M120 106.667C125.523 106.667 130 102.19 130 96.6667C130 91.1438 125.523 86.6667 120 86.6667C114.477 86.6667 110 91.1438 110 96.6667C110 102.19 114.477 106.667 120 106.667Z" stroke="#101010" stroke-width="3" stroke-linecap="round" stroke-linejoin="round"/>
<path d="M65.3275 153V156.76H62.7075L62.4475 152.36V150.52H63.0475C63.1942 150.467 63.3408 150.353 63.4875 150.18C63.6475 149.993 63.8075 149.727 63.9675 149.38C64.1275 149.033 64.2875 148.587 64.4475 148.04C64.6075 147.48 64.7608 146.807 64.9075 146.02C65.0142 145.447 65.1075 144.927 65.1875 144.46C65.2808 143.993 65.3675 143.533 65.4475 143.08C65.5275 142.613 65.6075 142.133 65.6875 141.64C65.7808 141.147 65.8808 140.587 65.9875 139.96H73.7275V150.52H75.3275V152.36L75.0675 156.76H72.4475V153H65.3275ZM67.5475 146.4C67.3742 147.28 67.1808 148.06 66.9675 148.74C66.7542 149.42 66.4942 150.013 66.1875 150.52H70.7875V142.44H68.2675C68.2008 142.827 68.1408 143.18 68.0875 143.5C68.0342 143.807 67.9808 144.113 67.9275 144.42C67.8742 144.713 67.8142 145.02 67.7475 145.34C67.6942 145.647 67.6275 146 67.5475 146.4ZM81.6384 153.24C80.9318 153.24 80.2718 153.127 79.6584 152.9C79.0451 152.66 78.5118 152.32 78.0584 151.88C77.6051 151.427 77.2518 150.88 76.9984 150.24C76.7451 149.6 76.6184 148.867 76.6184 148.04C76.6184 147.24 76.7518 146.52 77.0184 145.88C77.2851 145.227 77.6318 144.68 78.0584 144.24C78.4984 143.787 78.9984 143.44 79.5584 143.2C80.1184 142.96 80.6984 142.84 81.2984 142.84C82.0051 142.84 82.6184 142.96 83.1384 143.2C83.6718 143.44 84.1118 143.773 84.4584 144.2C84.8184 144.627 85.0851 145.133 85.2584 145.72C85.4318 146.293 85.5184 146.92 85.5184 147.6C85.5184 147.867 85.5051 148.12 85.4784 148.36C85.4518 148.6 85.4251 148.78 85.3984 148.9H79.4584C79.5918 149.62 79.8851 150.153 80.3384 150.5C80.8051 150.833 81.3718 151 82.0384 151C82.7451 151 83.4584 150.78 84.1784 150.34L85.1584 152.12C84.6518 152.467 84.0851 152.74 83.4584 152.94C82.8451 153.14 82.2384 153.24 81.6384 153.24ZM79.4384 146.96H83.0184C83.0184 146.4 82.8918 145.947 82.6384 145.6C82.3851 145.253 81.9584 145.08 81.3584 145.08C80.8918 145.08 80.4784 145.233 80.1184 145.54C79.7718 145.847 79.5451 146.32 79.4384 146.96ZM89.4947 153V145.38H86.5747V143.08H95.3747V145.38H92.4347V153H89.4947ZM101.167 153.24C100.474 153.24 99.8269 153.127 99.2269 152.9C98.6402 152.66 98.1269 152.32 97.6869 151.88C97.2469 151.44 96.9002 150.9 96.6469 150.26C96.3935 149.607 96.2669 148.867 96.2669 148.04C96.2669 147.213 96.4069 146.48 96.6869 145.84C96.9669 145.187 97.3402 144.64 97.8069 144.2C98.2869 143.76 98.8402 143.427 99.4669 143.2C100.094 142.96 100.747 142.84 101.427 142.84C102.04 142.84 102.58 142.94 103.047 143.14C103.527 143.34 103.954 143.593 104.327 143.9L102.947 145.8C102.48 145.413 102.034 145.22 101.607 145.22C100.887 145.22 100.32 145.473 99.9069 145.98C99.4935 146.487 99.2869 147.173 99.2869 148.04C99.2869 148.907 99.4935 149.593 99.9069 150.1C100.334 150.607 100.867 150.86 101.507 150.86C101.827 150.86 102.134 150.793 102.427 150.66C102.734 150.513 103.02 150.34 103.287 150.14L104.447 152.06C103.954 152.487 103.42 152.793 102.847 152.98C102.274 153.153 101.714 153.24 101.167 153.24ZM106.183 153V143.08H109.123V146.74H110.143L111.003 144.92C111.203 144.507 111.409 144.167 111.623 143.9C111.836 143.62 112.069 143.407 112.323 143.26C112.589 143.1 112.869 142.993 113.163 142.94C113.456 142.873 113.783 142.84 114.143 142.84C114.436 142.84 114.703 142.887 114.943 142.98L114.483 145.7C114.416 145.673 114.349 145.653 114.283 145.64C114.229 145.627 114.169 145.62 114.103 145.62C113.849 145.62 113.623 145.68 113.423 145.8C113.223 145.92 113.029 146.193 112.843 146.62L112.323 147.8L115.663 153H112.443L110.163 149.04H109.123V153H106.183ZM117.101 153V143.08H119.941V145.84C119.941 146.333 119.914 146.893 119.861 147.52C119.807 148.133 119.754 148.747 119.701 149.36H119.761C119.921 149.053 120.114 148.707 120.341 148.32C120.567 147.92 120.754 147.573 120.901 147.28L123.481 143.08H126.161V153H123.321V150.24C123.321 149.733 123.347 149.173 123.401 148.56C123.454 147.947 123.514 147.333 123.581 146.72H123.501C123.341 147.027 123.147 147.38 122.921 147.78C122.707 148.18 122.521 148.52 122.361 148.8L119.781 153H117.101ZM133.201 153.24C132.494 153.24 131.834 153.127 131.221 152.9C130.608 152.66 130.074 152.32 129.621 151.88C129.168 151.427 128.814 150.88 128.561 150.24C128.308 149.6 128.181 148.867 128.181 148.04C128.181 147.24 128.314 146.52 128.581 145.88C128.848 145.227 129.194 144.68 129.621 144.24C130.061 143.787 130.561 143.44 131.121 143.2C131.681 142.96 132.261 142.84 132.861 142.84C133.568 142.84 134.181 142.96 134.701 143.2C135.234 143.44 135.674 143.773 136.021 144.2C136.381 144.627 136.648 145.133 136.821 145.72C136.994 146.293 137.081 146.92 137.081 147.6C137.081 147.867 137.068 148.12 137.041 148.36C137.014 148.6 136.988 148.78 136.961 148.9H131.021C131.154 149.62 131.448 150.153 131.901 150.5C132.368 150.833 132.934 151 133.601 151C134.308 151 135.021 150.78 135.741 150.34L136.721 152.12C136.214 152.467 135.648 152.74 135.021 152.94C134.408 153.14 133.801 153.24 133.201 153.24ZM131.001 146.96H134.581C134.581 146.4 134.454 145.947 134.201 145.6C133.948 145.253 133.521 145.08 132.921 145.08C132.454 145.08 132.041 145.233 131.681 145.54C131.334 145.847 131.108 146.32 131.001 146.96ZM44.9133 173V163.08H49.1333C49.6933 163.08 50.2133 163.127 50.6933 163.22C51.1733 163.3 51.5933 163.447 51.9533 163.66C52.3133 163.86 52.5933 164.127 52.7933 164.46C53.0066 164.793 53.1133 165.207 53.1133 165.7C53.1133 166.127 52.9866 166.533 52.7333 166.92C52.4799 167.307 52.0533 167.58 51.4533 167.74V167.82C52.0799 167.967 52.5733 168.22 52.9333 168.58C53.3066 168.94 53.4933 169.46 53.4933 170.14C53.4933 170.647 53.3799 171.087 53.1533 171.46C52.9399 171.82 52.6466 172.113 52.2733 172.34C51.8999 172.567 51.4599 172.733 50.9533 172.84C50.4599 172.947 49.9333 173 49.3733 173H44.9133ZM47.7733 166.96H48.9333C49.4266 166.96 49.7799 166.88 49.9933 166.72C50.2066 166.547 50.3133 166.307 50.3133 166C50.3133 165.693 50.2066 165.453 49.9933 165.28C49.7933 165.107 49.4466 165.02 48.9533 165.02H47.7733V166.96ZM47.7733 171.06H49.1933C49.7266 171.06 50.0999 170.96 50.3133 170.76C50.5399 170.547 50.6533 170.273 50.6533 169.94C50.6533 169.647 50.5333 169.4 50.2933 169.2C50.0666 169 49.6933 168.9 49.1733 168.9H47.7733V171.06ZM59.9197 173.24C59.213 173.24 58.553 173.127 57.9397 172.9C57.3264 172.66 56.793 172.32 56.3397 171.88C55.8864 171.427 55.533 170.88 55.2797 170.24C55.0264 169.6 54.8997 168.867 54.8997 168.04C54.8997 167.24 55.033 166.52 55.2997 165.88C55.5664 165.227 55.913 164.68 56.3397 164.24C56.7797 163.787 57.2797 163.44 57.8397 163.2C58.3997 162.96 58.9797 162.84 59.5797 162.84C60.2864 162.84 60.8997 162.96 61.4197 163.2C61.953 163.44 62.393 163.773 62.7397 164.2C63.0997 164.627 63.3664 165.133 63.5397 165.72C63.713 166.293 63.7997 166.92 63.7997 167.6C63.7997 167.867 63.7864 168.12 63.7597 168.36C63.733 168.6 63.7064 168.78 63.6797 168.9H57.7397C57.873 169.62 58.1664 170.153 58.6197 170.5C59.0864 170.833 59.653 171 60.3197 171C61.0264 171 61.7397 170.78 62.4597 170.34L63.4397 172.12C62.933 172.467 62.3664 172.74 61.7397 172.94C61.1264 173.14 60.5197 173.24 59.9197 173.24ZM57.7197 166.96H61.2997C61.2997 166.4 61.173 165.947 60.9197 165.6C60.6664 165.253 60.2397 165.08 59.6397 165.08C59.173 165.08 58.7597 165.233 58.3997 165.54C58.053 165.847 57.8264 166.32 57.7197 166.96ZM65.8313 173.24C65.6046 173.24 65.3979 173.22 65.2113 173.18C65.0246 173.14 64.8379 173.087 64.6513 173.02L65.1313 170.38C65.2113 170.407 65.2913 170.427 65.3713 170.44C65.4513 170.453 65.5379 170.46 65.6313 170.46C65.8979 170.46 66.1246 170.353 66.3113 170.14C66.5113 169.913 66.6446 169.527 66.7113 168.98C66.8446 167.993 66.9579 167.013 67.0513 166.04C67.1579 165.067 67.2713 164.08 67.3913 163.08H74.7113V173H71.7713V165.38H69.7113C69.6179 166.113 69.5246 166.853 69.4313 167.6C69.3513 168.333 69.2579 169.067 69.1513 169.8C68.9913 170.92 68.6379 171.773 68.0913 172.36C67.5446 172.947 66.7913 173.24 65.8313 173.24ZM81.5561 173.24C80.9294 173.24 80.3228 173.127 79.7361 172.9C79.1494 172.66 78.6294 172.32 78.1761 171.88C77.7361 171.44 77.3828 170.9 77.1161 170.26C76.8494 169.607 76.7161 168.867 76.7161 168.04C76.7161 167.213 76.8494 166.48 77.1161 165.84C77.3828 165.187 77.7361 164.64 78.1761 164.2C78.6294 163.76 79.1494 163.427 79.7361 163.2C80.3228 162.96 80.9294 162.84 81.5561 162.84C82.1828 162.84 82.7828 162.96 83.3561 163.2C83.9428 163.427 84.4561 163.76 84.8961 164.2C85.3494 164.64 85.7094 165.187 85.9761 165.84C86.2428 166.48 86.3761 167.213 86.3761 168.04C86.3761 168.867 86.2428 169.607 85.9761 170.26C85.7094 170.9 85.3494 171.44 84.8961 171.88C84.4561 172.32 83.9428 172.66 83.3561 172.9C82.7828 173.127 82.1828 173.24 81.5561 173.24ZM81.5561 170.86C82.1561 170.86 82.6094 170.607 82.9161 170.1C83.2228 169.593 83.3761 168.907 83.3761 168.04C83.3761 167.173 83.2228 166.487 82.9161 165.98C82.6094 165.473 82.1561 165.22 81.5561 165.22C80.9428 165.22 80.4828 165.473 80.1761 165.98C79.8828 166.487 79.7361 167.173 79.7361 168.04C79.7361 168.907 79.8828 169.593 80.1761 170.1C80.4828 170.607 80.9428 170.86 81.5561 170.86ZM92.7098 173.24C92.0165 173.24 91.3698 173.127 90.7698 172.9C90.1832 172.66 89.6698 172.32 89.2298 171.88C88.7898 171.44 88.4432 170.9 88.1898 170.26C87.9365 169.607 87.8098 168.867 87.8098 168.04C87.8098 167.213 87.9498 166.48 88.2298 165.84C88.5098 165.187 88.8832 164.64 89.3498 164.2C89.8298 163.76 90.3832 163.427 91.0098 163.2C91.6365 162.96 92.2898 162.84 92.9698 162.84C93.5832 162.84 94.1232 162.94 94.5898 163.14C95.0698 163.34 95.4965 163.593 95.8698 163.9L94.4898 165.8C94.0232 165.413 93.5765 165.22 93.1498 165.22C92.4298 165.22 91.8632 165.473 91.4498 165.98C91.0365 166.487 90.8298 167.173 90.8298 168.04C90.8298 168.907 91.0365 169.593 91.4498 170.1C91.8765 170.607 92.4098 170.86 93.0498 170.86C93.3698 170.86 93.6765 170.793 93.9698 170.66C94.2765 170.513 94.5632 170.34 94.8298 170.14L95.9898 172.06C95.4965 172.487 94.9632 172.793 94.3898 172.98C93.8165 173.153 93.2565 173.24 92.7098 173.24ZM97.7258 173V163.08H100.566V165.84C100.566 166.333 100.539 166.893 100.486 167.52C100.432 168.133 100.379 168.747 100.326 169.36H100.386C100.546 169.053 100.739 168.707 100.966 168.32C101.192 167.92 101.379 167.573 101.526 167.28L104.106 163.08H106.786V173H103.946V170.24C103.946 169.733 103.972 169.173 104.026 168.56C104.079 167.947 104.139 167.333 104.206 166.72H104.126C103.966 167.027 103.772 167.38 103.546 167.78C103.332 168.18 103.146 168.52 102.986 168.8L100.406 173H97.7258ZM109.386 173V163.08H118.266V173H115.326V165.38H112.326V173H109.386ZM125.31 173.24C124.604 173.24 123.944 173.127 123.33 172.9C122.717 172.66 122.184 172.32 121.73 171.88C121.277 171.427 120.924 170.88 120.67 170.24C120.417 169.6 120.29 168.867 120.29 168.04C120.29 167.24 120.424 166.52 120.69 165.88C120.957 165.227 121.304 164.68 121.73 164.24C122.17 163.787 122.67 163.44 123.23 163.2C123.79 162.96 124.37 162.84 124.97 162.84C125.677 162.84 126.29 162.96 126.81 163.2C127.344 163.44 127.784 163.773 128.13 164.2C128.49 164.627 128.757 165.133 128.93 165.72C129.104 166.293 129.19 166.92 129.19 167.6C129.19 167.867 129.177 168.12 129.15 168.36C129.124 168.6 129.097 168.78 129.07 168.9H123.13C123.264 169.62 123.557 170.153 124.01 170.5C124.477 170.833 125.044 171 125.71 171C126.417 171 127.13 170.78 127.85 170.34L128.83 172.12C128.324 172.467 127.757 172.74 127.13 172.94C126.517 173.14 125.91 173.24 125.31 173.24ZM123.11 166.96H126.69C126.69 166.4 126.564 165.947 126.31 165.6C126.057 165.253 125.63 165.08 125.03 165.08C124.564 165.08 124.15 165.233 123.79 165.54C123.444 165.847 123.217 166.32 123.11 166.96ZM132.962 173V176.44H130.422L130.142 172.62V170.7H130.762C130.882 170.633 130.995 170.54 131.102 170.42C131.209 170.287 131.309 170.087 131.402 169.82C131.495 169.54 131.582 169.18 131.662 168.74C131.755 168.3 131.842 167.727 131.922 167.02L132.382 163.08H139.782V170.7H141.362V172.62L141.082 176.44H138.562V173H132.962ZM134.462 167.68C134.395 168.333 134.289 168.907 134.142 169.4C133.995 169.893 133.829 170.327 133.642 170.7H136.842V165.38H134.722L134.462 167.68ZM142.902 173V163.08H145.842V166.24H146.562C147.162 166.24 147.722 166.3 148.242 166.42C148.762 166.527 149.208 166.713 149.582 166.98C149.968 167.247 150.268 167.593 150.482 168.02C150.708 168.447 150.822 168.967 150.822 169.58C150.822 170.22 150.708 170.76 150.482 171.2C150.268 171.627 149.968 171.98 149.582 172.26C149.208 172.527 148.762 172.72 148.242 172.84C147.722 172.947 147.162 173 146.562 173H142.902ZM145.842 170.76H146.422C147.475 170.76 148.002 170.36 148.002 169.56C148.002 168.8 147.475 168.42 146.422 168.42H145.842V170.76ZM152.142 173V163.08H155.082V173H152.142Z" fill="#101010"/>
</svg>
