<svg width="200" height="200" viewBox="0 0 200 200" fill="none" xmlns="http://www.w3.org/2000/svg">
<rect width="200" height="200" rx="16" fill="#A3CDCE"/>
<path d="M57.2431 173V159.96H60.1831V164.98H64.6831V159.96H67.6431V173H64.6831V167.56H60.1831V173H57.2431ZM74.7397 173.24C74.113 173.24 73.5064 173.127 72.9197 172.9C72.333 172.66 71.813 172.32 71.3597 171.88C70.9197 171.44 70.5664 170.9 70.2997 170.26C70.033 169.607 69.8997 168.867 69.8997 168.04C69.8997 167.213 70.033 166.48 70.2997 165.84C70.5664 165.187 70.9197 164.64 71.3597 164.2C71.813 163.76 72.333 163.427 72.9197 163.2C73.5064 162.96 74.113 162.84 74.7397 162.84C75.3664 162.84 75.9664 162.96 76.5397 163.2C77.1264 163.427 77.6397 163.76 78.0797 164.2C78.533 164.64 78.893 165.187 79.1597 165.84C79.4264 166.48 79.5597 167.213 79.5597 168.04C79.5597 168.867 79.4264 169.607 79.1597 170.26C78.893 170.9 78.533 171.44 78.0797 171.88C77.6397 172.32 77.1264 172.66 76.5397 172.9C75.9664 173.127 75.3664 173.24 74.7397 173.24ZM74.7397 170.86C75.3397 170.86 75.793 170.607 76.0997 170.1C76.4064 169.593 76.5597 168.907 76.5597 168.04C76.5597 167.173 76.4064 166.487 76.0997 165.98C75.793 165.473 75.3397 165.22 74.7397 165.22C74.1264 165.22 73.6664 165.473 73.3597 165.98C73.0664 166.487 72.9197 167.173 72.9197 168.04C72.9197 168.907 73.0664 169.593 73.3597 170.1C73.6664 170.607 74.1264 170.86 74.7397 170.86ZM82.5172 176.88C82.2105 176.88 81.9505 176.86 81.7372 176.82C81.5239 176.793 81.3172 176.747 81.1172 176.68L81.6372 174.44C81.7305 174.467 81.8372 174.493 81.9572 174.52C82.0772 174.547 82.1905 174.56 82.2972 174.56C82.7905 174.56 83.1705 174.44 83.4372 174.2C83.7039 173.96 83.9039 173.647 84.0372 173.26L84.1772 172.74L80.3572 163.08H83.3172L84.7372 167.34C84.8839 167.793 85.0172 168.253 85.1372 168.72C85.2572 169.187 85.3839 169.667 85.5172 170.16H85.5972C85.7039 169.693 85.8105 169.227 85.9172 168.76C86.0372 168.28 86.1572 167.807 86.2772 167.34L87.4772 163.08H90.2972L86.8572 173.1C86.6172 173.727 86.3639 174.273 86.0972 174.74C85.8439 175.22 85.5439 175.613 85.1972 175.92C84.8639 176.24 84.4772 176.48 84.0372 176.64C83.6105 176.8 83.1039 176.88 82.5172 176.88ZM93.9869 173V165.38H91.0669V163.08H99.8669V165.38H96.9269V173H93.9869ZM106.151 173.24C104.564 173.24 103.344 172.68 102.491 171.56C101.651 170.427 101.231 168.84 101.231 166.8C101.231 165.307 101.384 164.087 101.691 163.14C101.997 162.18 102.424 161.413 102.971 160.84C103.531 160.267 104.191 159.847 104.951 159.58C105.724 159.3 106.571 159.1 107.491 158.98C108.091 158.9 108.557 158.82 108.891 158.74C109.237 158.66 109.564 158.547 109.871 158.4L110.431 160.96C110.164 161.16 109.817 161.32 109.391 161.44C108.977 161.547 108.551 161.633 108.111 161.7C107.417 161.793 106.831 161.887 106.351 161.98C105.884 162.073 105.497 162.22 105.191 162.42C104.884 162.62 104.651 162.907 104.491 163.28C104.331 163.64 104.217 164.147 104.151 164.8C104.497 164.4 104.917 164.1 105.411 163.9C105.904 163.687 106.424 163.58 106.971 163.58C107.491 163.58 107.977 163.68 108.431 163.88C108.897 164.067 109.304 164.353 109.651 164.74C110.011 165.113 110.291 165.587 110.491 166.16C110.691 166.733 110.791 167.4 110.791 168.16C110.791 168.92 110.671 169.613 110.431 170.24C110.204 170.867 109.884 171.407 109.471 171.86C109.057 172.3 108.564 172.64 107.991 172.88C107.431 173.12 106.817 173.24 106.151 173.24ZM106.111 170.86C106.657 170.86 107.071 170.62 107.351 170.14C107.644 169.66 107.791 169 107.791 168.16C107.791 167.28 107.637 166.66 107.331 166.3C107.024 165.927 106.611 165.74 106.091 165.74C105.744 165.74 105.391 165.833 105.031 166.02C104.684 166.193 104.357 166.5 104.051 166.94V167.5C104.051 168.647 104.231 169.493 104.591 170.04C104.951 170.587 105.457 170.86 106.111 170.86ZM113.689 176.88C113.382 176.88 113.122 176.86 112.909 176.82C112.696 176.793 112.489 176.747 112.289 176.68L112.809 174.44C112.902 174.467 113.009 174.493 113.129 174.52C113.249 174.547 113.362 174.56 113.469 174.56C113.962 174.56 114.342 174.44 114.609 174.2C114.876 173.96 115.076 173.647 115.209 173.26L115.349 172.74L111.529 163.08H114.489L115.909 167.34C116.056 167.793 116.189 168.253 116.309 168.72C116.429 169.187 116.556 169.667 116.689 170.16H116.769C116.876 169.693 116.982 169.227 117.089 168.76C117.209 168.28 117.329 167.807 117.449 167.34L118.649 163.08H121.469L118.029 173.1C117.789 173.727 117.536 174.273 117.269 174.74C117.016 175.22 116.716 175.613 116.369 175.92C116.036 176.24 115.649 176.48 115.209 176.64C114.782 176.8 114.276 176.88 113.689 176.88ZM123.019 173V163.08H125.959V166.74H126.979L127.839 164.92C128.039 164.507 128.245 164.167 128.459 163.9C128.672 163.62 128.905 163.407 129.159 163.26C129.425 163.1 129.705 162.993 129.999 162.94C130.292 162.873 130.619 162.84 130.979 162.84C131.272 162.84 131.539 162.887 131.779 162.98L131.319 165.7C131.252 165.673 131.185 165.653 131.119 165.64C131.065 165.627 131.005 165.62 130.939 165.62C130.685 165.62 130.459 165.68 130.259 165.8C130.059 165.92 129.865 166.193 129.679 166.62L129.159 167.8L132.499 173H129.279L126.999 169.04H125.959V173H123.019ZM133.937 173V163.08H136.777V165.84C136.777 166.333 136.75 166.893 136.697 167.52C136.643 168.133 136.59 168.747 136.537 169.36H136.597C136.757 169.053 136.95 168.707 137.177 168.32C137.403 167.92 137.59 167.573 137.737 167.28L140.317 163.08H142.997V173H140.157V170.24C140.157 169.733 140.183 169.173 140.237 168.56C140.29 167.947 140.35 167.333 140.417 166.72H140.337C140.177 167.027 139.983 167.38 139.757 167.78C139.543 168.18 139.357 168.52 139.197 168.8L136.617 173H133.937Z" fill="#101010"/>
<path d="M126.667 83.3333V120H73.3334V83.3333C73.3334 82.4493 73.6846 81.6014 74.3097 80.9763C74.9348 80.3512 75.7827 80 76.6667 80H123.333C124.217 80 125.065 80.3512 125.69 80.9763C126.316 81.6014 126.667 82.4493 126.667 83.3333Z" stroke="#101010" stroke-width="3" stroke-linecap="round" stroke-linejoin="round"/>
<path d="M73.3333 116.667H126.667M66.6666 120H133.333H66.6666Z" stroke="#101010" stroke-width="3" stroke-linecap="round" stroke-linejoin="round"/>
</svg>
