<svg width="200" height="200" viewBox="0 0 200 200" fill="none" xmlns="http://www.w3.org/2000/svg">
<rect width="200" height="200" rx="16" fill="#E6A57E"/>
<path d="M54.5841 173.24C53.7041 173.24 52.8975 173.087 52.1641 172.78C51.4441 172.46 50.8241 172.007 50.3041 171.42C49.7841 170.833 49.3775 170.12 49.0841 169.28C48.8041 168.44 48.6641 167.487 48.6641 166.42C48.6641 165.353 48.8041 164.407 49.0841 163.58C49.3775 162.74 49.7841 162.04 50.3041 161.48C50.8241 160.907 51.4441 160.473 52.1641 160.18C52.8975 159.873 53.7041 159.72 54.5841 159.72C55.4641 159.72 56.2641 159.873 56.9841 160.18C57.7175 160.473 58.3441 160.907 58.8641 161.48C59.3841 162.053 59.7841 162.76 60.0641 163.6C60.3575 164.427 60.5041 165.367 60.5041 166.42C60.5041 167.487 60.3575 168.44 60.0641 169.28C59.7841 170.12 59.3841 170.833 58.8641 171.42C58.3441 172.007 57.7175 172.46 56.9841 172.78C56.2641 173.087 55.4641 173.24 54.5841 173.24ZM54.5841 170.7C55.4775 170.7 56.1841 170.32 56.7041 169.56C57.2241 168.787 57.4841 167.74 57.4841 166.42C57.4841 165.113 57.2241 164.093 56.7041 163.36C56.1841 162.627 55.4775 162.26 54.5841 162.26C53.6908 162.26 52.9841 162.627 52.4641 163.36C51.9441 164.093 51.6841 165.113 51.6841 166.42C51.6841 167.74 51.9441 168.787 52.4641 169.56C52.9841 170.32 53.6908 170.7 54.5841 170.7ZM67.036 173.24C66.3427 173.24 65.696 173.127 65.096 172.9C64.5093 172.66 63.996 172.32 63.556 171.88C63.116 171.44 62.7693 170.9 62.516 170.26C62.2627 169.607 62.136 168.867 62.136 168.04C62.136 167.213 62.276 166.48 62.556 165.84C62.836 165.187 63.2093 164.64 63.676 164.2C64.156 163.76 64.7093 163.427 65.336 163.2C65.9627 162.96 66.616 162.84 67.296 162.84C67.9093 162.84 68.4493 162.94 68.916 163.14C69.396 163.34 69.8227 163.593 70.196 163.9L68.816 165.8C68.3493 165.413 67.9027 165.22 67.476 165.22C66.756 165.22 66.1893 165.473 65.776 165.98C65.3627 166.487 65.156 167.173 65.156 168.04C65.156 168.907 65.3627 169.593 65.776 170.1C66.2027 170.607 66.736 170.86 67.376 170.86C67.696 170.86 68.0027 170.793 68.296 170.66C68.6027 170.513 68.8893 170.34 69.156 170.14L70.316 172.06C69.8227 172.487 69.2893 172.793 68.716 172.98C68.1427 173.153 67.5827 173.24 67.036 173.24ZM72.052 173V163.08H76.272C76.832 163.08 77.352 163.127 77.832 163.22C78.312 163.3 78.732 163.447 79.092 163.66C79.452 163.86 79.732 164.127 79.932 164.46C80.1453 164.793 80.252 165.207 80.252 165.7C80.252 166.127 80.1253 166.533 79.872 166.92C79.6186 167.307 79.192 167.58 78.592 167.74V167.82C79.2186 167.967 79.712 168.22 80.072 168.58C80.4453 168.94 80.632 169.46 80.632 170.14C80.632 170.647 80.5186 171.087 80.292 171.46C80.0786 171.82 79.7853 172.113 79.412 172.34C79.0386 172.567 78.5986 172.733 78.092 172.84C77.5986 172.947 77.072 173 76.512 173H72.052ZM74.912 166.96H76.072C76.5653 166.96 76.9186 166.88 77.132 166.72C77.3453 166.547 77.452 166.307 77.452 166C77.452 165.693 77.3453 165.453 77.132 165.28C76.932 165.107 76.5853 165.02 76.092 165.02H74.912V166.96ZM74.912 171.06H76.332C76.8653 171.06 77.2386 170.96 77.452 170.76C77.6786 170.547 77.792 170.273 77.792 169.94C77.792 169.647 77.672 169.4 77.432 169.2C77.2053 169 76.832 168.9 76.312 168.9H74.912V171.06ZM87.0584 173.24C86.3517 173.24 85.6917 173.127 85.0784 172.9C84.465 172.66 83.9317 172.32 83.4784 171.88C83.025 171.427 82.6717 170.88 82.4184 170.24C82.165 169.6 82.0384 168.867 82.0384 168.04C82.0384 167.24 82.1717 166.52 82.4384 165.88C82.705 165.227 83.0517 164.68 83.4784 164.24C83.9184 163.787 84.4184 163.44 84.9784 163.2C85.5384 162.96 86.1184 162.84 86.7184 162.84C87.425 162.84 88.0384 162.96 88.5584 163.2C89.0917 163.44 89.5317 163.773 89.8784 164.2C90.2384 164.627 90.505 165.133 90.6784 165.72C90.8517 166.293 90.9384 166.92 90.9384 167.6C90.9384 167.867 90.925 168.12 90.8984 168.36C90.8717 168.6 90.845 168.78 90.8184 168.9H84.8784C85.0117 169.62 85.305 170.153 85.7584 170.5C86.225 170.833 86.7917 171 87.4584 171C88.165 171 88.8784 170.78 89.5984 170.34L90.5784 172.12C90.0717 172.467 89.505 172.74 88.8784 172.94C88.265 173.14 87.6584 173.24 87.0584 173.24ZM84.8584 166.96H88.4384C88.4384 166.4 88.3117 165.947 88.0584 165.6C87.805 165.253 87.3784 165.08 86.7784 165.08C86.3117 165.08 85.8984 165.233 85.5384 165.54C85.1917 165.847 84.965 166.32 84.8584 166.96ZM105.21 176.44V173H92.9699V163.08H95.8699V170.7H98.2899V163.08H101.11V170.7H103.53V163.08H106.45V170.7H108.01V172.62L107.73 176.44H105.21ZM113.992 173.24C113.285 173.24 112.625 173.127 112.012 172.9C111.399 172.66 110.865 172.32 110.412 171.88C109.959 171.427 109.605 170.88 109.352 170.24C109.099 169.6 108.972 168.867 108.972 168.04C108.972 167.24 109.105 166.52 109.372 165.88C109.639 165.227 109.985 164.68 110.412 164.24C110.852 163.787 111.352 163.44 111.912 163.2C112.472 162.96 113.052 162.84 113.652 162.84C114.359 162.84 114.972 162.96 115.492 163.2C116.025 163.44 116.465 163.773 116.812 164.2C117.172 164.627 117.439 165.133 117.612 165.72C117.785 166.293 117.872 166.92 117.872 167.6C117.872 167.867 117.859 168.12 117.832 168.36C117.805 168.6 117.779 168.78 117.752 168.9H111.812C111.945 169.62 112.239 170.153 112.692 170.5C113.159 170.833 113.725 171 114.392 171C115.099 171 115.812 170.78 116.532 170.34L117.512 172.12C117.005 172.467 116.439 172.74 115.812 172.94C115.199 173.14 114.592 173.24 113.992 173.24ZM111.792 166.96H115.372C115.372 166.4 115.245 165.947 114.992 165.6C114.739 165.253 114.312 165.08 113.712 165.08C113.245 165.08 112.832 165.233 112.472 165.54C112.125 165.847 111.899 166.32 111.792 166.96ZM119.904 173V163.08H122.844V166.66H126.024V163.08H128.964V173H126.024V169.22H122.844V173H119.904ZM131.544 173V163.08H134.384V165.84C134.384 166.333 134.357 166.893 134.304 167.52C134.251 168.133 134.197 168.747 134.144 169.36H134.204C134.364 169.053 134.557 168.707 134.784 168.32C135.011 167.92 135.197 167.573 135.344 167.28L137.924 163.08H140.604V173H137.764V170.24C137.764 169.733 137.791 169.173 137.844 168.56C137.897 167.947 137.957 167.333 138.024 166.72H137.944C137.784 167.027 137.591 167.38 137.364 167.78C137.151 168.18 136.964 168.52 136.804 168.8L134.224 173H131.544ZM147.644 173.24C146.938 173.24 146.278 173.127 145.664 172.9C145.051 172.66 144.518 172.32 144.064 171.88C143.611 171.427 143.258 170.88 143.004 170.24C142.751 169.6 142.624 168.867 142.624 168.04C142.624 167.24 142.758 166.52 143.024 165.88C143.291 165.227 143.638 164.68 144.064 164.24C144.504 163.787 145.004 163.44 145.564 163.2C146.124 162.96 146.704 162.84 147.304 162.84C148.011 162.84 148.624 162.96 149.144 163.2C149.678 163.44 150.118 163.773 150.464 164.2C150.824 164.627 151.091 165.133 151.264 165.72C151.438 166.293 151.524 166.92 151.524 167.6C151.524 167.867 151.511 168.12 151.484 168.36C151.458 168.6 151.431 168.78 151.404 168.9H145.464C145.598 169.62 145.891 170.153 146.344 170.5C146.811 170.833 147.378 171 148.044 171C148.751 171 149.464 170.78 150.184 170.34L151.164 172.12C150.658 172.467 150.091 172.74 149.464 172.94C148.851 173.14 148.244 173.24 147.644 173.24ZM145.444 166.96H149.024C149.024 166.4 148.898 165.947 148.644 165.6C148.391 165.253 147.964 165.08 147.364 165.08C146.898 165.08 146.484 165.233 146.124 165.54C145.778 165.847 145.551 166.32 145.444 166.96Z" fill="#101010"/>
<path d="M93.3333 130H106.667M113.333 100C111.111 102.222 110 106.667 110 113.333V116.667H90V113.333C90 106.667 88.8889 102.222 86.6667 100C78.9132 92.2465 78.0474 80.335 85.8579 72.5245C93.6684 64.714 106.332 64.714 114.142 72.5245C121.953 80.335 121.356 91.9772 113.333 100Z" stroke="#101010" stroke-width="3" stroke-linecap="round" stroke-linejoin="round"/>
</svg>
