<svg width="200" height="200" viewBox="0 0 200 200" fill="none" xmlns="http://www.w3.org/2000/svg">
<rect width="200" height="200" rx="16" fill="#F5BFD2"/>
<path d="M71.833 173V159.96H82.013V173H79.073V162.44H74.773V173H71.833ZM84.8547 173V163.08H87.6947V165.84C87.6947 166.333 87.668 166.893 87.6147 167.52C87.5614 168.133 87.508 168.747 87.4547 169.36H87.5147C87.6747 169.053 87.868 168.707 88.0947 168.32C88.3214 167.92 88.508 167.573 88.6547 167.28L91.2347 163.08H93.9147V173H91.0747V170.24C91.0747 169.733 91.1014 169.173 91.1547 168.56C91.208 167.947 91.268 167.333 91.3347 166.72H91.2547C91.0947 167.027 90.9014 167.38 90.6747 167.78C90.4614 168.18 90.2747 168.52 90.1147 168.8L87.5347 173H84.8547ZM96.5148 173V163.08H99.4548V170.7H102.375V163.08H105.315V170.7H106.875V172.62L106.595 176.44H104.075V173H96.5148ZM108.409 173V163.08H111.349V170.7H114.269V163.08H117.209V170.7H118.769V172.62L118.489 176.44H115.969V173H108.409ZM122.96 173.24C122.507 173.24 122.093 173.16 121.72 173C121.36 172.853 121.053 172.647 120.8 172.38C120.547 172.1 120.347 171.78 120.2 171.42C120.067 171.06 120 170.667 120 170.24C120 169.2 120.44 168.387 121.32 167.8C122.2 167.213 123.62 166.82 125.58 166.62C125.553 166.18 125.42 165.833 125.18 165.58C124.953 165.313 124.567 165.18 124.02 165.18C123.593 165.18 123.167 165.26 122.74 165.42C122.327 165.58 121.88 165.8 121.4 166.08L120.34 164.14C120.98 163.753 121.647 163.44 122.34 163.2C123.047 162.96 123.793 162.84 124.58 162.84C125.86 162.84 126.833 163.207 127.5 163.94C128.18 164.66 128.52 165.787 128.52 167.32V173H126.12L125.92 171.98H125.84C125.413 172.353 124.967 172.66 124.5 172.9C124.033 173.127 123.52 173.24 122.96 173.24ZM123.96 170.96C124.293 170.96 124.58 170.887 124.82 170.74C125.06 170.593 125.313 170.387 125.58 170.12V168.38C124.54 168.527 123.82 168.74 123.42 169.02C123.02 169.3 122.82 169.633 122.82 170.02C122.82 170.34 122.92 170.58 123.12 170.74C123.333 170.887 123.613 170.96 123.96 170.96Z" fill="#101010"/>
<path d="M126.667 119.521C118.559 124.202 109.362 126.667 99.9999 126.667C90.638 126.667 81.441 124.202 73.3333 119.521L99.9999 73.3333L126.667 119.521Z" stroke="#101010" stroke-width="3" stroke-linecap="round" stroke-linejoin="round"/>
<path d="M126.667 119.521C118.559 124.202 109.362 126.667 99.9999 126.667C90.638 126.667 81.441 124.202 73.3333 119.521L99.9999 73.3333L126.667 119.521Z" stroke="#101010" stroke-width="3" stroke-linecap="round" stroke-linejoin="round"/>
<path d="M78.3296 110.868C84.7042 114.556 92.1055 116.667 99.9999 116.667C107.894 116.667 115.296 114.556 121.67 110.868" stroke="#101010" stroke-width="3" stroke-linecap="round" stroke-linejoin="round"/>
<path d="M93.3333 110C95.1743 110 96.6667 108.508 96.6667 106.667C96.6667 104.826 95.1743 103.333 93.3333 103.333C91.4924 103.333 90 104.826 90 106.667C90 108.508 91.4924 110 93.3333 110Z" stroke="#101010" stroke-width="3" stroke-linecap="round" stroke-linejoin="round"/>
<path d="M103.333 106.667C105.174 106.667 106.667 105.174 106.667 103.333C106.667 101.492 105.174 100 103.333 100C101.492 100 100 101.492 100 103.333C100 105.174 101.492 106.667 103.333 106.667Z" stroke="#101010" stroke-width="3" stroke-linecap="round" stroke-linejoin="round"/>
<path d="M100 96.6667C101.841 96.6667 103.333 95.1743 103.333 93.3333C103.333 91.4924 101.841 90 100 90C98.1591 90 96.6667 91.4924 96.6667 93.3333C96.6667 95.1743 98.1591 96.6667 100 96.6667Z" stroke="#101010" stroke-width="3" stroke-linecap="round" stroke-linejoin="round"/>
</svg>
