<svg width="200" height="200" viewBox="0 0 200 200" fill="none" xmlns="http://www.w3.org/2000/svg">
<rect width="200" height="200" rx="16" fill="#E5DB9C"/>
<path d="M29.3681 171V157.96H32.5881L34.6881 163.76C34.8215 164.147 34.9481 164.547 35.0681 164.96C35.1881 165.36 35.3148 165.76 35.4481 166.16H35.5281C35.6615 165.76 35.7815 165.36 35.8881 164.96C36.0081 164.547 36.1348 164.147 36.2681 163.76L38.3281 157.96H41.5281V171H38.8481V166.22C38.8481 165.9 38.8615 165.547 38.8881 165.16C38.9148 164.773 38.9481 164.387 38.9881 164C39.0281 163.6 39.0681 163.213 39.1081 162.84C39.1481 162.453 39.1881 162.1 39.2281 161.78H39.1481L38.0881 164.88L36.2281 169.86H34.6081L32.7481 164.88L31.7081 161.78H31.6281C31.6681 162.1 31.7081 162.453 31.7481 162.84C31.7881 163.213 31.8281 163.6 31.8681 164C31.9081 164.387 31.9415 164.773 31.9681 165.16C31.9948 165.547 32.0081 165.9 32.0081 166.22V171H29.3681ZM49.7225 171V167.76H48.6225L46.6225 171H43.3625L46.0025 167.16C45.5092 166.893 45.0958 166.533 44.7625 166.08C44.4425 165.627 44.2825 165.053 44.2825 164.36C44.2825 163.747 44.3892 163.233 44.6025 162.82C44.8158 162.393 45.1092 162.053 45.4825 161.8C45.8558 161.533 46.2958 161.347 46.8025 161.24C47.3092 161.133 47.8492 161.08 48.4225 161.08H52.6625V171H49.7225ZM48.7825 165.78H49.7225V163.24H48.7825C47.7158 163.24 47.1825 163.64 47.1825 164.44C47.1825 164.84 47.3158 165.167 47.5825 165.42C47.8492 165.66 48.2492 165.78 48.7825 165.78ZM55.2414 171V161.08H62.0614V163.38H58.1814V171H55.2414ZM63.8742 171V161.08H66.8142V164.74H67.8342L68.6942 162.92C68.8942 162.507 69.1009 162.167 69.3142 161.9C69.5276 161.62 69.7609 161.407 70.0142 161.26C70.2809 161.1 70.5609 160.993 70.8542 160.94C71.1476 160.873 71.4742 160.84 71.8342 160.84C72.1276 160.84 72.3942 160.887 72.6342 160.98L72.1742 163.7C72.1076 163.673 72.0409 163.653 71.9742 163.64C71.9209 163.627 71.8609 163.62 71.7942 163.62C71.5409 163.62 71.3142 163.68 71.1142 163.8C70.9142 163.92 70.7209 164.193 70.5342 164.62L70.0142 165.8L73.3542 171H70.1342L67.8542 167.04H66.8142V171H63.8742ZM74.7922 171V161.08H77.6322V163.84C77.6322 164.333 77.6055 164.893 77.5522 165.52C77.4989 166.133 77.4455 166.747 77.3922 167.36H77.4522C77.6122 167.053 77.8055 166.707 78.0322 166.32C78.2589 165.92 78.4455 165.573 78.5922 165.28L81.1722 161.08H83.8522V171H81.0122V168.24C81.0122 167.733 81.0389 167.173 81.0922 166.56C81.1455 165.947 81.2055 165.333 81.2722 164.72H81.1922C81.0322 165.027 80.8389 165.38 80.6122 165.78C80.3989 166.18 80.2122 166.52 80.0522 166.8L77.4722 171H74.7922ZM90.8923 171.24C90.1857 171.24 89.5257 171.127 88.9123 170.9C88.299 170.66 87.7657 170.32 87.3123 169.88C86.859 169.427 86.5057 168.88 86.2523 168.24C85.999 167.6 85.8723 166.867 85.8723 166.04C85.8723 165.24 86.0057 164.52 86.2723 163.88C86.539 163.227 86.8857 162.68 87.3123 162.24C87.7523 161.787 88.2523 161.44 88.8123 161.2C89.3723 160.96 89.9523 160.84 90.5523 160.84C91.259 160.84 91.8723 160.96 92.3923 161.2C92.9257 161.44 93.3657 161.773 93.7123 162.2C94.0723 162.627 94.339 163.133 94.5123 163.72C94.6857 164.293 94.7723 164.92 94.7723 165.6C94.7723 165.867 94.759 166.12 94.7323 166.36C94.7057 166.6 94.679 166.78 94.6523 166.9H88.7123C88.8457 167.62 89.139 168.153 89.5923 168.5C90.059 168.833 90.6257 169 91.2923 169C91.999 169 92.7123 168.78 93.4323 168.34L94.4123 170.12C93.9057 170.467 93.339 170.74 92.7123 170.94C92.099 171.14 91.4923 171.24 90.8923 171.24ZM88.6923 164.96H92.2723C92.2723 164.4 92.1457 163.947 91.8923 163.6C91.639 163.253 91.2123 163.08 90.6123 163.08C90.1457 163.08 89.7323 163.233 89.3723 163.54C89.0257 163.847 88.799 164.32 88.6923 164.96ZM100.808 171V161.08H103.648V163.84C103.648 164.333 103.621 164.893 103.568 165.52C103.514 166.133 103.461 166.747 103.408 167.36H103.468C103.628 167.053 103.821 166.707 104.048 166.32C104.274 165.92 104.461 165.573 104.608 165.28L107.188 161.08H109.868V171H107.028V168.24C107.028 167.733 107.054 167.173 107.108 166.56C107.161 165.947 107.221 165.333 107.288 164.72H107.208C107.048 165.027 106.854 165.38 106.628 165.78C106.414 166.18 106.228 166.52 106.068 166.8L103.488 171H100.808ZM112.468 171V161.08H119.288V163.38H115.408V171H112.468ZM121.101 174.68V161.08H123.501L123.701 162.06H123.781C124.167 161.713 124.601 161.427 125.081 161.2C125.574 160.96 126.081 160.84 126.601 160.84C127.201 160.84 127.741 160.96 128.221 161.2C128.701 161.44 129.107 161.78 129.441 162.22C129.774 162.66 130.027 163.193 130.201 163.82C130.387 164.433 130.481 165.12 130.481 165.88C130.481 166.733 130.361 167.493 130.121 168.16C129.894 168.813 129.581 169.373 129.181 169.84C128.794 170.293 128.347 170.64 127.841 170.88C127.347 171.12 126.834 171.24 126.301 171.24C125.874 171.24 125.461 171.153 125.061 170.98C124.661 170.793 124.287 170.533 123.941 170.2L124.041 171.78V174.68H121.101ZM125.621 168.84C126.127 168.84 126.561 168.613 126.921 168.16C127.281 167.693 127.461 166.947 127.461 165.92C127.461 164.133 126.887 163.24 125.741 163.24C125.167 163.24 124.601 163.54 124.041 164.14V168.2C124.307 168.44 124.574 168.607 124.841 168.7C125.107 168.793 125.367 168.84 125.621 168.84ZM133.509 174.88C133.203 174.88 132.943 174.86 132.729 174.82C132.516 174.793 132.309 174.747 132.109 174.68L132.629 172.44C132.723 172.467 132.829 172.493 132.949 172.52C133.069 172.547 133.183 172.56 133.289 172.56C133.783 172.56 134.163 172.44 134.429 172.2C134.696 171.96 134.896 171.647 135.029 171.26L135.169 170.74L131.349 161.08H134.309L135.729 165.34C135.876 165.793 136.009 166.253 136.129 166.72C136.249 167.187 136.376 167.667 136.509 168.16H136.589C136.696 167.693 136.803 167.227 136.909 166.76C137.029 166.28 137.149 165.807 137.269 165.34L138.469 161.08H141.289L137.849 171.1C137.609 171.727 137.356 172.273 137.089 172.74C136.836 173.22 136.536 173.613 136.189 173.92C135.856 174.24 135.469 174.48 135.029 174.64C134.603 174.8 134.096 174.88 133.509 174.88ZM142.839 171V161.08H145.739V168.7H148.159V161.08H150.979V168.7H153.399V161.08H156.319V171H142.839ZM158.894 171V161.08H161.834V164.74H162.854L163.714 162.92C163.914 162.507 164.12 162.167 164.334 161.9C164.547 161.62 164.78 161.407 165.034 161.26C165.3 161.1 165.58 160.993 165.874 160.94C166.167 160.873 166.494 160.84 166.854 160.84C167.147 160.84 167.414 160.887 167.654 160.98L167.194 163.7C167.127 163.673 167.06 163.653 166.994 163.64C166.94 163.627 166.88 163.62 166.814 163.62C166.56 163.62 166.334 163.68 166.134 163.8C165.934 163.92 165.74 164.193 165.554 164.62L165.034 165.8L168.374 171H165.154L162.874 167.04H161.834V171H158.894ZM169.812 171V161.08H172.652V163.84C172.652 164.333 172.625 164.893 172.572 165.52C172.518 166.133 172.465 166.747 172.412 167.36H172.472C172.632 167.053 172.825 166.707 173.052 166.32C173.278 165.92 173.465 165.573 173.612 165.28L176.192 161.08H178.872V171H176.032V168.24C176.032 167.733 176.058 167.173 176.112 166.56C176.165 165.947 176.225 165.333 176.292 164.72H176.212C176.052 165.027 175.858 165.38 175.632 165.78C175.418 166.18 175.232 166.52 175.072 166.8L172.492 171H169.812Z" fill="#101010"/>
<path d="M94.8905 83.9492C94.8905 83.4314 94.4709 83.0117 93.953 83.0117C93.4351 83.0117 93.0155 83.4314 93.0155 83.9492V86.4959C93.0155 87.0137 93.4351 87.4334 93.953 87.4334C94.4709 87.4334 94.8905 87.0137 94.8905 86.4959V83.9492Z" fill="#101010"/>
<path d="M106.814 83.0117C106.296 83.0117 105.876 83.4314 105.876 83.9492V86.4959C105.876 87.0137 106.296 87.4334 106.814 87.4334C107.332 87.4334 107.751 87.0137 107.751 86.4959V83.9492C107.751 83.4314 107.332 83.0117 106.814 83.0117Z" fill="#101010"/>
<path d="M104.029 88.3558C102.803 87.778 97.9642 87.778 96.7377 88.3558C95.7915 88.8016 95.1562 89.6333 94.9487 90.698C94.7802 91.5623 94.8992 92.5259 95.2837 93.4113C95.8164 94.6382 96.7826 95.578 98.0779 96.1292C98.5184 96.3166 98.9784 96.4466 99.446 96.5214V97.8758C99.446 98.3935 99.8656 98.8133 100.384 98.8133C100.901 98.8133 101.321 98.3935 101.321 97.8758V96.5214C101.789 96.4466 102.249 96.3166 102.689 96.1292C103.984 95.5781 104.951 94.6382 105.483 93.4114C105.868 92.526 105.987 91.5624 105.818 90.6981C105.611 89.6335 104.976 88.8016 104.029 88.3558ZM103.763 92.6645C103.421 93.4538 102.812 94.0391 101.955 94.4038C100.957 94.8288 99.811 94.829 98.8119 94.4038C97.9547 94.0391 97.3462 93.4538 97.0036 92.6644C96.6614 91.8764 96.5211 90.5305 97.5361 90.0523C97.9086 89.8838 99.1461 89.7996 100.383 89.7996C101.62 89.7996 102.857 89.8838 103.23 90.0522C104.246 90.5307 104.105 91.8765 103.763 92.6645Z" fill="#101010"/>
<path d="M123.401 79.0236C124.146 76.7638 123.742 74.2508 122.291 72.1288C120.656 69.7376 117.921 68.1614 115.154 68.0153C110.982 67.7958 108.801 69.9685 107.131 72.3848C105.021 71.736 102.749 71.3815 100.384 71.3815C98.0151 71.3815 95.7416 71.7368 93.6294 72.3869C92.7206 71.08 91.757 69.9606 90.513 69.1718C90.0759 68.8945 89.4966 69.0241 89.2191 69.4614C88.9419 69.8986 89.0715 70.4779 89.5088 70.7553C90.3678 71.3002 91.0972 72.0954 91.7931 73.0424C87.3236 74.8671 83.7541 78.0687 81.8292 82.0075C80.6418 81.1301 79.6638 80.0057 79.1464 78.4366C78.5775 76.7113 78.8893 74.8471 80.0242 73.1873C81.3366 71.268 83.5158 70.0039 85.7097 69.888L85.7897 69.8841C86.3071 69.8609 86.7075 69.4227 86.6842 68.9055C86.661 68.3882 86.2224 67.9884 85.7057 68.0109L85.6124 68.0154C82.846 68.1614 80.1115 69.7376 78.4765 72.1288C77.0256 74.2508 76.6206 76.7638 77.3656 79.0235C77.8811 80.5869 78.7636 81.888 80.0637 83.0011C80.381 83.2728 80.7229 83.5311 81.0928 83.7828C80.5548 85.3435 80.2645 86.9949 80.2645 88.704C80.2645 92.6 81.7673 96.1988 84.2986 99.0955C81.9738 100.781 80.4679 102.958 80.0188 105.318C79.5597 107.73 80.3517 110.056 82.2516 111.916C82.0738 112.833 81.9245 113.931 81.8651 115.195C81.8066 116.439 81.8446 117.658 81.9567 118.843C80.2012 120.205 79.0789 122.272 79.0789 124.583C79.0789 128.612 82.4914 131.899 86.7252 131.998C86.7483 132 114.011 132 114.03 131.999C115.836 131.959 117.576 131.331 118.948 130.218C119.351 129.892 119.412 129.301 119.086 128.899C118.76 128.497 118.17 128.435 117.767 128.762C116.681 129.643 115.288 130.128 113.844 130.128C110.553 130.128 107.875 127.64 107.875 124.583C107.875 124.141 107.931 123.712 108.037 123.3C108.9 122.614 109.678 121.981 110.258 121.484C111.103 120.759 111.863 119.986 112.536 119.172C112.957 119.084 113.395 119.037 113.844 119.037C117.135 119.037 119.813 121.525 119.813 124.583C119.813 124.932 119.778 125.282 119.709 125.622C119.605 126.129 119.933 126.624 120.44 126.728C120.948 126.831 121.442 126.504 121.546 125.997C121.64 125.534 121.688 125.058 121.688 124.583C121.688 122.27 120.564 120.202 118.806 118.84C118.936 117.466 118.951 116.241 118.902 115.195C118.843 113.947 118.697 112.86 118.522 111.951C120.411 110.101 121.202 107.786 120.752 105.382C120.307 103.002 118.795 100.812 116.451 99.1156C118.993 96.2155 120.503 92.609 120.503 88.7041C120.503 86.9942 120.212 85.3417 119.673 83.7803C121.279 82.6839 122.682 81.2051 123.401 79.0236ZM81.8608 105.669C82.3372 103.166 84.2178 101.433 85.6212 100.457C86.2733 101.064 86.9753 101.63 87.7207 102.152C87.5706 102.279 87.423 102.408 87.2813 102.545C86.9402 102.873 86.4076 103.303 86.3122 103.803C86.2398 104.143 86.3582 104.509 86.6496 104.737C86.8365 104.884 87.0615 104.947 87.2812 104.935C88.3884 105.097 89.519 105.39 90.6453 105.809C92.4188 106.469 94.8392 107.58 95.3815 109.599C95.7644 111.023 94.827 112.73 93.4151 113.178C90.5525 114.088 86.3503 113.062 83.8485 110.843C82.6882 109.814 81.4017 108.081 81.8608 105.669ZM86.8028 117.165C85.7213 117.181 84.6925 117.404 83.7586 117.795C83.7054 116.911 83.703 116.105 83.7333 115.39C83.7665 114.605 83.8383 113.889 83.9303 113.247C84.376 113.535 84.8453 113.797 85.3317 114.031C85.5774 114.735 85.8543 115.377 86.1287 115.935C86.3338 116.353 86.5593 116.763 86.8028 117.165ZM86.9228 130.128C83.6315 130.128 80.9538 127.641 80.9538 124.583C80.9538 121.525 83.6315 119.037 86.9228 119.037C87.3728 119.037 87.8107 119.085 88.2324 119.174C88.9051 119.988 89.665 120.76 90.5095 121.484C91.0888 121.982 91.8668 122.614 92.7304 123.3C92.836 123.712 92.892 124.141 92.892 124.583C92.8919 127.641 90.2143 130.128 86.9228 130.128ZM108.64 130.128H92.1272C93.6693 128.832 94.6684 126.971 94.7587 124.891C96.5207 126.258 98.2904 127.6 99.3008 128.363C99.6195 128.604 100.001 128.724 100.384 128.724C100.766 128.724 101.148 128.604 101.466 128.363C102.477 127.6 104.246 126.258 106.008 124.891C106.099 126.971 107.098 128.832 108.64 130.128ZM112.956 115.109C112.06 116.932 110.742 118.598 109.036 120.062C106.93 121.869 101.942 125.654 100.383 126.831C98.8245 125.654 93.8368 121.869 91.7306 120.062C90.0253 118.598 88.7068 116.932 87.8112 115.109C87.7812 115.048 87.7512 114.983 87.7211 114.919C88.8438 115.222 89.9933 115.382 91.0997 115.382C92.1151 115.382 93.0946 115.248 93.9826 114.965C96.3297 114.22 97.8293 111.485 97.1921 109.112C96.4248 106.257 93.4612 104.857 91.2988 104.052C90.5879 103.788 89.874 103.569 89.1628 103.395C90.4259 102.418 92.0072 101.868 93.6091 101.868H93.6264C95.9231 101.874 98.0326 102.928 99.4143 104.76C99.6426 105.063 100.005 105.243 100.383 105.243C100.762 105.243 101.124 105.063 101.352 104.76C102.734 102.928 104.844 101.874 107.14 101.868H107.157C108.775 101.868 110.373 102.428 111.642 103.424C110.921 103.597 110.197 103.815 109.476 104.081C107.919 104.654 105.949 105.534 104.675 107.043C104.177 107.633 103.785 108.32 103.566 109.122C102.922 111.492 104.413 114.232 106.757 114.985C107.655 115.274 108.647 115.411 109.675 115.411C110.774 115.411 111.914 115.253 113.028 114.956C113.004 115.007 112.98 115.059 112.956 115.109ZM117.006 117.794C116.073 117.404 115.045 117.181 113.964 117.165C114.208 116.763 114.433 116.353 114.639 115.935C114.907 115.388 115.179 114.761 115.421 114.074C115.913 113.839 116.388 113.575 116.838 113.285C117.011 114.522 117.108 116.038 117.006 117.794ZM118.909 105.727C119.36 108.141 118.068 109.87 116.905 110.895C114.396 113.106 110.191 114.119 107.331 113.2C105.921 112.747 104.989 111.038 105.376 109.614C105.925 107.598 108.348 106.495 110.124 105.84C111.311 105.403 112.502 105.103 113.665 104.95C113.946 104.913 114.198 104.748 114.345 104.507C114.554 104.161 114.525 103.738 114.276 103.421C114.033 103.111 113.767 102.816 113.486 102.545C113.344 102.409 113.196 102.279 113.046 102.152C113.784 101.636 114.479 101.076 115.125 100.476C116.564 101.473 118.439 103.215 118.909 105.727ZM111.368 101.029C110.074 100.358 108.622 99.9932 107.158 99.9932C107.15 99.9932 107.143 99.9932 107.136 99.9932C104.526 99.9996 102.108 101.083 100.384 102.992C98.6594 101.083 96.2412 99.9996 93.6312 99.9932C93.6239 99.9932 93.6169 99.9932 93.6095 99.9932C92.1451 99.9932 90.6938 100.358 89.3998 101.029C84.9932 98.2059 82.1396 93.7323 82.1396 88.704C82.1396 80.1861 90.3238 73.2564 100.384 73.2564C110.443 73.2564 118.627 80.1861 118.627 88.704C118.627 93.7323 115.774 98.2063 111.368 101.029ZM118.934 81.9984C117.008 78.0637 113.44 74.8657 108.974 73.0424C110.53 70.9245 112.123 69.7331 115.056 69.8877C117.251 70.0036 119.43 71.2679 120.743 73.1872C121.878 74.847 122.189 76.7112 121.621 78.4364C121.247 79.5695 120.624 80.7645 118.934 81.9984Z" fill="#101010"/>
</svg>
