<svg width="200" height="200" viewBox="0 0 200 200" fill="none" xmlns="http://www.w3.org/2000/svg">
<rect width="200" height="200" rx="16" fill="#BEB4C5"/>
<path d="M31.124 173L34.884 166.12L33.784 163.66C33.5573 163.193 33.3307 162.88 33.104 162.72C32.8773 162.56 32.6173 162.48 32.324 162.48C32.2573 162.48 32.1707 162.487 32.064 162.5C31.9707 162.5 31.8707 162.52 31.764 162.56L31.264 159.9C31.4107 159.833 31.5773 159.787 31.764 159.76C31.964 159.733 32.1573 159.72 32.344 159.72C33.0773 159.72 33.7173 159.887 34.264 160.22C34.824 160.553 35.3307 161.173 35.784 162.08L37.204 165.08H38.364V159.96H41.164V165.08H42.324L43.724 162.08C43.9507 161.627 44.1907 161.247 44.444 160.94C44.6973 160.633 44.964 160.393 45.244 160.22C45.524 160.033 45.824 159.907 46.144 159.84C46.464 159.76 46.8107 159.72 47.184 159.72C47.3707 159.72 47.5573 159.733 47.744 159.76C47.9307 159.787 48.0973 159.833 48.244 159.9L47.764 162.56C47.6573 162.52 47.5507 162.5 47.444 162.5C47.3507 162.487 47.2707 162.48 47.204 162.48C46.8973 162.48 46.6307 162.56 46.404 162.72C46.1907 162.88 45.9707 163.193 45.744 163.66L44.624 166.14L48.404 173H45.244L42.504 167.46H41.164V173H38.364V167.46H37.024L34.284 173H31.124ZM53.8748 173.24C53.1681 173.24 52.5081 173.127 51.8948 172.9C51.2814 172.66 50.7481 172.32 50.2948 171.88C49.8414 171.427 49.4881 170.88 49.2348 170.24C48.9814 169.6 48.8548 168.867 48.8548 168.04C48.8548 167.24 48.9881 166.52 49.2548 165.88C49.5214 165.227 49.8681 164.68 50.2948 164.24C50.7348 163.787 51.2348 163.44 51.7948 163.2C52.3548 162.96 52.9348 162.84 53.5348 162.84C54.2414 162.84 54.8548 162.96 55.3748 163.2C55.9081 163.44 56.3481 163.773 56.6948 164.2C57.0548 164.627 57.3214 165.133 57.4948 165.72C57.6681 166.293 57.7548 166.92 57.7548 167.6C57.7548 167.867 57.7414 168.12 57.7148 168.36C57.6881 168.6 57.6614 168.78 57.6348 168.9H51.6948C51.8281 169.62 52.1214 170.153 52.5748 170.5C53.0414 170.833 53.6081 171 54.2748 171C54.9814 171 55.6948 170.78 56.4148 170.34L57.3948 172.12C56.8881 172.467 56.3214 172.74 55.6948 172.94C55.0814 173.14 54.4748 173.24 53.8748 173.24ZM51.6748 166.96H55.2548C55.2548 166.4 55.1281 165.947 54.8748 165.6C54.6214 165.253 54.1948 165.08 53.5948 165.08C53.1281 165.08 52.7148 165.233 52.3548 165.54C52.0081 165.847 51.7814 166.32 51.6748 166.96ZM59.7863 173V163.08H62.7263V166.66H65.9063V163.08H68.8463V173H65.9063V169.22H62.7263V173H59.7863ZM75.747 173.24C75.0536 173.24 74.407 173.127 73.807 172.9C73.2203 172.66 72.707 172.32 72.267 171.88C71.827 171.44 71.4803 170.9 71.227 170.26C70.9736 169.607 70.847 168.867 70.847 168.04C70.847 167.213 70.987 166.48 71.267 165.84C71.547 165.187 71.9203 164.64 72.387 164.2C72.867 163.76 73.4203 163.427 74.047 163.2C74.6736 162.96 75.327 162.84 76.007 162.84C76.6203 162.84 77.1603 162.94 77.627 163.14C78.107 163.34 78.5336 163.593 78.907 163.9L77.527 165.8C77.0603 165.413 76.6136 165.22 76.187 165.22C75.467 165.22 74.9003 165.473 74.487 165.98C74.0736 166.487 73.867 167.173 73.867 168.04C73.867 168.907 74.0736 169.593 74.487 170.1C74.9136 170.607 75.447 170.86 76.087 170.86C76.407 170.86 76.7136 170.793 77.007 170.66C77.3136 170.513 77.6003 170.34 77.867 170.14L79.027 172.06C78.5336 172.487 78.0003 172.793 77.427 172.98C76.8536 173.153 76.2936 173.24 75.747 173.24ZM80.7629 173V163.08H83.7029V166.74H84.7229L85.5829 164.92C85.7829 164.507 85.9896 164.167 86.2029 163.9C86.4162 163.62 86.6496 163.407 86.9029 163.26C87.1696 163.1 87.4496 162.993 87.7429 162.94C88.0362 162.873 88.3629 162.84 88.7229 162.84C89.0162 162.84 89.2829 162.887 89.5229 162.98L89.0629 165.7C88.9962 165.673 88.9296 165.653 88.8629 165.64C88.8096 165.627 88.7496 165.62 88.6829 165.62C88.4296 165.62 88.2029 165.68 88.0029 165.8C87.8029 165.92 87.6096 166.193 87.4229 166.62L86.9029 167.8L90.2429 173H87.0229L84.7429 169.04H83.7029V173H80.7629ZM93.9855 173.24C93.5322 173.24 93.1189 173.16 92.7455 173C92.3855 172.853 92.0789 172.647 91.8255 172.38C91.5722 172.1 91.3722 171.78 91.2255 171.42C91.0922 171.06 91.0255 170.667 91.0255 170.24C91.0255 169.2 91.4655 168.387 92.3455 167.8C93.2255 167.213 94.6455 166.82 96.6055 166.62C96.5789 166.18 96.4455 165.833 96.2055 165.58C95.9789 165.313 95.5922 165.18 95.0455 165.18C94.6189 165.18 94.1922 165.26 93.7655 165.42C93.3522 165.58 92.9055 165.8 92.4255 166.08L91.3655 164.14C92.0055 163.753 92.6722 163.44 93.3655 163.2C94.0722 162.96 94.8189 162.84 95.6055 162.84C96.8855 162.84 97.8589 163.207 98.5255 163.94C99.2055 164.66 99.5455 165.787 99.5455 167.32V173H97.1455L96.9455 171.98H96.8655C96.4389 172.353 95.9922 172.66 95.5255 172.9C95.0589 173.127 94.5455 173.24 93.9855 173.24ZM94.9855 170.96C95.3189 170.96 95.6055 170.887 95.8455 170.74C96.0855 170.593 96.3389 170.387 96.6055 170.12V168.38C95.5655 168.527 94.8455 168.74 94.4455 169.02C94.0455 169.3 93.8455 169.633 93.8455 170.02C93.8455 170.34 93.9455 170.58 94.1455 170.74C94.3589 170.887 94.6389 170.96 94.9855 170.96ZM107.392 173V169.76H106.292L104.292 173H101.032L103.672 169.16C103.179 168.893 102.766 168.533 102.432 168.08C102.112 167.627 101.952 167.053 101.952 166.36C101.952 165.747 102.059 165.233 102.272 164.82C102.486 164.393 102.779 164.053 103.152 163.8C103.526 163.533 103.966 163.347 104.472 163.24C104.979 163.133 105.519 163.08 106.092 163.08H110.332V173H107.392ZM106.452 167.78H107.392V165.24H106.452C105.386 165.24 104.852 165.64 104.852 166.44C104.852 166.84 104.986 167.167 105.252 167.42C105.519 167.66 105.919 167.78 106.452 167.78ZM121.175 173.24C120.549 173.24 119.942 173.127 119.355 172.9C118.769 172.66 118.249 172.32 117.795 171.88C117.355 171.44 117.002 170.9 116.735 170.26C116.469 169.607 116.335 168.867 116.335 168.04C116.335 167.213 116.469 166.48 116.735 165.84C117.002 165.187 117.355 164.64 117.795 164.2C118.249 163.76 118.769 163.427 119.355 163.2C119.942 162.96 120.549 162.84 121.175 162.84C121.802 162.84 122.402 162.96 122.975 163.2C123.562 163.427 124.075 163.76 124.515 164.2C124.969 164.64 125.329 165.187 125.595 165.84C125.862 166.48 125.995 167.213 125.995 168.04C125.995 168.867 125.862 169.607 125.595 170.26C125.329 170.9 124.969 171.44 124.515 171.88C124.075 172.32 123.562 172.66 122.975 172.9C122.402 173.127 121.802 173.24 121.175 173.24ZM121.175 170.86C121.775 170.86 122.229 170.607 122.535 170.1C122.842 169.593 122.995 168.907 122.995 168.04C122.995 167.173 122.842 166.487 122.535 165.98C122.229 165.473 121.775 165.22 121.175 165.22C120.562 165.22 120.102 165.473 119.795 165.98C119.502 166.487 119.355 167.173 119.355 168.04C119.355 168.907 119.502 169.593 119.795 170.1C120.102 170.607 120.562 170.86 121.175 170.86ZM132.469 173.24C130.882 173.24 129.662 172.68 128.809 171.56C127.969 170.427 127.549 168.84 127.549 166.8C127.549 165.307 127.702 164.087 128.009 163.14C128.316 162.18 128.742 161.413 129.289 160.84C129.849 160.267 130.509 159.847 131.269 159.58C132.042 159.3 132.889 159.1 133.809 158.98C134.409 158.9 134.876 158.82 135.209 158.74C135.556 158.66 135.882 158.547 136.189 158.4L136.749 160.96C136.482 161.16 136.136 161.32 135.709 161.44C135.296 161.547 134.869 161.633 134.429 161.7C133.736 161.793 133.149 161.887 132.669 161.98C132.202 162.073 131.816 162.22 131.509 162.42C131.202 162.62 130.969 162.907 130.809 163.28C130.649 163.64 130.536 164.147 130.469 164.8C130.816 164.4 131.236 164.1 131.729 163.9C132.222 163.687 132.742 163.58 133.289 163.58C133.809 163.58 134.296 163.68 134.749 163.88C135.216 164.067 135.622 164.353 135.969 164.74C136.329 165.113 136.609 165.587 136.809 166.16C137.009 166.733 137.109 167.4 137.109 168.16C137.109 168.92 136.989 169.613 136.749 170.24C136.522 170.867 136.202 171.407 135.789 171.86C135.376 172.3 134.882 172.64 134.309 172.88C133.749 173.12 133.136 173.24 132.469 173.24ZM132.429 170.86C132.976 170.86 133.389 170.62 133.669 170.14C133.962 169.66 134.109 169 134.109 168.16C134.109 167.28 133.956 166.66 133.649 166.3C133.342 165.927 132.929 165.74 132.409 165.74C132.062 165.74 131.709 165.833 131.349 166.02C131.002 166.193 130.676 166.5 130.369 166.94V167.5C130.369 168.647 130.549 169.493 130.909 170.04C131.269 170.587 131.776 170.86 132.429 170.86ZM140.007 176.88C139.701 176.88 139.441 176.86 139.227 176.82C139.014 176.793 138.807 176.747 138.607 176.68L139.127 174.44C139.221 174.467 139.327 174.493 139.447 174.52C139.567 174.547 139.681 174.56 139.787 174.56C140.281 174.56 140.661 174.44 140.927 174.2C141.194 173.96 141.394 173.647 141.527 173.26L141.667 172.74L137.847 163.08H140.807L142.227 167.34C142.374 167.793 142.507 168.253 142.627 168.72C142.747 169.187 142.874 169.667 143.007 170.16H143.087C143.194 169.693 143.301 169.227 143.407 168.76C143.527 168.28 143.647 167.807 143.767 167.34L144.967 163.08H147.787L144.347 173.1C144.107 173.727 143.854 174.273 143.587 174.74C143.334 175.22 143.034 175.613 142.687 175.92C142.354 176.24 141.967 176.48 141.527 176.64C141.101 176.8 140.594 176.88 140.007 176.88ZM149.337 173V163.08H153.557C154.117 163.08 154.637 163.127 155.117 163.22C155.597 163.3 156.017 163.447 156.377 163.66C156.737 163.86 157.017 164.127 157.217 164.46C157.43 164.793 157.537 165.207 157.537 165.7C157.537 166.127 157.41 166.533 157.157 166.92C156.904 167.307 156.477 167.58 155.877 167.74V167.82C156.504 167.967 156.997 168.22 157.357 168.58C157.73 168.94 157.917 169.46 157.917 170.14C157.917 170.647 157.804 171.087 157.577 171.46C157.364 171.82 157.07 172.113 156.697 172.34C156.324 172.567 155.884 172.733 155.377 172.84C154.884 172.947 154.357 173 153.797 173H149.337ZM152.197 166.96H153.357C153.85 166.96 154.204 166.88 154.417 166.72C154.63 166.547 154.737 166.307 154.737 166C154.737 165.693 154.63 165.453 154.417 165.28C154.217 165.107 153.87 165.02 153.377 165.02H152.197V166.96ZM152.197 171.06H153.617C154.15 171.06 154.524 170.96 154.737 170.76C154.964 170.547 155.077 170.273 155.077 169.94C155.077 169.647 154.957 169.4 154.717 169.2C154.49 169 154.117 168.9 153.597 168.9H152.197V171.06ZM159.904 173V163.08H162.844V166.24H163.944C164.544 166.24 165.104 166.3 165.624 166.42C166.144 166.527 166.59 166.713 166.964 166.98C167.35 167.247 167.65 167.593 167.864 168.02C168.09 168.447 168.204 168.967 168.204 169.58C168.204 170.22 168.09 170.76 167.864 171.2C167.65 171.627 167.35 171.98 166.964 172.26C166.59 172.527 166.144 172.72 165.624 172.84C165.104 172.947 164.544 173 163.944 173H159.904ZM162.844 170.76H163.824C164.864 170.76 165.384 170.36 165.384 169.56C165.384 168.8 164.864 168.42 163.824 168.42H162.844V170.76Z" fill="#101010"/>
<path d="M124.978 74.5053C124.943 74.4785 123.161 73.1559 121.822 74.9008C117.537 80.5 103.297 98.9186 96.4022 105.443C90.3777 111.138 85.084 107.893 82.7093 105.791L82.7084 105.795C82.7084 105.795 81.4908 104.508 78.703 105.392C78.6983 105.396 78.6964 105.396 78.6917 105.396C77.5609 105.772 76.0227 106.257 73.9497 106.868C71.011 107.736 70.0981 109.984 70 112.138C70.0292 112.514 70.149 113.608 70.5112 114.868C70.5819 115.042 71.7627 117.85 73.9186 119.812C74.3043 120.121 74.6891 120.432 75.1173 120.736C75.1305 120.742 75.1399 120.753 75.1531 120.759C75.1597 120.762 75.1607 120.766 75.1682 120.772C78.6313 123.209 83.4468 125.311 88.4783 125.856C90.2504 126.049 91.7046 126.019 92.9137 125.869C95.7006 125.54 98.7129 122.518 100.474 120.451C100.942 119.859 101.456 119.207 101.996 118.523H101.998C102.857 117.435 103.79 116.255 104.734 115.062C108.715 110.025 115.858 102.395 115.94 102.305C116.723 101.696 117.415 101.294 117.83 101.349C118.728 101.477 119.755 102.116 119.888 104.342L121.015 123.952L121.022 124.205C121.022 124.205 121.022 124.208 121.022 124.212L121.032 124.571C121.08 125.093 121.312 125.997 122.397 126C123.415 125.98 123.548 124.823 123.557 124.354V124.155C123.969 119.035 125.773 100.007 127.441 96.5355C133.108 83.3312 128.03 76.947 124.978 74.5053ZM125.289 86.6578C123.18 90.1119 119.672 94.0719 116.446 97.3734H116.448C116.448 97.3734 116.413 97.407 116.391 97.431C116.172 97.6565 115.954 97.8763 115.735 98.0951C113.602 100.263 107.12 106.93 103.837 111.172L103.835 111.175C102.703 112.668 101.573 114.144 100.529 115.468C99.2193 117.076 93.8549 123.174 88.1869 122.469C85.7999 122.2 78.2031 120.967 74.5665 115.924C74.4373 115.731 74.3166 115.531 74.194 115.328C71.9871 111.821 74.7184 109.922 75.3606 109.543C75.586 109.427 75.8161 109.318 76.0925 109.238C76.3471 109.161 76.5791 109.092 76.8111 109.021C76.8271 109.018 76.8385 109.014 76.8564 109.008C79.6404 108.15 82.1689 109.49 82.1689 109.49V109.482C87.1164 111.802 90.3173 111.503 90.8945 111.423C93.2466 111.184 100.061 109.027 111.079 93.7619C111.079 93.7619 111.077 93.7619 111.077 93.7628C114.884 89.3393 119.122 84.2392 121.582 81.2572C121.586 81.2543 121.588 81.2524 121.589 81.2505C123.497 78.9461 124.69 79.7648 125.072 80.1516C125.218 80.3397 125.364 80.5326 125.505 80.7418C125.505 80.7428 127.036 83.8418 125.289 86.6578Z" fill="#101010"/>
</svg>
