<svg width="20" height="20" viewBox="0 0 20 20" fill="none" xmlns="http://www.w3.org/2000/svg">
<path fill-rule="evenodd" clip-rule="evenodd" d="M11.8857 10.0003L18.943 2.94296C19.4643 2.42163 19.4643 1.57896 18.943 1.05763C18.4217 0.536293 17.579 0.536293 17.0577 1.05763L10.0003 8.11496L2.94299 1.05763C2.42166 0.536293 1.57899 0.536293 1.05766 1.05763C0.536323 1.57896 0.536323 2.42163 1.05766 2.94296L8.11499 10.0003L1.05766 17.0576C0.536323 17.579 0.536323 18.4216 1.05766 18.943C1.31766 19.203 1.65899 19.3336 2.00032 19.3336C2.34166 19.3336 2.68299 19.203 2.94299 18.943L10.0003 11.8856L17.0577 18.943C17.3177 19.203 17.659 19.3336 18.0003 19.3336C18.3417 19.3336 18.683 19.203 18.943 18.943C19.4643 18.4216 19.4643 17.579 18.943 17.0576L11.8857 10.0003Z" fill="black"/>
</svg>
