<svg width="230" height="252" viewBox="0 0 230 252" fill="none" xmlns="http://www.w3.org/2000/svg">
<path d="M10 38C10 24.7452 20.7452 14 34 14H196C209.255 14 220 24.7452 220 38C220 51.2548 209.255 62 196 62H34C20.7452 62 10 51.2548 10 38Z" fill="#508B8C"/>
<path d="M47.2785 44V32.64H56.4785V44H54.2865V34.576H49.4705V44H47.2785ZM62.5355 44.16C61.6182 44.16 60.8288 43.9627 60.1675 43.568C59.5168 43.1627 59.0155 42.6293 58.6635 41.968C58.3115 41.3067 58.1355 40.592 58.1355 39.824C58.1355 39.0453 58.3115 38.3253 58.6635 37.664C59.0262 37.0027 59.5328 36.4747 60.1835 36.08C60.8448 35.6747 61.6288 35.472 62.5355 35.472C63.4422 35.472 64.2208 35.6747 64.8715 36.08C65.5328 36.4747 66.0395 37.0027 66.3915 37.664C66.7435 38.3253 66.9195 39.0453 66.9195 39.824C66.9195 40.592 66.7435 41.3067 66.3915 41.968C66.0395 42.6293 65.5328 43.1627 64.8715 43.568C64.2208 43.9627 63.4422 44.16 62.5355 44.16ZM60.3435 39.824C60.3435 40.3147 60.4395 40.752 60.6315 41.136C60.8235 41.5093 61.0848 41.8027 61.4155 42.016C61.7462 42.2293 62.1195 42.336 62.5355 42.336C62.9408 42.336 63.3088 42.2293 63.6395 42.016C63.9702 41.792 64.2315 41.4933 64.4235 41.12C64.6262 40.736 64.7275 40.2987 64.7275 39.808C64.7275 39.328 64.6262 38.9013 64.4235 38.528C64.2315 38.144 63.9702 37.8453 63.6395 37.632C63.3088 37.408 62.9408 37.296 62.5355 37.296C62.1195 37.296 61.7462 37.408 61.4155 37.632C61.0848 37.8453 60.8235 38.144 60.6315 38.528C60.4395 38.9013 60.3435 39.3333 60.3435 39.824ZM68.3666 44V35.616H70.5106V38.784H71.2306L73.5026 35.616H75.8386L72.8626 39.664L76.1586 44H73.7106L71.1986 40.672H70.5106V44H68.3666ZM76.8375 41.52C76.8375 40.976 76.9868 40.5013 77.2855 40.096C77.5948 39.68 78.0215 39.36 78.5655 39.136C79.1095 38.912 79.7335 38.8 80.4375 38.8C80.7895 38.8 81.1468 38.832 81.5095 38.896C81.8722 38.9493 82.1868 39.0293 82.4535 39.136V38.688C82.4535 38.1547 82.2935 37.744 81.9735 37.456C81.6642 37.168 81.2002 37.024 80.5815 37.024C80.1228 37.024 79.6855 37.104 79.2695 37.264C78.8535 37.424 78.4162 37.6587 77.9575 37.968L77.2695 36.56C77.8242 36.1973 78.3895 35.9253 78.9655 35.744C79.5522 35.5627 80.1655 35.472 80.8055 35.472C82.0002 35.472 82.9282 35.7707 83.5895 36.368C84.2615 36.9653 84.5975 37.8187 84.5975 38.928V41.6C84.5975 41.8347 84.6348 42 84.7095 42.096C84.7842 42.1813 84.9175 42.2347 85.1095 42.256V44C84.9175 44.0427 84.7415 44.0693 84.5815 44.08C84.4322 44.1013 84.3042 44.112 84.1975 44.112C83.7708 44.112 83.4455 44.016 83.2215 43.824C82.9975 43.632 82.8642 43.3973 82.8215 43.12L82.7735 42.688C82.4002 43.168 81.9415 43.536 81.3975 43.792C80.8642 44.0373 80.3148 44.16 79.7495 44.16C79.1842 44.16 78.6828 44.048 78.2455 43.824C77.8082 43.5893 77.4615 43.2747 77.2055 42.88C76.9602 42.4747 76.8375 42.0213 76.8375 41.52ZM82.0535 41.952C82.3202 41.696 82.4535 41.4507 82.4535 41.216V40.368C81.8988 40.144 81.3388 40.032 80.7735 40.032C80.2082 40.032 79.7495 40.1547 79.3975 40.4C79.0455 40.6347 78.8695 40.9493 78.8695 41.344C78.8695 41.664 78.9975 41.952 79.2535 42.208C79.5095 42.464 79.8775 42.592 80.3575 42.592C80.6775 42.592 80.9868 42.5333 81.2855 42.416C81.5948 42.2987 81.8508 42.144 82.0535 41.952ZM89.593 44.128C88.697 44.128 87.945 43.968 87.337 43.648C86.7397 43.328 86.2757 42.8853 85.945 42.32L87.673 41.536C87.8543 41.8133 88.089 42.032 88.377 42.192C88.6757 42.3413 89.0437 42.416 89.481 42.416C89.9823 42.416 90.3663 42.32 90.633 42.128C90.9103 41.9253 91.049 41.664 91.049 41.344C91.049 41.056 90.937 40.8213 90.713 40.64C90.489 40.448 90.1583 40.352 89.721 40.352H88.857V39.024H89.737C90.0357 39.024 90.2703 38.9387 90.441 38.768C90.6223 38.5973 90.713 38.3733 90.713 38.096C90.713 37.8187 90.6063 37.6 90.393 37.44C90.1903 37.2693 89.865 37.184 89.417 37.184C89.0437 37.184 88.7343 37.2533 88.489 37.392C88.2437 37.5307 88.0463 37.7387 87.897 38.016L86.281 37.152C86.5797 36.6293 87.0063 36.2187 87.561 35.92C88.1263 35.6213 88.7823 35.472 89.529 35.472C90.1157 35.472 90.6383 35.5627 91.097 35.744C91.5663 35.9253 91.9343 36.192 92.201 36.544C92.4677 36.8853 92.601 37.3067 92.601 37.808C92.601 38.1707 92.5103 38.5227 92.329 38.864C92.1583 39.2053 91.8757 39.456 91.481 39.616C91.993 39.7653 92.377 40.0213 92.633 40.384C92.8997 40.7467 93.033 41.1733 93.033 41.664C93.033 42.1973 92.8837 42.6507 92.585 43.024C92.2863 43.3867 91.8757 43.664 91.353 43.856C90.841 44.0373 90.2543 44.128 89.593 44.128ZM93.9625 41.52C93.9625 40.976 94.1118 40.5013 94.4105 40.096C94.7198 39.68 95.1465 39.36 95.6905 39.136C96.2345 38.912 96.8585 38.8 97.5625 38.8C97.9145 38.8 98.2718 38.832 98.6345 38.896C98.9972 38.9493 99.3118 39.0293 99.5785 39.136V38.688C99.5785 38.1547 99.4185 37.744 99.0985 37.456C98.7892 37.168 98.3252 37.024 97.7065 37.024C97.2478 37.024 96.8105 37.104 96.3945 37.264C95.9785 37.424 95.5412 37.6587 95.0825 37.968L94.3945 36.56C94.9492 36.1973 95.5145 35.9253 96.0905 35.744C96.6772 35.5627 97.2905 35.472 97.9305 35.472C99.1252 35.472 100.053 35.7707 100.715 36.368C101.387 36.9653 101.723 37.8187 101.723 38.928V41.6C101.723 41.8347 101.76 42 101.835 42.096C101.909 42.1813 102.043 42.2347 102.235 42.256V44C102.043 44.0427 101.867 44.0693 101.707 44.08C101.557 44.1013 101.429 44.112 101.323 44.112C100.896 44.112 100.571 44.016 100.347 43.824C100.123 43.632 99.9892 43.3973 99.9465 43.12L99.8985 42.688C99.5252 43.168 99.0665 43.536 98.5225 43.792C97.9892 44.0373 97.4398 44.16 96.8745 44.16C96.3092 44.16 95.8078 44.048 95.3705 43.824C94.9332 43.5893 94.5865 43.2747 94.3305 42.88C94.0852 42.4747 93.9625 42.0213 93.9625 41.52ZM99.1785 41.952C99.4452 41.696 99.5785 41.4507 99.5785 41.216V40.368C99.0238 40.144 98.4638 40.032 97.8985 40.032C97.3332 40.032 96.8745 40.1547 96.5225 40.4C96.1705 40.6347 95.9945 40.9493 95.9945 41.344C95.9945 41.664 96.1225 41.952 96.3785 42.208C96.6345 42.464 97.0025 42.592 97.4825 42.592C97.8025 42.592 98.1118 42.5333 98.4105 42.416C98.7198 42.2987 98.9758 42.144 99.1785 41.952ZM105.568 44V37.488H102.912V35.616H110.384V37.488H107.712V44H105.568ZM111.585 44V35.616H113.729V38.256H115.633C116.636 38.256 117.404 38.512 117.937 39.024C118.471 39.536 118.737 40.2133 118.737 41.056C118.737 41.92 118.481 42.6293 117.969 43.184C117.468 43.728 116.737 44 115.777 44H111.585ZM113.729 42.368H115.441C115.879 42.368 116.199 42.2453 116.401 42C116.604 41.744 116.705 41.4347 116.705 41.072C116.705 40.72 116.609 40.4267 116.417 40.192C116.225 39.9467 115.895 39.824 115.425 39.824H113.729V42.368ZM128.105 44.16C126.665 44.16 125.572 43.7387 124.825 42.896C124.089 42.0427 123.721 40.8 123.721 39.168C123.721 37.8133 123.881 36.7307 124.201 35.92C124.521 35.0987 124.996 34.4693 125.625 34.032C126.254 33.5947 127.044 33.2587 127.993 33.024L131.593 32.112L131.625 33.856L128.073 34.784C127.294 35.0187 126.67 35.376 126.201 35.856C125.732 36.336 125.454 37.0347 125.369 37.952C125.689 37.4187 126.126 37.0027 126.681 36.704C127.236 36.4053 127.908 36.256 128.697 36.256C129.444 36.256 130.1 36.416 130.665 36.736C131.23 37.056 131.668 37.504 131.977 38.08C132.297 38.6453 132.457 39.296 132.457 40.032C132.457 40.832 132.292 41.5467 131.961 42.176C131.63 42.7947 131.14 43.28 130.489 43.632C129.838 43.984 129.044 44.16 128.105 44.16ZM128.105 42.336C128.766 42.336 129.289 42.1387 129.673 41.744C130.068 41.3387 130.265 40.8053 130.265 40.144C130.265 39.504 130.073 38.9813 129.689 38.576C129.305 38.1707 128.777 37.968 128.105 37.968C127.476 37.968 126.953 38.16 126.537 38.544C126.132 38.928 125.929 39.4613 125.929 40.144C125.929 40.7947 126.121 41.3227 126.505 41.728C126.889 42.1333 127.422 42.336 128.105 42.336ZM137.754 44.16C136.837 44.16 136.048 43.9627 135.386 43.568C134.736 43.1627 134.234 42.6293 133.882 41.968C133.53 41.3067 133.354 40.592 133.354 39.824C133.354 39.0453 133.53 38.3253 133.882 37.664C134.245 37.0027 134.752 36.4747 135.402 36.08C136.064 35.6747 136.848 35.472 137.754 35.472C138.661 35.472 139.44 35.6747 140.09 36.08C140.752 36.4747 141.258 37.0027 141.61 37.664C141.962 38.3253 142.138 39.0453 142.138 39.824C142.138 40.592 141.962 41.3067 141.61 41.968C141.258 42.6293 140.752 43.1627 140.09 43.568C139.44 43.9627 138.661 44.16 137.754 44.16ZM135.562 39.824C135.562 40.3147 135.658 40.752 135.85 41.136C136.042 41.5093 136.304 41.8027 136.634 42.016C136.965 42.2293 137.338 42.336 137.754 42.336C138.16 42.336 138.528 42.2293 138.858 42.016C139.189 41.792 139.45 41.4933 139.642 41.12C139.845 40.736 139.946 40.2987 139.946 39.808C139.946 39.328 139.845 38.9013 139.642 38.528C139.45 38.144 139.189 37.8453 138.858 37.632C138.528 37.408 138.16 37.296 137.754 37.296C137.338 37.296 136.965 37.408 136.634 37.632C136.304 37.8453 136.042 38.144 135.85 38.528C135.658 38.9013 135.562 39.3333 135.562 39.824ZM142.977 44.112V42.208C143.319 42.1973 143.612 42.0853 143.857 41.872C144.113 41.6587 144.316 41.2693 144.465 40.704C144.615 40.1387 144.711 39.3227 144.753 38.256L144.865 35.616H151.153V44H149.009V37.488H146.753L146.721 38.464C146.657 39.9253 146.481 41.0667 146.193 41.888C145.916 42.6987 145.511 43.2693 144.977 43.6C144.444 43.9307 143.777 44.1013 142.977 44.112ZM153.101 44V35.616H155.245V38.256H157.149C158.152 38.256 158.92 38.512 159.453 39.024C159.986 39.536 160.253 40.2133 160.253 41.056C160.253 41.92 159.997 42.6293 159.485 43.184C158.984 43.728 158.253 44 157.293 44H153.101ZM155.245 42.368H156.957C157.394 42.368 157.714 42.2453 157.917 42C158.12 41.744 158.221 41.4347 158.221 41.072C158.221 40.72 158.125 40.4267 157.933 40.192C157.741 39.9467 157.41 39.824 156.941 39.824H155.245V42.368ZM161.601 44V35.616H163.745V42.128H166.417V35.616H168.577V42.128H171.233V35.616H173.377V44H161.601ZM179.223 44.16C178.317 44.16 177.533 43.9627 176.871 43.568C176.221 43.1733 175.714 42.6507 175.351 42C174.989 41.3387 174.807 40.624 174.807 39.856C174.807 39.0667 174.983 38.3413 175.335 37.68C175.698 37.008 176.21 36.4747 176.871 36.08C177.533 35.6747 178.322 35.472 179.239 35.472C180.157 35.472 180.941 35.6747 181.591 36.08C182.242 36.4747 182.738 37.0027 183.079 37.664C183.431 38.3147 183.607 39.0187 183.607 39.776C183.607 40.0533 183.591 40.2933 183.559 40.496H177.079C177.133 41.1467 177.373 41.6587 177.799 42.032C178.237 42.4053 178.738 42.592 179.303 42.592C179.73 42.592 180.13 42.4907 180.503 42.288C180.887 42.0747 181.149 41.7973 181.287 41.456L183.127 41.968C182.818 42.608 182.322 43.136 181.639 43.552C180.957 43.9573 180.151 44.16 179.223 44.16ZM177.031 39.136H181.415C181.351 38.5067 181.111 38 180.695 37.616C180.29 37.2213 179.794 37.024 179.207 37.024C178.631 37.024 178.135 37.2213 177.719 37.616C177.314 38 177.085 38.5067 177.031 39.136Z" fill="white"/>
<path d="M10 126C10 112.745 20.7452 102 34 102H196C209.255 102 220 112.745 220 126C220 139.255 209.255 150 196 150H34C20.7452 150 10 139.255 10 126Z" fill="#275455"/>
<path d="M47.2785 132V120.64H56.4785V132H54.2865V122.576H49.4705V132H47.2785ZM62.5355 132.16C61.6182 132.16 60.8288 131.963 60.1675 131.568C59.5168 131.163 59.0155 130.629 58.6635 129.968C58.3115 129.307 58.1355 128.592 58.1355 127.824C58.1355 127.045 58.3115 126.325 58.6635 125.664C59.0262 125.003 59.5328 124.475 60.1835 124.08C60.8448 123.675 61.6288 123.472 62.5355 123.472C63.4422 123.472 64.2208 123.675 64.8715 124.08C65.5328 124.475 66.0395 125.003 66.3915 125.664C66.7435 126.325 66.9195 127.045 66.9195 127.824C66.9195 128.592 66.7435 129.307 66.3915 129.968C66.0395 130.629 65.5328 131.163 64.8715 131.568C64.2208 131.963 63.4422 132.16 62.5355 132.16ZM60.3435 127.824C60.3435 128.315 60.4395 128.752 60.6315 129.136C60.8235 129.509 61.0848 129.803 61.4155 130.016C61.7462 130.229 62.1195 130.336 62.5355 130.336C62.9408 130.336 63.3088 130.229 63.6395 130.016C63.9702 129.792 64.2315 129.493 64.4235 129.12C64.6262 128.736 64.7275 128.299 64.7275 127.808C64.7275 127.328 64.6262 126.901 64.4235 126.528C64.2315 126.144 63.9702 125.845 63.6395 125.632C63.3088 125.408 62.9408 125.296 62.5355 125.296C62.1195 125.296 61.7462 125.408 61.4155 125.632C61.0848 125.845 60.8235 126.144 60.6315 126.528C60.4395 126.901 60.3435 127.333 60.3435 127.824ZM68.3666 132V123.616H70.5106V126.784H71.2306L73.5026 123.616H75.8386L72.8626 127.664L76.1586 132H73.7106L71.1986 128.672H70.5106V132H68.3666ZM76.8375 129.52C76.8375 128.976 76.9868 128.501 77.2855 128.096C77.5948 127.68 78.0215 127.36 78.5655 127.136C79.1095 126.912 79.7335 126.8 80.4375 126.8C80.7895 126.8 81.1468 126.832 81.5095 126.896C81.8722 126.949 82.1868 127.029 82.4535 127.136V126.688C82.4535 126.155 82.2935 125.744 81.9735 125.456C81.6642 125.168 81.2002 125.024 80.5815 125.024C80.1228 125.024 79.6855 125.104 79.2695 125.264C78.8535 125.424 78.4162 125.659 77.9575 125.968L77.2695 124.56C77.8242 124.197 78.3895 123.925 78.9655 123.744C79.5522 123.563 80.1655 123.472 80.8055 123.472C82.0002 123.472 82.9282 123.771 83.5895 124.368C84.2615 124.965 84.5975 125.819 84.5975 126.928V129.6C84.5975 129.835 84.6348 130 84.7095 130.096C84.7842 130.181 84.9175 130.235 85.1095 130.256V132C84.9175 132.043 84.7415 132.069 84.5815 132.08C84.4322 132.101 84.3042 132.112 84.1975 132.112C83.7708 132.112 83.4455 132.016 83.2215 131.824C82.9975 131.632 82.8642 131.397 82.8215 131.12L82.7735 130.688C82.4002 131.168 81.9415 131.536 81.3975 131.792C80.8642 132.037 80.3148 132.16 79.7495 132.16C79.1842 132.16 78.6828 132.048 78.2455 131.824C77.8082 131.589 77.4615 131.275 77.2055 130.88C76.9602 130.475 76.8375 130.021 76.8375 129.52ZM82.0535 129.952C82.3202 129.696 82.4535 129.451 82.4535 129.216V128.368C81.8988 128.144 81.3388 128.032 80.7735 128.032C80.2082 128.032 79.7495 128.155 79.3975 128.4C79.0455 128.635 78.8695 128.949 78.8695 129.344C78.8695 129.664 78.9975 129.952 79.2535 130.208C79.5095 130.464 79.8775 130.592 80.3575 130.592C80.6775 130.592 80.9868 130.533 81.2855 130.416C81.5948 130.299 81.8508 130.144 82.0535 129.952ZM89.593 132.128C88.697 132.128 87.945 131.968 87.337 131.648C86.7397 131.328 86.2757 130.885 85.945 130.32L87.673 129.536C87.8543 129.813 88.089 130.032 88.377 130.192C88.6757 130.341 89.0437 130.416 89.481 130.416C89.9823 130.416 90.3663 130.32 90.633 130.128C90.9103 129.925 91.049 129.664 91.049 129.344C91.049 129.056 90.937 128.821 90.713 128.64C90.489 128.448 90.1583 128.352 89.721 128.352H88.857V127.024H89.737C90.0357 127.024 90.2703 126.939 90.441 126.768C90.6223 126.597 90.713 126.373 90.713 126.096C90.713 125.819 90.6063 125.6 90.393 125.44C90.1903 125.269 89.865 125.184 89.417 125.184C89.0437 125.184 88.7343 125.253 88.489 125.392C88.2437 125.531 88.0463 125.739 87.897 126.016L86.281 125.152C86.5797 124.629 87.0063 124.219 87.561 123.92C88.1263 123.621 88.7823 123.472 89.529 123.472C90.1157 123.472 90.6383 123.563 91.097 123.744C91.5663 123.925 91.9343 124.192 92.201 124.544C92.4677 124.885 92.601 125.307 92.601 125.808C92.601 126.171 92.5103 126.523 92.329 126.864C92.1583 127.205 91.8757 127.456 91.481 127.616C91.993 127.765 92.377 128.021 92.633 128.384C92.8997 128.747 93.033 129.173 93.033 129.664C93.033 130.197 92.8837 130.651 92.585 131.024C92.2863 131.387 91.8757 131.664 91.353 131.856C90.841 132.037 90.2543 132.128 89.593 132.128ZM93.9625 129.52C93.9625 128.976 94.1118 128.501 94.4105 128.096C94.7198 127.68 95.1465 127.36 95.6905 127.136C96.2345 126.912 96.8585 126.8 97.5625 126.8C97.9145 126.8 98.2718 126.832 98.6345 126.896C98.9972 126.949 99.3118 127.029 99.5785 127.136V126.688C99.5785 126.155 99.4185 125.744 99.0985 125.456C98.7892 125.168 98.3252 125.024 97.7065 125.024C97.2478 125.024 96.8105 125.104 96.3945 125.264C95.9785 125.424 95.5412 125.659 95.0825 125.968L94.3945 124.56C94.9492 124.197 95.5145 123.925 96.0905 123.744C96.6772 123.563 97.2905 123.472 97.9305 123.472C99.1252 123.472 100.053 123.771 100.715 124.368C101.387 124.965 101.723 125.819 101.723 126.928V129.6C101.723 129.835 101.76 130 101.835 130.096C101.909 130.181 102.043 130.235 102.235 130.256V132C102.043 132.043 101.867 132.069 101.707 132.08C101.557 132.101 101.429 132.112 101.323 132.112C100.896 132.112 100.571 132.016 100.347 131.824C100.123 131.632 99.9892 131.397 99.9465 131.12L99.8985 130.688C99.5252 131.168 99.0665 131.536 98.5225 131.792C97.9892 132.037 97.4398 132.16 96.8745 132.16C96.3092 132.16 95.8078 132.048 95.3705 131.824C94.9332 131.589 94.5865 131.275 94.3305 130.88C94.0852 130.475 93.9625 130.021 93.9625 129.52ZM99.1785 129.952C99.4452 129.696 99.5785 129.451 99.5785 129.216V128.368C99.0238 128.144 98.4638 128.032 97.8985 128.032C97.3332 128.032 96.8745 128.155 96.5225 128.4C96.1705 128.635 95.9945 128.949 95.9945 129.344C95.9945 129.664 96.1225 129.952 96.3785 130.208C96.6345 130.464 97.0025 130.592 97.4825 130.592C97.8025 130.592 98.1118 130.533 98.4105 130.416C98.7198 130.299 98.9758 130.144 99.1785 129.952ZM105.568 132V125.488H102.912V123.616H110.384V125.488H107.712V132H105.568ZM111.585 132V123.616H113.729V126.256H115.633C116.636 126.256 117.404 126.512 117.937 127.024C118.471 127.536 118.737 128.213 118.737 129.056C118.737 129.92 118.481 130.629 117.969 131.184C117.468 131.728 116.737 132 115.777 132H111.585ZM113.729 130.368H115.441C115.879 130.368 116.199 130.245 116.401 130C116.604 129.744 116.705 129.435 116.705 129.072C116.705 128.72 116.609 128.427 116.417 128.192C116.225 127.947 115.895 127.824 115.425 127.824H113.729V130.368ZM128.105 132.16C126.665 132.16 125.572 131.739 124.825 130.896C124.089 130.043 123.721 128.8 123.721 127.168C123.721 125.813 123.881 124.731 124.201 123.92C124.521 123.099 124.996 122.469 125.625 122.032C126.254 121.595 127.044 121.259 127.993 121.024L131.593 120.112L131.625 121.856L128.073 122.784C127.294 123.019 126.67 123.376 126.201 123.856C125.732 124.336 125.454 125.035 125.369 125.952C125.689 125.419 126.126 125.003 126.681 124.704C127.236 124.405 127.908 124.256 128.697 124.256C129.444 124.256 130.1 124.416 130.665 124.736C131.23 125.056 131.668 125.504 131.977 126.08C132.297 126.645 132.457 127.296 132.457 128.032C132.457 128.832 132.292 129.547 131.961 130.176C131.63 130.795 131.14 131.28 130.489 131.632C129.838 131.984 129.044 132.16 128.105 132.16ZM128.105 130.336C128.766 130.336 129.289 130.139 129.673 129.744C130.068 129.339 130.265 128.805 130.265 128.144C130.265 127.504 130.073 126.981 129.689 126.576C129.305 126.171 128.777 125.968 128.105 125.968C127.476 125.968 126.953 126.16 126.537 126.544C126.132 126.928 125.929 127.461 125.929 128.144C125.929 128.795 126.121 129.323 126.505 129.728C126.889 130.133 127.422 130.336 128.105 130.336ZM137.754 132.16C136.837 132.16 136.048 131.963 135.386 131.568C134.736 131.163 134.234 130.629 133.882 129.968C133.53 129.307 133.354 128.592 133.354 127.824C133.354 127.045 133.53 126.325 133.882 125.664C134.245 125.003 134.752 124.475 135.402 124.08C136.064 123.675 136.848 123.472 137.754 123.472C138.661 123.472 139.44 123.675 140.09 124.08C140.752 124.475 141.258 125.003 141.61 125.664C141.962 126.325 142.138 127.045 142.138 127.824C142.138 128.592 141.962 129.307 141.61 129.968C141.258 130.629 140.752 131.163 140.09 131.568C139.44 131.963 138.661 132.16 137.754 132.16ZM135.562 127.824C135.562 128.315 135.658 128.752 135.85 129.136C136.042 129.509 136.304 129.803 136.634 130.016C136.965 130.229 137.338 130.336 137.754 130.336C138.16 130.336 138.528 130.229 138.858 130.016C139.189 129.792 139.45 129.493 139.642 129.12C139.845 128.736 139.946 128.299 139.946 127.808C139.946 127.328 139.845 126.901 139.642 126.528C139.45 126.144 139.189 125.845 138.858 125.632C138.528 125.408 138.16 125.296 137.754 125.296C137.338 125.296 136.965 125.408 136.634 125.632C136.304 125.845 136.042 126.144 135.85 126.528C135.658 126.901 135.562 127.333 135.562 127.824ZM142.977 132.112V130.208C143.319 130.197 143.612 130.085 143.857 129.872C144.113 129.659 144.316 129.269 144.465 128.704C144.615 128.139 144.711 127.323 144.753 126.256L144.865 123.616H151.153V132H149.009V125.488H146.753L146.721 126.464C146.657 127.925 146.481 129.067 146.193 129.888C145.916 130.699 145.511 131.269 144.977 131.6C144.444 131.931 143.777 132.101 142.977 132.112ZM153.101 132V123.616H155.245V126.256H157.149C158.152 126.256 158.92 126.512 159.453 127.024C159.986 127.536 160.253 128.213 160.253 129.056C160.253 129.92 159.997 130.629 159.485 131.184C158.984 131.728 158.253 132 157.293 132H153.101ZM155.245 130.368H156.957C157.394 130.368 157.714 130.245 157.917 130C158.12 129.744 158.221 129.435 158.221 129.072C158.221 128.72 158.125 128.427 157.933 128.192C157.741 127.947 157.41 127.824 156.941 127.824H155.245V130.368ZM161.601 132V123.616H163.745V130.128H166.417V123.616H168.577V130.128H171.233V123.616H173.377V132H161.601ZM179.223 132.16C178.317 132.16 177.533 131.963 176.871 131.568C176.221 131.173 175.714 130.651 175.351 130C174.989 129.339 174.807 128.624 174.807 127.856C174.807 127.067 174.983 126.341 175.335 125.68C175.698 125.008 176.21 124.475 176.871 124.08C177.533 123.675 178.322 123.472 179.239 123.472C180.157 123.472 180.941 123.675 181.591 124.08C182.242 124.475 182.738 125.003 183.079 125.664C183.431 126.315 183.607 127.019 183.607 127.776C183.607 128.053 183.591 128.293 183.559 128.496H177.079C177.133 129.147 177.373 129.659 177.799 130.032C178.237 130.405 178.738 130.592 179.303 130.592C179.73 130.592 180.13 130.491 180.503 130.288C180.887 130.075 181.149 129.797 181.287 129.456L183.127 129.968C182.818 130.608 182.322 131.136 181.639 131.552C180.957 131.957 180.151 132.16 179.223 132.16ZM177.031 127.136H181.415C181.351 126.507 181.111 126 180.695 125.616C180.29 125.221 179.794 125.024 179.207 125.024C178.631 125.024 178.135 125.221 177.719 125.616C177.314 126 177.085 126.507 177.031 127.136Z" fill="white"/>
<path d="M10 214C10 200.745 20.7452 190 34 190H196C209.255 190 220 200.745 220 214C220 227.255 209.255 238 196 238H34C20.7452 238 10 227.255 10 214Z" fill="#C0FBFC"/>
<path d="M47.2785 220V208.64H56.4785V220H54.2865V210.576H49.4705V220H47.2785ZM62.5355 220.16C61.6182 220.16 60.8288 219.963 60.1675 219.568C59.5168 219.163 59.0155 218.629 58.6635 217.968C58.3115 217.307 58.1355 216.592 58.1355 215.824C58.1355 215.045 58.3115 214.325 58.6635 213.664C59.0262 213.003 59.5328 212.475 60.1835 212.08C60.8448 211.675 61.6288 211.472 62.5355 211.472C63.4422 211.472 64.2208 211.675 64.8715 212.08C65.5328 212.475 66.0395 213.003 66.3915 213.664C66.7435 214.325 66.9195 215.045 66.9195 215.824C66.9195 216.592 66.7435 217.307 66.3915 217.968C66.0395 218.629 65.5328 219.163 64.8715 219.568C64.2208 219.963 63.4422 220.16 62.5355 220.16ZM60.3435 215.824C60.3435 216.315 60.4395 216.752 60.6315 217.136C60.8235 217.509 61.0848 217.803 61.4155 218.016C61.7462 218.229 62.1195 218.336 62.5355 218.336C62.9408 218.336 63.3088 218.229 63.6395 218.016C63.9702 217.792 64.2315 217.493 64.4235 217.12C64.6262 216.736 64.7275 216.299 64.7275 215.808C64.7275 215.328 64.6262 214.901 64.4235 214.528C64.2315 214.144 63.9702 213.845 63.6395 213.632C63.3088 213.408 62.9408 213.296 62.5355 213.296C62.1195 213.296 61.7462 213.408 61.4155 213.632C61.0848 213.845 60.8235 214.144 60.6315 214.528C60.4395 214.901 60.3435 215.333 60.3435 215.824ZM68.3666 220V211.616H70.5106V214.784H71.2306L73.5026 211.616H75.8386L72.8626 215.664L76.1586 220H73.7106L71.1986 216.672H70.5106V220H68.3666ZM76.8375 217.52C76.8375 216.976 76.9868 216.501 77.2855 216.096C77.5948 215.68 78.0215 215.36 78.5655 215.136C79.1095 214.912 79.7335 214.8 80.4375 214.8C80.7895 214.8 81.1468 214.832 81.5095 214.896C81.8722 214.949 82.1868 215.029 82.4535 215.136V214.688C82.4535 214.155 82.2935 213.744 81.9735 213.456C81.6642 213.168 81.2002 213.024 80.5815 213.024C80.1228 213.024 79.6855 213.104 79.2695 213.264C78.8535 213.424 78.4162 213.659 77.9575 213.968L77.2695 212.56C77.8242 212.197 78.3895 211.925 78.9655 211.744C79.5522 211.563 80.1655 211.472 80.8055 211.472C82.0002 211.472 82.9282 211.771 83.5895 212.368C84.2615 212.965 84.5975 213.819 84.5975 214.928V217.6C84.5975 217.835 84.6348 218 84.7095 218.096C84.7842 218.181 84.9175 218.235 85.1095 218.256V220C84.9175 220.043 84.7415 220.069 84.5815 220.08C84.4322 220.101 84.3042 220.112 84.1975 220.112C83.7708 220.112 83.4455 220.016 83.2215 219.824C82.9975 219.632 82.8642 219.397 82.8215 219.12L82.7735 218.688C82.4002 219.168 81.9415 219.536 81.3975 219.792C80.8642 220.037 80.3148 220.16 79.7495 220.16C79.1842 220.16 78.6828 220.048 78.2455 219.824C77.8082 219.589 77.4615 219.275 77.2055 218.88C76.9602 218.475 76.8375 218.021 76.8375 217.52ZM82.0535 217.952C82.3202 217.696 82.4535 217.451 82.4535 217.216V216.368C81.8988 216.144 81.3388 216.032 80.7735 216.032C80.2082 216.032 79.7495 216.155 79.3975 216.4C79.0455 216.635 78.8695 216.949 78.8695 217.344C78.8695 217.664 78.9975 217.952 79.2535 218.208C79.5095 218.464 79.8775 218.592 80.3575 218.592C80.6775 218.592 80.9868 218.533 81.2855 218.416C81.5948 218.299 81.8508 218.144 82.0535 217.952ZM89.593 220.128C88.697 220.128 87.945 219.968 87.337 219.648C86.7397 219.328 86.2757 218.885 85.945 218.32L87.673 217.536C87.8543 217.813 88.089 218.032 88.377 218.192C88.6757 218.341 89.0437 218.416 89.481 218.416C89.9823 218.416 90.3663 218.32 90.633 218.128C90.9103 217.925 91.049 217.664 91.049 217.344C91.049 217.056 90.937 216.821 90.713 216.64C90.489 216.448 90.1583 216.352 89.721 216.352H88.857V215.024H89.737C90.0357 215.024 90.2703 214.939 90.441 214.768C90.6223 214.597 90.713 214.373 90.713 214.096C90.713 213.819 90.6063 213.6 90.393 213.44C90.1903 213.269 89.865 213.184 89.417 213.184C89.0437 213.184 88.7343 213.253 88.489 213.392C88.2437 213.531 88.0463 213.739 87.897 214.016L86.281 213.152C86.5797 212.629 87.0063 212.219 87.561 211.92C88.1263 211.621 88.7823 211.472 89.529 211.472C90.1157 211.472 90.6383 211.563 91.097 211.744C91.5663 211.925 91.9343 212.192 92.201 212.544C92.4677 212.885 92.601 213.307 92.601 213.808C92.601 214.171 92.5103 214.523 92.329 214.864C92.1583 215.205 91.8757 215.456 91.481 215.616C91.993 215.765 92.377 216.021 92.633 216.384C92.8997 216.747 93.033 217.173 93.033 217.664C93.033 218.197 92.8837 218.651 92.585 219.024C92.2863 219.387 91.8757 219.664 91.353 219.856C90.841 220.037 90.2543 220.128 89.593 220.128ZM93.9625 217.52C93.9625 216.976 94.1118 216.501 94.4105 216.096C94.7198 215.68 95.1465 215.36 95.6905 215.136C96.2345 214.912 96.8585 214.8 97.5625 214.8C97.9145 214.8 98.2718 214.832 98.6345 214.896C98.9972 214.949 99.3118 215.029 99.5785 215.136V214.688C99.5785 214.155 99.4185 213.744 99.0985 213.456C98.7892 213.168 98.3252 213.024 97.7065 213.024C97.2478 213.024 96.8105 213.104 96.3945 213.264C95.9785 213.424 95.5412 213.659 95.0825 213.968L94.3945 212.56C94.9492 212.197 95.5145 211.925 96.0905 211.744C96.6772 211.563 97.2905 211.472 97.9305 211.472C99.1252 211.472 100.053 211.771 100.715 212.368C101.387 212.965 101.723 213.819 101.723 214.928V217.6C101.723 217.835 101.76 218 101.835 218.096C101.909 218.181 102.043 218.235 102.235 218.256V220C102.043 220.043 101.867 220.069 101.707 220.08C101.557 220.101 101.429 220.112 101.323 220.112C100.896 220.112 100.571 220.016 100.347 219.824C100.123 219.632 99.9892 219.397 99.9465 219.12L99.8985 218.688C99.5252 219.168 99.0665 219.536 98.5225 219.792C97.9892 220.037 97.4398 220.16 96.8745 220.16C96.3092 220.16 95.8078 220.048 95.3705 219.824C94.9332 219.589 94.5865 219.275 94.3305 218.88C94.0852 218.475 93.9625 218.021 93.9625 217.52ZM99.1785 217.952C99.4452 217.696 99.5785 217.451 99.5785 217.216V216.368C99.0238 216.144 98.4638 216.032 97.8985 216.032C97.3332 216.032 96.8745 216.155 96.5225 216.4C96.1705 216.635 95.9945 216.949 95.9945 217.344C95.9945 217.664 96.1225 217.952 96.3785 218.208C96.6345 218.464 97.0025 218.592 97.4825 218.592C97.8025 218.592 98.1118 218.533 98.4105 218.416C98.7198 218.299 98.9758 218.144 99.1785 217.952ZM105.568 220V213.488H102.912V211.616H110.384V213.488H107.712V220H105.568ZM111.585 220V211.616H113.729V214.256H115.633C116.636 214.256 117.404 214.512 117.937 215.024C118.471 215.536 118.737 216.213 118.737 217.056C118.737 217.92 118.481 218.629 117.969 219.184C117.468 219.728 116.737 220 115.777 220H111.585ZM113.729 218.368H115.441C115.879 218.368 116.199 218.245 116.401 218C116.604 217.744 116.705 217.435 116.705 217.072C116.705 216.72 116.609 216.427 116.417 216.192C116.225 215.947 115.895 215.824 115.425 215.824H113.729V218.368ZM128.105 220.16C126.665 220.16 125.572 219.739 124.825 218.896C124.089 218.043 123.721 216.8 123.721 215.168C123.721 213.813 123.881 212.731 124.201 211.92C124.521 211.099 124.996 210.469 125.625 210.032C126.254 209.595 127.044 209.259 127.993 209.024L131.593 208.112L131.625 209.856L128.073 210.784C127.294 211.019 126.67 211.376 126.201 211.856C125.732 212.336 125.454 213.035 125.369 213.952C125.689 213.419 126.126 213.003 126.681 212.704C127.236 212.405 127.908 212.256 128.697 212.256C129.444 212.256 130.1 212.416 130.665 212.736C131.23 213.056 131.668 213.504 131.977 214.08C132.297 214.645 132.457 215.296 132.457 216.032C132.457 216.832 132.292 217.547 131.961 218.176C131.63 218.795 131.14 219.28 130.489 219.632C129.838 219.984 129.044 220.16 128.105 220.16ZM128.105 218.336C128.766 218.336 129.289 218.139 129.673 217.744C130.068 217.339 130.265 216.805 130.265 216.144C130.265 215.504 130.073 214.981 129.689 214.576C129.305 214.171 128.777 213.968 128.105 213.968C127.476 213.968 126.953 214.16 126.537 214.544C126.132 214.928 125.929 215.461 125.929 216.144C125.929 216.795 126.121 217.323 126.505 217.728C126.889 218.133 127.422 218.336 128.105 218.336ZM137.754 220.16C136.837 220.16 136.048 219.963 135.386 219.568C134.736 219.163 134.234 218.629 133.882 217.968C133.53 217.307 133.354 216.592 133.354 215.824C133.354 215.045 133.53 214.325 133.882 213.664C134.245 213.003 134.752 212.475 135.402 212.08C136.064 211.675 136.848 211.472 137.754 211.472C138.661 211.472 139.44 211.675 140.09 212.08C140.752 212.475 141.258 213.003 141.61 213.664C141.962 214.325 142.138 215.045 142.138 215.824C142.138 216.592 141.962 217.307 141.61 217.968C141.258 218.629 140.752 219.163 140.09 219.568C139.44 219.963 138.661 220.16 137.754 220.16ZM135.562 215.824C135.562 216.315 135.658 216.752 135.85 217.136C136.042 217.509 136.304 217.803 136.634 218.016C136.965 218.229 137.338 218.336 137.754 218.336C138.16 218.336 138.528 218.229 138.858 218.016C139.189 217.792 139.45 217.493 139.642 217.12C139.845 216.736 139.946 216.299 139.946 215.808C139.946 215.328 139.845 214.901 139.642 214.528C139.45 214.144 139.189 213.845 138.858 213.632C138.528 213.408 138.16 213.296 137.754 213.296C137.338 213.296 136.965 213.408 136.634 213.632C136.304 213.845 136.042 214.144 135.85 214.528C135.658 214.901 135.562 215.333 135.562 215.824ZM142.977 220.112V218.208C143.319 218.197 143.612 218.085 143.857 217.872C144.113 217.659 144.316 217.269 144.465 216.704C144.615 216.139 144.711 215.323 144.753 214.256L144.865 211.616H151.153V220H149.009V213.488H146.753L146.721 214.464C146.657 215.925 146.481 217.067 146.193 217.888C145.916 218.699 145.511 219.269 144.977 219.6C144.444 219.931 143.777 220.101 142.977 220.112ZM153.101 220V211.616H155.245V214.256H157.149C158.152 214.256 158.92 214.512 159.453 215.024C159.986 215.536 160.253 216.213 160.253 217.056C160.253 217.92 159.997 218.629 159.485 219.184C158.984 219.728 158.253 220 157.293 220H153.101ZM155.245 218.368H156.957C157.394 218.368 157.714 218.245 157.917 218C158.12 217.744 158.221 217.435 158.221 217.072C158.221 216.72 158.125 216.427 157.933 216.192C157.741 215.947 157.41 215.824 156.941 215.824H155.245V218.368ZM161.601 220V211.616H163.745V218.128H166.417V211.616H168.577V218.128H171.233V211.616H173.377V220H161.601ZM179.223 220.16C178.317 220.16 177.533 219.963 176.871 219.568C176.221 219.173 175.714 218.651 175.351 218C174.989 217.339 174.807 216.624 174.807 215.856C174.807 215.067 174.983 214.341 175.335 213.68C175.698 213.008 176.21 212.475 176.871 212.08C177.533 211.675 178.322 211.472 179.239 211.472C180.157 211.472 180.941 211.675 181.591 212.08C182.242 212.475 182.738 213.003 183.079 213.664C183.431 214.315 183.607 215.019 183.607 215.776C183.607 216.053 183.591 216.293 183.559 216.496H177.079C177.133 217.147 177.373 217.659 177.799 218.032C178.237 218.405 178.738 218.592 179.303 218.592C179.73 218.592 180.13 218.491 180.503 218.288C180.887 218.075 181.149 217.797 181.287 217.456L183.127 217.968C182.818 218.608 182.322 219.136 181.639 219.552C180.957 219.957 180.151 220.16 179.223 220.16ZM177.031 215.136H181.415C181.351 214.507 181.111 214 180.695 213.616C180.29 213.221 179.794 213.024 179.207 213.024C178.631 213.024 178.135 213.221 177.719 213.616C177.314 214 177.085 214.507 177.031 215.136Z" fill="#508B8C"/>
<rect x="0.5" y="0.5" width="229" height="251" rx="4.5" stroke="#7B61FF" stroke-dasharray="10 5"/>
</svg>
