<svg width="119" height="72" viewBox="0 0 119 72" fill="none" xmlns="http://www.w3.org/2000/svg">
<path d="M67 36C67 27.1634 74.1634 20 83 20C91.8366 20 99 27.1634 99 36C99 44.8366 91.8366 52 83 52C74.1634 52 67 44.8366 67 36Z" fill="black" fill-opacity="0.1"/>
<path fill-rule="evenodd" clip-rule="evenodd" d="M79.4998 43C80.3282 43 80.9998 43.6716 80.9998 44.5C80.9998 45.3284 80.3282 46 79.4998 46C78.6714 46 77.9998 45.3284 77.9998 44.5C77.9998 43.6716 78.6714 43 79.4998 43ZM88.4998 43C89.3282 43 89.9998 43.6716 89.9998 44.5C89.9998 45.3284 89.3282 46 88.4998 46C87.6714 46 86.9998 45.3284 86.9998 44.5C86.9998 43.6716 87.6714 43 88.4998 43ZM73.9998 26H75.9998C76.4554 26 76.8481 26.3068 76.9648 26.7377L76.9882 26.8479L77.4731 30H91.9998C92.5996 30 93.0547 30.5207 92.9949 31.1003L92.976 31.2169L91.324 38.6508C91.0322 39.9637 89.9057 40.9143 88.5777 40.9945L88.3954 41H79.7156C78.2941 41 77.0768 40.0044 76.7824 38.6299L76.7505 38.4562L75.1419 28H73.9998C73.4475 28 72.9998 27.5523 72.9998 27C72.9998 26.4872 73.3858 26.0645 73.8832 26.0067L73.9998 26H75.9998H73.9998ZM90.7532 32H77.7808L78.7273 38.1521C78.7965 38.6024 79.1595 38.9438 79.6032 38.9937L79.7156 39H88.3954C88.8251 39 89.2019 38.7265 89.34 38.3285L89.3716 38.2169L90.7532 32Z" fill="#101010"/>
<path fill-rule="evenodd" clip-rule="evenodd" d="M28.5 43C29.3284 43 30 43.6716 30 44.5C30 45.3284 29.3284 46 28.5 46C27.6716 46 27 45.3284 27 44.5C27 43.6716 27.6716 43 28.5 43ZM37.5 43C38.3284 43 39 43.6716 39 44.5C39 45.3284 38.3284 46 37.5 46C36.6716 46 36 45.3284 36 44.5C36 43.6716 36.6716 43 37.5 43ZM23 26H25C25.4556 26 25.8483 26.3068 25.9651 26.7377L25.9884 26.8479L26.4733 30H41C41.5998 30 42.0549 30.5207 41.9951 31.1003L41.9762 31.2169L40.3242 38.6508C40.0325 39.9637 38.9059 40.9143 37.5779 40.9945L37.3957 41H28.7158C27.2944 41 26.077 40.0044 25.7827 38.6299L25.7507 38.4562L24.1421 28H23C22.4477 28 22 27.5523 22 27C22 26.4872 22.386 26.0645 22.8834 26.0067L23 26H25H23ZM39.7534 32H26.781L27.7275 38.1521C27.7967 38.6024 28.1597 38.9438 28.6034 38.9937L28.7158 39H37.3957C37.8253 39 38.2021 38.7265 38.3402 38.3285L38.3718 38.2169L39.7534 32Z" fill="#101010"/>
<rect x="0.5" y="0.5" width="118" height="71" rx="4.5" stroke="#7B61FF" stroke-dasharray="10 5"/>
</svg>
