<svg width="116" height="72" viewBox="0 0 116 72" fill="none" xmlns="http://www.w3.org/2000/svg">
<path d="M64 36C64 27.1634 71.1634 20 80 20C88.8366 20 96 27.1634 96 36C96 44.8366 88.8366 52 80 52C71.1634 52 64 44.8366 64 36Z" fill="black" fill-opacity="0.1"/>
<path fill-rule="evenodd" clip-rule="evenodd" d="M75 40H85C87.7614 40 90 42.2386 90 45C90 45.5523 89.5523 46 89 46C88.4872 46 88.0645 45.614 88.0067 45.1166L87.9949 44.8237C87.907 43.3072 86.6928 42.093 85.1763 42.0051L85 42H75C73.3431 42 72 43.3431 72 45C72 45.5523 71.5523 46 71 46C70.4477 46 70 45.5523 70 45C70 42.3112 72.1223 40.1182 74.7831 40.0046L75 40H85H75ZM80 26C83.3137 26 86 28.6863 86 32C86 35.3137 83.3137 38 80 38C76.6863 38 74 35.3137 74 32C74 28.6863 76.6863 26 80 26ZM80 28C77.7909 28 76 29.7909 76 32C76 34.2091 77.7909 36 80 36C82.2091 36 84 34.2091 84 32C84 29.7909 82.2091 28 80 28Z" fill="#101010"/>
<path fill-rule="evenodd" clip-rule="evenodd" d="M27 40H37C39.7614 40 42 42.2386 42 45C42 45.5523 41.5523 46 41 46C40.4872 46 40.0645 45.614 40.0067 45.1166L39.9949 44.8237C39.907 43.3072 38.6928 42.093 37.1763 42.0051L37 42H27C25.3431 42 24 43.3431 24 45C24 45.5523 23.5523 46 23 46C22.4477 46 22 45.5523 22 45C22 42.3112 24.1223 40.1182 26.7831 40.0046L27 40H37H27ZM32 26C35.3137 26 38 28.6863 38 32C38 35.3137 35.3137 38 32 38C28.6863 38 26 35.3137 26 32C26 28.6863 28.6863 26 32 26ZM32 28C29.7909 28 28 29.7909 28 32C28 34.2091 29.7909 36 32 36C34.2091 36 36 34.2091 36 32C36 29.7909 34.2091 28 32 28Z" fill="#101010"/>
<rect x="0.5" y="0.5" width="115" height="71" rx="4.5" stroke="#7B61FF" stroke-dasharray="10 5"/>
</svg>
