<svg width="252" height="88" viewBox="0 0 252 88" fill="none" xmlns="http://www.w3.org/2000/svg">
<g filter="url(#filter0_d)">
<path d="M20 44C20 30.7452 30.7452 20 44 20C57.2548 20 68 30.7452 68 44C68 57.2548 57.2548 68 44 68C30.7452 68 20 57.2548 20 44Z" fill="white"/>
<path fill-rule="evenodd" clip-rule="evenodd" d="M39.6506 35.7781C38.3696 35.7781 37.0898 36.2412 36.1145 37.1687C35.1811 38.0577 34.6666 39.2372 34.6666 40.4902C34.6666 41.7421 35.1811 42.9216 36.1145 43.8106L44 51.3146L51.8855 43.8106C52.8188 42.9216 53.3333 41.7421 53.3333 40.4902C53.3333 39.2384 52.8188 38.0577 51.8855 37.1687C49.936 35.3137 46.7626 35.3137 44.8131 37.1687L44 37.9434L43.1868 37.1687C42.2115 36.2412 40.9316 35.7781 39.6506 35.7781ZM44 54.4996L34.4881 45.4474C33.0986 44.1256 32.3333 42.3651 32.3333 40.4902C32.3333 38.6154 33.0986 36.8549 34.4881 35.5319C37.0781 33.0667 41.144 32.8451 44 34.8634C46.856 32.8451 50.9218 33.0667 53.5118 35.5319C54.9013 36.8549 55.6666 38.6154 55.6666 40.4902C55.6666 42.3651 54.9013 44.1256 53.5118 45.4474L44 54.4996Z" fill="#508B8C"/>
</g>
<g filter="url(#filter1_d)">
<path d="M88 44C88 30.7452 98.7452 20 112 20C125.255 20 136 30.7452 136 44C136 57.2548 125.255 68 112 68C98.7452 68 88 57.2548 88 44Z" fill="white"/>
<path fill-rule="evenodd" clip-rule="evenodd" d="M112 54.4996L102.488 45.4474C101.099 44.1256 100.333 42.3651 100.333 40.4902C100.333 38.6154 101.099 36.8549 102.488 35.5319C105.078 33.0667 109.144 32.8451 112 34.8634C114.856 32.8451 118.922 33.0667 121.512 35.5319C122.901 36.8549 123.667 38.6154 123.667 40.4902C123.667 42.3651 122.901 44.1256 121.512 45.4474L112 54.4996Z" fill="#508B8C"/>
</g>
<path fill-rule="evenodd" clip-rule="evenodd" d="M165.651 35.7781C164.37 35.7781 163.09 36.2412 162.115 37.1687C161.181 38.0577 160.667 39.2372 160.667 40.4902C160.667 41.7421 161.181 42.9216 162.115 43.8106L170 51.3146L177.886 43.8106C178.819 42.9216 179.333 41.7421 179.333 40.4902C179.333 39.2384 178.819 38.0577 177.886 37.1687C175.936 35.3137 172.763 35.3137 170.813 37.1687L170 37.9434L169.187 37.1687C168.212 36.2412 166.932 35.7781 165.651 35.7781ZM170 54.4996L160.488 45.4474C159.099 44.1256 158.333 42.3651 158.333 40.4902C158.333 38.6154 159.099 36.8549 160.488 35.5319C163.078 33.0667 167.144 32.8451 170 34.8634C172.856 32.8451 176.922 33.0667 179.512 35.5319C180.901 36.8549 181.667 38.6154 181.667 40.4902C181.667 42.3651 180.901 44.1256 179.512 45.4474L170 54.4996Z" fill="#508B8C"/>
<path fill-rule="evenodd" clip-rule="evenodd" d="M218 54.4996L208.488 45.4474C207.099 44.1256 206.333 42.3651 206.333 40.4902C206.333 38.6154 207.099 36.8549 208.488 35.5319C211.078 33.0667 215.144 32.8451 218 34.8634C220.856 32.8451 224.922 33.0667 227.512 35.5319C228.901 36.8549 229.667 38.6154 229.667 40.4902C229.667 42.3651 228.901 44.1256 227.512 45.4474L218 54.4996Z" fill="#508B8C"/>
<rect x="0.5" y="0.5" width="251" height="87" rx="4.5" stroke="#7B61FF" stroke-dasharray="10 5"/>
<defs>
<filter id="filter0_d" x="8" y="10" width="72" height="72" filterUnits="userSpaceOnUse" color-interpolation-filters="sRGB">
<feFlood flood-opacity="0" result="BackgroundImageFix"/>
<feColorMatrix in="SourceAlpha" type="matrix" values="0 0 0 0 0 0 0 0 0 0 0 0 0 0 0 0 0 0 127 0"/>
<feOffset dy="2"/>
<feGaussianBlur stdDeviation="6"/>
<feColorMatrix type="matrix" values="0 0 0 0 0 0 0 0 0 0 0 0 0 0 0 0 0 0 0.25 0"/>
<feBlend mode="normal" in2="BackgroundImageFix" result="effect1_dropShadow"/>
<feBlend mode="normal" in="SourceGraphic" in2="effect1_dropShadow" result="shape"/>
</filter>
<filter id="filter1_d" x="76" y="10" width="72" height="72" filterUnits="userSpaceOnUse" color-interpolation-filters="sRGB">
<feFlood flood-opacity="0" result="BackgroundImageFix"/>
<feColorMatrix in="SourceAlpha" type="matrix" values="0 0 0 0 0 0 0 0 0 0 0 0 0 0 0 0 0 0 127 0"/>
<feOffset dy="2"/>
<feGaussianBlur stdDeviation="6"/>
<feColorMatrix type="matrix" values="0 0 0 0 0 0 0 0 0 0 0 0 0 0 0 0 0 0 0.25 0"/>
<feBlend mode="normal" in2="BackgroundImageFix" result="effect1_dropShadow"/>
<feBlend mode="normal" in="SourceGraphic" in2="effect1_dropShadow" result="shape"/>
</filter>
</defs>
</svg>
