<svg width="200" height="200" viewBox="0 0 200 200" fill="none" xmlns="http://www.w3.org/2000/svg">
<g clip-path="url(#clip0)">
<path d="M0 16C0 7.16344 7.16344 0 16 0H184C192.837 0 200 7.16344 200 16V184C200 192.837 192.837 200 184 200H16C7.16344 200 0 192.837 0 184V16Z" fill="#F5BFD2"/>
<rect width="200" height="200" fill="black" fill-opacity="0.1"/>
<path d="M43.4462 166.42C43.4462 165.513 43.1995 164.84 42.7062 164.4C42.2262 163.947 41.5662 163.687 40.7262 163.62V169.3C41.5662 169.233 42.2262 168.967 42.7062 168.5C43.1995 168.033 43.4462 167.34 43.4462 166.42ZM35.4862 166.42C35.4862 167.34 35.7262 168.033 36.2062 168.5C36.6862 168.967 37.3462 169.233 38.1862 169.3V163.62C37.3462 163.687 36.6862 163.947 36.2062 164.4C35.7262 164.84 35.4862 165.513 35.4862 166.42ZM38.1862 173.24V171.48C36.4928 171.387 35.1595 170.92 34.1862 170.08C33.2128 169.227 32.7262 168.007 32.7262 166.42C32.7262 164.847 33.2128 163.653 34.1862 162.84C35.1595 162.013 36.4928 161.547 38.1862 161.44V159.72H40.7262V161.44C42.4328 161.547 43.7728 162.007 44.7462 162.82C45.7195 163.633 46.2062 164.833 46.2062 166.42C46.2062 168.02 45.7195 169.24 44.7462 170.08C43.7728 170.907 42.4328 171.373 40.7262 171.48V173.24H38.1862ZM52.6596 173.24C52.0329 173.24 51.4263 173.127 50.8396 172.9C50.2529 172.66 49.7329 172.32 49.2796 171.88C48.8396 171.44 48.4863 170.9 48.2196 170.26C47.9529 169.607 47.8196 168.867 47.8196 168.04C47.8196 167.213 47.9529 166.48 48.2196 165.84C48.4863 165.187 48.8396 164.64 49.2796 164.2C49.7329 163.76 50.2529 163.427 50.8396 163.2C51.4263 162.96 52.0329 162.84 52.6596 162.84C53.2863 162.84 53.8863 162.96 54.4596 163.2C55.0463 163.427 55.5596 163.76 55.9996 164.2C56.4529 164.64 56.8129 165.187 57.0796 165.84C57.3463 166.48 57.4796 167.213 57.4796 168.04C57.4796 168.867 57.3463 169.607 57.0796 170.26C56.8129 170.9 56.4529 171.44 55.9996 171.88C55.5596 172.32 55.0463 172.66 54.4596 172.9C53.8863 173.127 53.2863 173.24 52.6596 173.24ZM52.6596 170.86C53.2596 170.86 53.7129 170.607 54.0196 170.1C54.3263 169.593 54.4796 168.907 54.4796 168.04C54.4796 167.173 54.3263 166.487 54.0196 165.98C53.7129 165.473 53.2596 165.22 52.6596 165.22C52.0463 165.22 51.5863 165.473 51.2796 165.98C50.9863 166.487 50.8396 167.173 50.8396 168.04C50.8396 168.907 50.9863 169.593 51.2796 170.1C51.5863 170.607 52.0463 170.86 52.6596 170.86ZM61.106 173V165.38H58.186V163.08H66.986V165.38H64.046V173H61.106ZM72.7182 173.24C72.0915 173.24 71.4849 173.127 70.8982 172.9C70.3115 172.66 69.7915 172.32 69.3382 171.88C68.8982 171.44 68.5449 170.9 68.2782 170.26C68.0115 169.607 67.8782 168.867 67.8782 168.04C67.8782 167.213 68.0115 166.48 68.2782 165.84C68.5449 165.187 68.8982 164.64 69.3382 164.2C69.7915 163.76 70.3115 163.427 70.8982 163.2C71.4849 162.96 72.0915 162.84 72.7182 162.84C73.3449 162.84 73.9449 162.96 74.5182 163.2C75.1049 163.427 75.6182 163.76 76.0582 164.2C76.5115 164.64 76.8715 165.187 77.1382 165.84C77.4049 166.48 77.5382 167.213 77.5382 168.04C77.5382 168.867 77.4049 169.607 77.1382 170.26C76.8715 170.9 76.5115 171.44 76.0582 171.88C75.6182 172.32 75.1049 172.66 74.5182 172.9C73.9449 173.127 73.3449 173.24 72.7182 173.24ZM72.7182 170.86C73.3182 170.86 73.7715 170.607 74.0782 170.1C74.3849 169.593 74.5382 168.907 74.5382 168.04C74.5382 167.173 74.3849 166.487 74.0782 165.98C73.7715 165.473 73.3182 165.22 72.7182 165.22C72.1049 165.22 71.6449 165.473 71.3382 165.98C71.0449 166.487 70.8982 167.173 70.8982 168.04C70.8982 168.907 71.0449 169.593 71.3382 170.1C71.6449 170.607 72.1049 170.86 72.7182 170.86ZM81.8371 173.24C81.3838 173.24 80.9704 173.16 80.5971 173C80.2371 172.853 79.9304 172.647 79.6771 172.38C79.4238 172.1 79.2238 171.78 79.0771 171.42C78.9438 171.06 78.8771 170.667 78.8771 170.24C78.8771 169.2 79.3171 168.387 80.1971 167.8C81.0771 167.213 82.4971 166.82 84.4571 166.62C84.4304 166.18 84.2971 165.833 84.0571 165.58C83.8304 165.313 83.4438 165.18 82.8971 165.18C82.4704 165.18 82.0438 165.26 81.6171 165.42C81.2038 165.58 80.7571 165.8 80.2771 166.08L79.2171 164.14C79.8571 163.753 80.5238 163.44 81.2171 163.2C81.9238 162.96 82.6704 162.84 83.4571 162.84C84.7371 162.84 85.7104 163.207 86.3771 163.94C87.0571 164.66 87.3971 165.787 87.3971 167.32V173H84.9971L84.7971 171.98H84.7171C84.2904 172.353 83.8438 172.66 83.3771 172.9C82.9104 173.127 82.3971 173.24 81.8371 173.24ZM82.8371 170.96C83.1704 170.96 83.4571 170.887 83.6971 170.74C83.9371 170.593 84.1904 170.387 84.4571 170.12V168.38C83.4171 168.527 82.6971 168.74 82.2971 169.02C81.8971 169.3 81.6971 169.633 81.6971 170.02C81.6971 170.34 81.7971 170.58 81.9971 170.74C82.2104 170.887 82.4904 170.96 82.8371 170.96ZM89.884 173V163.08H98.764V173H95.824V165.38H92.824V173H89.884ZM101.368 173V163.08H110.248V173H107.308V165.38H104.308V173H101.368ZM115.353 173.24C114.899 173.24 114.486 173.16 114.113 173C113.753 172.853 113.446 172.647 113.193 172.38C112.939 172.1 112.739 171.78 112.593 171.42C112.459 171.06 112.393 170.667 112.393 170.24C112.393 169.2 112.833 168.387 113.713 167.8C114.593 167.213 116.013 166.82 117.973 166.62C117.946 166.18 117.813 165.833 117.573 165.58C117.346 165.313 116.959 165.18 116.413 165.18C115.986 165.18 115.559 165.26 115.133 165.42C114.719 165.58 114.273 165.8 113.793 166.08L112.733 164.14C113.373 163.753 114.039 163.44 114.733 163.2C115.439 162.96 116.186 162.84 116.973 162.84C118.253 162.84 119.226 163.207 119.893 163.94C120.573 164.66 120.913 165.787 120.913 167.32V173H118.513L118.313 171.98H118.233C117.806 172.353 117.359 172.66 116.893 172.9C116.426 173.127 115.913 173.24 115.353 173.24ZM116.353 170.96C116.686 170.96 116.973 170.887 117.213 170.74C117.453 170.593 117.706 170.387 117.973 170.12V168.38C116.933 168.527 116.213 168.74 115.813 169.02C115.413 169.3 115.213 169.633 115.213 170.02C115.213 170.34 115.313 170.58 115.513 170.74C115.726 170.887 116.006 170.96 116.353 170.96ZM123.4 176.68V163.08H125.8L126 164.06H126.08C126.466 163.713 126.9 163.427 127.38 163.2C127.873 162.96 128.38 162.84 128.9 162.84C129.5 162.84 130.04 162.96 130.52 163.2C131 163.44 131.406 163.78 131.74 164.22C132.073 164.66 132.326 165.193 132.5 165.82C132.686 166.433 132.78 167.12 132.78 167.88C132.78 168.733 132.66 169.493 132.42 170.16C132.193 170.813 131.88 171.373 131.48 171.84C131.093 172.293 130.646 172.64 130.14 172.88C129.646 173.12 129.133 173.24 128.6 173.24C128.173 173.24 127.76 173.153 127.36 172.98C126.96 172.793 126.586 172.533 126.24 172.2L126.34 173.78V176.68H123.4ZM127.92 170.84C128.426 170.84 128.86 170.613 129.22 170.16C129.58 169.693 129.76 168.947 129.76 167.92C129.76 166.133 129.186 165.24 128.04 165.24C127.466 165.24 126.9 165.54 126.34 166.14V170.2C126.606 170.44 126.873 170.607 127.14 170.7C127.406 170.793 127.666 170.84 127.92 170.84ZM137.15 173.24C136.696 173.24 136.283 173.16 135.91 173C135.55 172.853 135.243 172.647 134.99 172.38C134.736 172.1 134.536 171.78 134.39 171.42C134.256 171.06 134.19 170.667 134.19 170.24C134.19 169.2 134.63 168.387 135.51 167.8C136.39 167.213 137.81 166.82 139.77 166.62C139.743 166.18 139.61 165.833 139.37 165.58C139.143 165.313 138.756 165.18 138.21 165.18C137.783 165.18 137.356 165.26 136.93 165.42C136.516 165.58 136.07 165.8 135.59 166.08L134.53 164.14C135.17 163.753 135.836 163.44 136.53 163.2C137.236 162.96 137.983 162.84 138.77 162.84C140.05 162.84 141.023 163.207 141.69 163.94C142.37 164.66 142.71 165.787 142.71 167.32V173H140.31L140.11 171.98H140.03C139.603 172.353 139.156 172.66 138.69 172.9C138.223 173.127 137.71 173.24 137.15 173.24ZM138.15 170.96C138.483 170.96 138.77 170.887 139.01 170.74C139.25 170.593 139.503 170.387 139.77 170.12V168.38C138.73 168.527 138.01 168.74 137.61 169.02C137.21 169.3 137.01 169.633 137.01 170.02C137.01 170.34 137.11 170.58 137.31 170.74C137.523 170.887 137.803 170.96 138.15 170.96ZM146.985 173V165.38H144.065V163.08H152.865V165.38H149.925V173H146.985ZM154.689 173V163.08H157.629V166.24H158.349C158.949 166.24 159.509 166.3 160.029 166.42C160.549 166.527 160.995 166.713 161.369 166.98C161.755 167.247 162.055 167.593 162.269 168.02C162.495 168.447 162.609 168.967 162.609 169.58C162.609 170.22 162.495 170.76 162.269 171.2C162.055 171.627 161.755 171.98 161.369 172.26C160.995 172.527 160.549 172.72 160.029 172.84C159.509 172.947 158.949 173 158.349 173H154.689ZM157.629 170.76H158.209C159.262 170.76 159.789 170.36 159.789 169.56C159.789 168.8 159.262 168.42 158.209 168.42H157.629V170.76ZM163.929 173V163.08H166.869V173H163.929Z" fill="#101010"/>
<path d="M86.6667 83.3334L89.1333 79.6334C89.7423 78.7206 90.5672 77.9723 91.5348 77.4548C92.5024 76.9373 93.5827 76.6666 94.68 76.6667H105.32C106.417 76.6666 107.498 76.9373 108.465 77.4548C109.433 77.9723 110.258 78.7206 110.867 79.6334L113.333 83.3334H130V120H70V83.3334H86.6667Z" stroke="#101010" stroke-width="3" stroke-linecap="round" stroke-linejoin="round"/>
<path d="M100 110C105.523 110 110 105.523 110 100C110 94.4772 105.523 90 100 90C94.4772 90 90 94.4772 90 100C90 105.523 94.4772 110 100 110Z" stroke="#101010" stroke-width="3" stroke-linecap="round" stroke-linejoin="round"/>
</g>
<defs>
<clipPath id="clip0">
<path d="M0 16C0 7.16344 7.16344 0 16 0H184C192.837 0 200 7.16344 200 16V184C200 192.837 192.837 200 184 200H16C7.16344 200 0 192.837 0 184V16Z" fill="white"/>
</clipPath>
</defs>
</svg>
