<svg width="16" height="15" viewBox="0 0 16 15" fill="none" xmlns="http://www.w3.org/2000/svg">
<path fill-rule="evenodd" clip-rule="evenodd" d="M7.25 0C10.9779 0 14 3.02208 14 6.75C14 8.34359 13.4478 9.80819 12.5242 10.9629L15.2803 13.7197C15.5732 14.0126 15.5732 14.4874 15.2803 14.7803C15.01 15.0507 14.5845 15.0715 14.2903 14.8427L14.2197 14.7803L11.4629 12.0242C10.3082 12.9478 8.84359 13.5 7.25 13.5C3.52208 13.5 0.5 10.4779 0.5 6.75C0.5 3.02208 3.52208 0 7.25 0ZM7.25 1.5C4.35051 1.5 2 3.85051 2 6.75C2 9.6495 4.35051 12 7.25 12C10.1495 12 12.5 9.6495 12.5 6.75C12.5 3.85051 10.1495 1.5 7.25 1.5Z" fill="#404040"/>
</svg>
