<svg width="359" height="59" viewBox="0 0 359 59" fill="none" xmlns="http://www.w3.org/2000/svg">
<g filter="url(#filter0_d)">
<rect x="12" y="10" width="335" height="35" rx="17.5" fill="white"/>
<path fill-rule="evenodd" clip-rule="evenodd" d="M32.25 20C35.9779 20 39 23.0221 39 26.75C39 28.3436 38.4478 29.8082 37.5242 30.9629L40.2803 33.7197C40.5732 34.0126 40.5732 34.4874 40.2803 34.7803C40.01 35.0507 39.5845 35.0715 39.2903 34.8427L39.2197 34.7803L36.4629 32.0242C35.3082 32.9478 33.8436 33.5 32.25 33.5C28.5221 33.5 25.5 30.4779 25.5 26.75C25.5 23.0221 28.5221 20 32.25 20ZM32.25 21.5C29.3505 21.5 27 23.8505 27 26.75C27 29.6495 29.3505 32 32.25 32C35.1495 32 37.5 29.6495 37.5 26.75C37.5 23.8505 35.1495 21.5 32.25 21.5Z" fill="#404040"/>
<path d="M51.424 33V21.64H60V33H58.88V22.632H52.544V33H51.424ZM66.1739 33.16C65.3739 33.16 64.6592 32.9627 64.0299 32.568C63.4112 32.1733 62.9259 31.6507 62.5739 31C62.2219 30.3387 62.0459 29.624 62.0459 28.856C62.0459 28.0773 62.2219 27.3627 62.5739 26.712C62.9365 26.0507 63.4272 25.5227 64.0459 25.128C64.6752 24.7227 65.3845 24.52 66.1739 24.52C66.9739 24.52 67.6832 24.7227 68.3019 25.128C68.9312 25.5227 69.4219 26.0507 69.7739 26.712C70.1365 27.3627 70.3179 28.0773 70.3179 28.856C70.3179 29.624 70.1419 30.3387 69.7899 31C69.4379 31.6507 68.9472 32.1733 68.3179 32.568C67.6992 32.9627 66.9845 33.16 66.1739 33.16ZM63.1499 28.872C63.1499 29.4907 63.2832 30.056 63.5499 30.568C63.8272 31.0693 64.1952 31.4693 64.6539 31.768C65.1125 32.056 65.6192 32.2 66.1739 32.2C66.7285 32.2 67.2352 32.0507 67.6939 31.752C68.1525 31.4533 68.5205 31.048 68.7979 30.536C69.0752 30.024 69.2139 29.4587 69.2139 28.84C69.2139 28.2213 69.0752 27.656 68.7979 27.144C68.5205 26.632 68.1525 26.2267 67.6939 25.928C67.2352 25.6293 66.7285 25.48 66.1739 25.48C65.6299 25.48 65.1285 25.6347 64.6699 25.944C64.2112 26.2427 63.8432 26.648 63.5659 27.16C63.2885 27.672 63.1499 28.2427 63.1499 28.872ZM72.1215 33V24.68H73.2095V31.528L78.2815 24.664H79.2575V33H78.1695V26.264L73.1775 33H72.1215ZM85.2535 33.16C84.4428 33.16 83.7228 32.9627 83.0935 32.568C82.4642 32.1627 81.9682 31.6347 81.6055 30.984C81.2428 30.3227 81.0615 29.5973 81.0615 28.808C81.0615 28.0187 81.2375 27.304 81.5895 26.664C81.9415 26.0133 82.4322 25.496 83.0615 25.112C83.6908 24.7173 84.4162 24.52 85.2375 24.52C86.0162 24.52 86.6988 24.7013 87.2855 25.064C87.8828 25.416 88.3308 25.896 88.6295 26.504L87.5735 26.84C87.3388 26.4133 87.0082 26.0827 86.5815 25.848C86.1655 25.6027 85.7015 25.48 85.1895 25.48C84.6242 25.48 84.1122 25.624 83.6535 25.912C83.2055 26.2 82.8428 26.6 82.5655 27.112C82.2988 27.6133 82.1655 28.1787 82.1655 28.808C82.1655 29.4373 82.3042 30.008 82.5815 30.52C82.8588 31.032 83.2268 31.4427 83.6855 31.752C84.1442 32.0507 84.6508 32.2 85.2055 32.2C85.5682 32.2 85.9202 32.136 86.2615 32.008C86.6028 31.88 86.8962 31.7093 87.1415 31.496C87.3868 31.272 87.5522 31.032 87.6375 30.776L88.7095 31.096C88.5602 31.4907 88.3148 31.848 87.9735 32.168C87.6322 32.4773 87.2268 32.7227 86.7575 32.904C86.2882 33.0747 85.7868 33.16 85.2535 33.16ZM90.4028 33V24.664H91.4908V28.232H92.7388L95.5388 24.664H96.7868L93.6028 28.712L97.1868 33H95.9068L92.7388 29.24H91.4908V33H90.4028Z" fill="#404040"/>
</g>
<defs>
<filter id="filter0_d" x="0" y="0" width="359" height="59" filterUnits="userSpaceOnUse" color-interpolation-filters="sRGB">
<feFlood flood-opacity="0" result="BackgroundImageFix"/>
<feColorMatrix in="SourceAlpha" type="matrix" values="0 0 0 0 0 0 0 0 0 0 0 0 0 0 0 0 0 0 127 0"/>
<feOffset dy="2"/>
<feGaussianBlur stdDeviation="6"/>
<feColorMatrix type="matrix" values="0 0 0 0 0 0 0 0 0 0 0 0 0 0 0 0 0 0 0.25 0"/>
<feBlend mode="normal" in2="BackgroundImageFix" result="effect1_dropShadow"/>
<feBlend mode="normal" in="SourceGraphic" in2="effect1_dropShadow" result="shape"/>
</filter>
</defs>
</svg>
