<svg width="197" height="44" viewBox="0 0 197 44" fill="none" xmlns="http://www.w3.org/2000/svg">
<rect y="0.5" width="197" height="43" rx="21.5" fill="#508B8C"/>
<path fill-rule="evenodd" clip-rule="evenodd" d="M31.166 20.374C31.3747 20.2349 31.5 20.0008 31.5 19.75V16.75C31.5 15.5074 30.4926 14.5 29.25 14.5H26.25C25.8358 14.5 25.5 14.8358 25.5 15.25C25.5 22.7058 32.2942 29.5 39.75 29.5C40.1642 29.5 40.5 29.1642 40.5 28.75V25.75C40.5 24.5074 39.4926 23.5 38.25 23.5H35.25C34.9992 23.5 34.7651 23.6253 34.626 23.834L33.197 25.9775C31.6405 24.9711 30.2769 23.6419 29.2281 22.1117L29.0225 21.803L31.166 20.374ZM35.6514 25H38.25C38.6642 25 39 25.3358 39 25.75V27.974C37.5471 27.8735 36.1291 27.4849 34.8066 26.8687L34.5031 26.7225L35.6514 25ZM27.026 16H29.25C29.6642 16 30 16.3358 30 16.75V19.3486L28.2775 20.4969C27.5766 19.0888 27.1343 17.5647 27.026 16Z" fill="#FAFAFA"/>
<path d="M54.272 27.644C53.4933 27.644 52.7947 27.4787 52.176 27.148C51.5573 26.8067 51.072 26.3373 50.72 25.74L51.584 25.212C51.8507 25.6813 52.2133 26.044 52.672 26.3C53.1307 26.556 53.6587 26.684 54.256 26.684C55.0667 26.684 55.7067 26.476 56.176 26.06C56.656 25.6333 56.896 25.068 56.896 24.364C56.896 23.7027 56.6773 23.1587 56.24 22.732C55.8133 22.2947 55.216 22.076 54.448 22.076H53.36V21.18H54.464C55.0507 21.18 55.5307 20.9827 55.904 20.588C56.2773 20.1827 56.464 19.692 56.464 19.116C56.464 18.508 56.2613 18.0067 55.856 17.612C55.4507 17.2173 54.9067 17.02 54.224 17.02C53.6693 17.02 53.184 17.1427 52.768 17.388C52.352 17.6333 52.0267 17.9747 51.792 18.412L50.976 17.868C51.3067 17.292 51.744 16.8387 52.288 16.508C52.8427 16.1667 53.504 15.996 54.272 15.996C54.912 15.996 55.4773 16.124 55.968 16.38C56.4693 16.6253 56.8587 16.972 57.136 17.42C57.4133 17.8573 57.552 18.3747 57.552 18.972C57.552 19.5373 57.408 20.06 57.12 20.54C56.832 21.0093 56.4267 21.356 55.904 21.58C56.5653 21.7613 57.0827 22.1133 57.456 22.636C57.8293 23.1587 58.016 23.7667 58.016 24.46C58.016 25.1213 57.856 25.692 57.536 26.172C57.216 26.6413 56.7733 27.004 56.208 27.26C55.6427 27.516 54.9973 27.644 54.272 27.644ZM59.2467 25.1C59.2467 24.588 59.3961 24.1453 59.6948 23.772C59.9934 23.388 60.4041 23.0893 60.9268 22.876C61.4601 22.6627 62.0734 22.556 62.7668 22.556C63.1721 22.556 63.5934 22.5933 64.0308 22.668C64.4681 22.732 64.8574 22.8227 65.1988 22.94V22.236C65.1988 21.532 64.9908 20.972 64.5748 20.556C64.1588 20.14 63.5828 19.932 62.8468 19.932C62.4094 19.932 61.9721 20.0173 61.5348 20.188C61.0974 20.348 60.6441 20.588 60.1748 20.908L59.7588 20.14C60.3028 19.7667 60.8361 19.4893 61.3588 19.308C61.8814 19.116 62.4148 19.02 62.9588 19.02C63.9828 19.02 64.7934 19.3133 65.3908 19.9C65.9881 20.4867 66.2868 21.2973 66.2868 22.332V26.188C66.2868 26.476 66.4201 26.6253 66.6868 26.636V27.5C66.4521 27.532 66.2868 27.5427 66.1908 27.532C65.9241 27.5213 65.7214 27.436 65.5828 27.276C65.4441 27.116 65.3694 26.9453 65.3588 26.764L65.3428 26.156C64.9694 26.636 64.4841 27.0093 63.8868 27.276C63.2894 27.532 62.6814 27.66 62.0628 27.66C61.5188 27.66 61.0334 27.548 60.6068 27.324C60.1801 27.0893 59.8441 26.78 59.5988 26.396C59.3641 26.0013 59.2467 25.5693 59.2467 25.1ZM64.8308 25.74C65.0761 25.452 65.1988 25.1853 65.1988 24.94V23.724C64.4628 23.436 63.6948 23.292 62.8948 23.292C62.1161 23.292 61.4868 23.4467 61.0068 23.756C60.5268 24.0653 60.2868 24.4867 60.2868 25.02C60.2868 25.4787 60.4628 25.8947 60.8148 26.268C61.1774 26.6413 61.6788 26.828 62.3188 26.828C62.8414 26.828 63.3268 26.7267 63.7748 26.524C64.2334 26.3213 64.5854 26.06 64.8308 25.74ZM68.6215 27.5V19.164H69.7095V22.732H70.9575L73.7575 19.164H75.0055L71.8215 23.212L75.4055 27.5H74.1255L70.9575 23.74H69.7095V27.5H68.6215ZM76.2467 25.1C76.2467 24.588 76.3961 24.1453 76.6948 23.772C76.9934 23.388 77.4041 23.0893 77.9268 22.876C78.4601 22.6627 79.0734 22.556 79.7668 22.556C80.1721 22.556 80.5934 22.5933 81.0308 22.668C81.4681 22.732 81.8574 22.8227 82.1988 22.94V22.236C82.1988 21.532 81.9908 20.972 81.5748 20.556C81.1588 20.14 80.5828 19.932 79.8468 19.932C79.4094 19.932 78.9721 20.0173 78.5348 20.188C78.0974 20.348 77.6441 20.588 77.1748 20.908L76.7588 20.14C77.3028 19.7667 77.8361 19.4893 78.3588 19.308C78.8814 19.116 79.4148 19.02 79.9588 19.02C80.9828 19.02 81.7934 19.3133 82.3908 19.9C82.9881 20.4867 83.2868 21.2973 83.2868 22.332V26.188C83.2868 26.476 83.4201 26.6253 83.6868 26.636V27.5C83.4521 27.532 83.2868 27.5427 83.1908 27.532C82.9241 27.5213 82.7214 27.436 82.5828 27.276C82.4441 27.116 82.3694 26.9453 82.3588 26.764L82.3428 26.156C81.9694 26.636 81.4841 27.0093 80.8868 27.276C80.2894 27.532 79.6814 27.66 79.0628 27.66C78.5188 27.66 78.0334 27.548 77.6068 27.324C77.1801 27.0893 76.8441 26.78 76.5988 26.396C76.3641 26.0013 76.2467 25.5693 76.2467 25.1ZM81.8308 25.74C82.0761 25.452 82.1988 25.1853 82.1988 24.94V23.724C81.4628 23.436 80.6948 23.292 79.8948 23.292C79.1161 23.292 78.4868 23.4467 78.0068 23.756C77.5268 24.0653 77.2868 24.4867 77.2868 25.02C77.2868 25.4787 77.4628 25.8947 77.8148 26.268C78.1774 26.6413 78.6788 26.828 79.3188 26.828C79.8414 26.828 80.3268 26.7267 80.7748 26.524C81.2334 26.3213 81.5854 26.06 81.8308 25.74ZM88.0535 27.596C87.2855 27.596 86.6242 27.452 86.0695 27.164C85.5255 26.8653 85.1148 26.4493 84.8375 25.916L85.7335 25.516C85.9362 25.8893 86.2295 26.1827 86.6135 26.396C86.9975 26.5987 87.4615 26.7 88.0055 26.7C88.6562 26.7 89.1735 26.5507 89.5575 26.252C89.9522 25.9533 90.1495 25.5533 90.1495 25.052C90.1495 24.604 89.9948 24.236 89.6855 23.948C89.3762 23.66 88.9495 23.516 88.4055 23.516H87.5575V22.764H88.4695C88.8215 22.764 89.1148 22.6307 89.3495 22.364C89.5948 22.0867 89.7175 21.7453 89.7175 21.34C89.7175 20.924 89.5682 20.588 89.2695 20.332C88.9815 20.076 88.5548 19.948 87.9895 19.948C87.0722 19.948 86.4268 20.316 86.0535 21.052L85.2215 20.604C85.4668 20.1133 85.8295 19.7293 86.3095 19.452C86.7895 19.1747 87.3602 19.036 88.0215 19.036C88.8108 19.036 89.4562 19.2333 89.9575 19.628C90.4588 20.012 90.7095 20.5453 90.7095 21.228C90.7095 21.6227 90.6135 21.9907 90.4215 22.332C90.2295 22.6733 89.9628 22.924 89.6215 23.084C90.1122 23.244 90.4908 23.5107 90.7575 23.884C91.0348 24.2467 91.1735 24.6787 91.1735 25.18C91.1735 25.9373 90.8802 26.5293 90.2935 26.956C89.7068 27.3827 88.9602 27.596 88.0535 27.596ZM92.3249 25.1C92.3249 24.588 92.4742 24.1453 92.7729 23.772C93.0715 23.388 93.4822 23.0893 94.0049 22.876C94.5382 22.6627 95.1515 22.556 95.8449 22.556C96.2502 22.556 96.6715 22.5933 97.1089 22.668C97.5462 22.732 97.9355 22.8227 98.2769 22.94V22.236C98.2769 21.532 98.0689 20.972 97.6529 20.556C97.2369 20.14 96.6609 19.932 95.9249 19.932C95.4875 19.932 95.0502 20.0173 94.6129 20.188C94.1755 20.348 93.7222 20.588 93.2529 20.908L92.8369 20.14C93.3809 19.7667 93.9142 19.4893 94.4369 19.308C94.9595 19.116 95.4929 19.02 96.0369 19.02C97.0609 19.02 97.8715 19.3133 98.4689 19.9C99.0662 20.4867 99.3649 21.2973 99.3649 22.332V26.188C99.3649 26.476 99.4982 26.6253 99.7649 26.636V27.5C99.5302 27.532 99.3649 27.5427 99.2689 27.532C99.0022 27.5213 98.7995 27.436 98.6609 27.276C98.5222 27.116 98.4475 26.9453 98.4369 26.764L98.4209 26.156C98.0475 26.636 97.5622 27.0093 96.9649 27.276C96.3675 27.532 95.7595 27.66 95.1409 27.66C94.5969 27.66 94.1115 27.548 93.6849 27.324C93.2582 27.0893 92.9222 26.78 92.6769 26.396C92.4422 26.0013 92.3249 25.5693 92.3249 25.1ZM97.9089 25.74C98.1542 25.452 98.2769 25.1853 98.2769 24.94V23.724C97.5409 23.436 96.7729 23.292 95.9729 23.292C95.1942 23.292 94.5649 23.4467 94.0849 23.756C93.6049 24.0653 93.3649 24.4867 93.3649 25.02C93.3649 25.4787 93.5409 25.8947 93.8929 26.268C94.2555 26.6413 94.7569 26.828 95.3969 26.828C95.9195 26.828 96.4049 26.7267 96.8529 26.524C97.3115 26.3213 97.6635 26.06 97.9089 25.74ZM103.655 27.5V20.14H100.679V19.164H107.719V20.14H104.743V27.5H103.655ZM109.184 27.5V19.164H110.272V22.108H112.432C113.381 22.108 114.096 22.3533 114.576 22.844C115.067 23.324 115.312 23.9587 115.312 24.748C115.312 25.26 115.205 25.724 114.992 26.14C114.779 26.556 114.464 26.8867 114.048 27.132C113.632 27.3773 113.12 27.5 112.512 27.5H109.184ZM110.272 26.636H112.368C113.019 26.636 113.488 26.4493 113.776 26.076C114.064 25.692 114.208 25.2547 114.208 24.764C114.208 24.444 114.149 24.1507 114.032 23.884C113.925 23.6067 113.733 23.388 113.456 23.228C113.189 23.0573 112.816 22.972 112.336 22.972H110.272V26.636ZM123.507 27.596C122.739 27.596 122.077 27.452 121.523 27.164C120.979 26.8653 120.568 26.4493 120.291 25.916L121.187 25.516C121.389 25.8893 121.683 26.1827 122.067 26.396C122.451 26.5987 122.915 26.7 123.459 26.7C124.109 26.7 124.627 26.5507 125.011 26.252C125.405 25.9533 125.603 25.5533 125.603 25.052C125.603 24.604 125.448 24.236 125.139 23.948C124.829 23.66 124.403 23.516 123.859 23.516H123.011V22.764H123.923C124.275 22.764 124.568 22.6307 124.803 22.364C125.048 22.0867 125.171 21.7453 125.171 21.34C125.171 20.924 125.021 20.588 124.723 20.332C124.435 20.076 124.008 19.948 123.443 19.948C122.525 19.948 121.88 20.316 121.507 21.052L120.675 20.604C120.92 20.1133 121.283 19.7293 121.763 19.452C122.243 19.1747 122.813 19.036 123.475 19.036C124.264 19.036 124.909 19.2333 125.411 19.628C125.912 20.012 126.163 20.5453 126.163 21.228C126.163 21.6227 126.067 21.9907 125.875 22.332C125.683 22.6733 125.416 22.924 125.075 23.084C125.565 23.244 125.944 23.5107 126.211 23.884C126.488 24.2467 126.627 24.6787 126.627 25.18C126.627 25.9373 126.333 26.5293 125.747 26.956C125.16 27.3827 124.413 27.596 123.507 27.596ZM128.434 27.5V19.164H132.594C133.063 19.164 133.458 19.2653 133.778 19.468C134.098 19.66 134.338 19.916 134.498 20.236C134.669 20.5453 134.754 20.8707 134.754 21.212C134.754 21.66 134.642 22.0653 134.418 22.428C134.205 22.78 133.901 23.0467 133.506 23.228C133.986 23.356 134.375 23.6067 134.674 23.98C134.973 24.3533 135.122 24.7907 135.122 25.292C135.122 25.964 134.882 26.5027 134.402 26.908C133.933 27.3027 133.33 27.5 132.594 27.5H128.434ZM129.474 22.924H132.306C132.722 22.924 133.058 22.7693 133.314 22.46C133.581 22.14 133.714 21.7827 133.714 21.388C133.714 21.004 133.586 20.668 133.33 20.38C133.085 20.092 132.765 19.948 132.37 19.948H129.474V22.924ZM129.474 26.716H132.562C132.989 26.716 133.346 26.5613 133.634 26.252C133.922 25.932 134.066 25.58 134.066 25.196C134.066 24.78 133.927 24.4227 133.65 24.124C133.373 23.8253 133.031 23.676 132.626 23.676H129.474V26.716ZM140.565 27.66C139.765 27.66 139.05 27.4627 138.421 27.068C137.802 26.6733 137.317 26.1507 136.965 25.5C136.613 24.8387 136.437 24.124 136.437 23.356C136.437 22.5773 136.613 21.8627 136.965 21.212C137.327 20.5507 137.818 20.0227 138.437 19.628C139.066 19.2227 139.775 19.02 140.565 19.02C141.365 19.02 142.074 19.2227 142.693 19.628C143.322 20.0227 143.813 20.5507 144.165 21.212C144.527 21.8627 144.709 22.5773 144.709 23.356C144.709 24.124 144.533 24.8387 144.181 25.5C143.829 26.1507 143.338 26.6733 142.709 27.068C142.09 27.4627 141.375 27.66 140.565 27.66ZM137.541 23.372C137.541 23.9907 137.674 24.556 137.941 25.068C138.218 25.5693 138.586 25.9693 139.045 26.268C139.503 26.556 140.01 26.7 140.565 26.7C141.119 26.7 141.626 26.5507 142.085 26.252C142.543 25.9533 142.911 25.548 143.189 25.036C143.466 24.524 143.605 23.9587 143.605 23.34C143.605 22.7213 143.466 22.156 143.189 21.644C142.911 21.132 142.543 20.7267 142.085 20.428C141.626 20.1293 141.119 19.98 140.565 19.98C140.021 19.98 139.519 20.1347 139.061 20.444C138.602 20.7427 138.234 21.148 137.957 21.66C137.679 22.172 137.541 22.7427 137.541 23.372ZM146.512 27.5V19.164H147.6V22.748H152.368V19.164H153.456V27.5H152.368V23.724H147.6V27.5H146.512ZM159.408 27.66C158.608 27.66 157.894 27.4627 157.264 27.068C156.646 26.6733 156.16 26.1507 155.808 25.5C155.456 24.8387 155.28 24.124 155.28 23.356C155.28 22.5773 155.456 21.8627 155.808 21.212C156.171 20.5507 156.662 20.0227 157.28 19.628C157.91 19.2227 158.619 19.02 159.408 19.02C160.208 19.02 160.918 19.2227 161.536 19.628C162.166 20.0227 162.656 20.5507 163.008 21.212C163.371 21.8627 163.552 22.5773 163.552 23.356C163.552 24.124 163.376 24.8387 163.024 25.5C162.672 26.1507 162.182 26.6733 161.552 27.068C160.934 27.4627 160.219 27.66 159.408 27.66ZM156.384 23.372C156.384 23.9907 156.518 24.556 156.784 25.068C157.062 25.5693 157.43 25.9693 157.888 26.268C158.347 26.556 158.854 26.7 159.408 26.7C159.963 26.7 160.47 26.5507 160.928 26.252C161.387 25.9533 161.755 25.548 162.032 25.036C162.31 24.524 162.448 23.9587 162.448 23.34C162.448 22.7213 162.31 22.156 162.032 21.644C161.755 21.132 161.387 20.7267 160.928 20.428C160.47 20.1293 159.963 19.98 159.408 19.98C158.864 19.98 158.363 20.1347 157.904 20.444C157.446 20.7427 157.078 21.148 156.8 21.66C156.523 22.172 156.384 22.7427 156.384 23.372ZM165.356 27.5V19.164H166.444V22.732H167.692L170.492 19.164H171.74L168.556 23.212L172.14 27.5H170.86L167.692 23.74H166.444V27.5H165.356Z" fill="#FAFAFA"/>
</svg>
