<svg width="44" height="44" viewBox="0 0 44 44" fill="none" xmlns="http://www.w3.org/2000/svg">
<rect width="44" height="44" rx="22" fill="#508B8C"/>
<path fill-rule="evenodd" clip-rule="evenodd" d="M14.3871 20.7903L14.2929 20.7071C13.9324 20.3466 13.9047 19.7794 14.2097 19.3871L14.2929 19.2929L21.2929 12.2929L21.3369 12.2515L21.4047 12.1963L21.5159 12.1247L21.6287 12.0712L21.734 12.0358L21.8819 12.0069L22 12L22.0752 12.0028L22.2007 12.0202L22.3121 12.0497L22.4232 12.0937L22.5207 12.146L22.6254 12.2197L22.7071 12.2929L29.7071 19.2929C30.0976 19.6834 30.0976 20.3166 29.7071 20.7071C29.3466 21.0676 28.7794 21.0953 28.3871 20.7903L28.2929 20.7071L23 15.416V31C23 31.5523 22.5523 32 22 32C21.4477 32 21 31.5523 21 31V15.414L15.7071 20.7071C15.3466 21.0676 14.7794 21.0953 14.3871 20.7903L14.2929 20.7071L14.3871 20.7903Z" fill="#FAFAFA"/>
</svg>
